<svg width="89" height="38" viewBox="0 0 89 38" fill="none" xmlns="http://www.w3.org/2000/svg">
<g clip-path="url(#clip0_137_81)">
<path d="M38.6168 11.7596C38.5688 11.9737 38.486 12.1836 38.3771 12.3934C38.2681 12.6033 38.1287 12.7874 37.9543 12.9501C37.78 13.1172 37.5578 13.2457 37.2876 13.3399C37.0174 13.4341 36.6992 13.4812 36.3244 13.4812C35.4528 13.4812 34.7686 13.2114 34.2805 12.6675C33.8447 12.1793 33.6006 11.4769 33.5614 10.5433L40.6215 10.4919C40.6868 9.57973 40.6258 8.77888 40.4384 8.0851C40.251 7.39132 39.9634 6.8046 39.5712 6.32495C39.1789 5.84529 38.6908 5.48555 38.1069 5.24573C37.5229 5.0059 36.8648 4.88599 36.1327 4.88599C35.3482 4.88599 34.6509 5.01875 34.0408 5.28427C33.4307 5.54979 32.9164 5.92238 32.4893 6.4106C32.0666 6.89453 31.7485 7.4684 31.5349 8.12364C31.3257 8.77888 31.2168 9.49408 31.2168 10.2649C31.2168 11.0358 31.3301 11.7296 31.548 12.3463C31.7659 12.963 32.0928 13.494 32.5286 13.9352C32.9644 14.3805 33.5004 14.7146 34.128 14.9416C34.7555 15.1685 35.4833 15.2799 36.307 15.2799C36.9868 15.2799 37.5795 15.2071 38.0894 15.0615C38.595 14.9202 39.0308 14.706 39.3968 14.4277C39.7629 14.1493 40.0549 13.8238 40.2772 13.4426C40.4951 13.0658 40.652 12.6418 40.7566 12.175L38.6168 11.7596ZM33.8665 8.36775C34.08 7.86669 34.3807 7.47269 34.773 7.19432C35.1652 6.92023 35.6228 6.7789 36.1501 6.7789C36.6164 6.7789 37.0261 6.89453 37.3834 7.12151C37.7451 7.34849 38.0153 7.68682 38.194 8.14077C38.303 8.41914 38.3684 8.74462 38.3858 9.11721L33.6399 9.15575C33.6922 8.86882 33.7663 8.60758 33.8665 8.36775Z" fill="black"/>
<path d="M51.2295 13.8025C50.955 13.4513 50.615 13.1943 50.2097 13.0273C49.8044 12.8646 49.3991 12.7618 48.9938 12.7233C48.5885 12.689 48.2573 12.6676 48.0002 12.6676H45.2851C45.0934 12.6676 44.9016 12.6547 44.7055 12.629C44.5138 12.6033 44.3525 12.5605 44.2261 12.4963C44.0954 12.4363 44.0344 12.3507 44.0344 12.2522C44.0344 12.1237 44.1172 11.9909 44.2828 11.8453C44.4484 11.6997 44.675 11.537 44.9583 11.3614C45.3418 11.4128 45.6338 11.4428 45.8343 11.4556C46.0347 11.4684 46.2221 11.477 46.4052 11.477C47.3029 11.477 48.0656 11.3657 48.6975 11.143C49.325 10.9246 49.8044 10.6119 50.1313 10.2179C50.4581 9.81964 50.6237 9.3614 50.6237 8.8432C50.6237 8.29931 50.4363 7.87105 50.0659 7.55414C49.6911 7.24151 49.0941 7.01453 48.2704 6.8732V6.49633L51.4518 6.95029V5.05737H46.4618C45.4725 5.05737 44.6314 5.1987 43.9385 5.48135C43.2412 5.76829 42.7183 6.15372 42.3653 6.63766C42.0122 7.12159 41.8379 7.6869 41.8379 8.33357C41.8379 9.05305 42.0558 9.63549 42.4916 10.0852C42.9274 10.5306 43.5376 10.7875 44.322 10.8518V11.1901C43.4983 11.3571 42.91 11.5712 42.5483 11.8368C42.1909 12.1023 42.0079 12.4021 42.0079 12.7447C42.0079 13.1087 42.1909 13.3699 42.5483 13.5284C42.91 13.6868 43.4417 13.7596 44.1477 13.7468V14.0894C43.2238 14.1879 42.5309 14.4235 42.0689 14.7875C41.607 15.1558 41.376 15.6269 41.376 16.2093C41.376 16.6761 41.5329 17.0744 41.8554 17.4042C42.1779 17.7296 42.6834 17.978 43.3763 18.1408C44.0736 18.3035 44.9626 18.3849 46.0565 18.3849C47.3029 18.3849 48.3401 18.2778 49.1682 18.0637C49.9962 17.8495 50.615 17.5112 51.029 17.053C51.4387 16.5905 51.6435 15.9995 51.6435 15.28C51.6435 14.6504 51.5041 14.1579 51.2295 13.8025ZM44.2436 8.44492C44.2436 7.91388 44.4266 7.48133 44.784 7.14729C45.1457 6.81325 45.6512 6.64622 46.3049 6.64622C46.9586 6.64622 47.4816 6.81753 47.8302 7.16014C48.1745 7.49846 48.3488 7.93529 48.3488 8.46633C48.3488 8.9674 48.1789 9.37853 47.839 9.68688C47.499 9.99523 46.9935 10.1494 46.3267 10.1494C45.8778 10.1494 45.4987 10.0766 45.1893 9.93099C44.8798 9.78538 44.6445 9.5841 44.4876 9.32714C44.3264 9.0659 44.2436 8.77468 44.2436 8.44492ZM49.1987 15.8881C48.9895 16.0765 48.6496 16.2136 48.1745 16.3035C47.6995 16.3935 47.0589 16.4363 46.2483 16.4363C45.7079 16.4363 45.2459 16.4106 44.8624 16.3592C44.4745 16.3078 44.1826 16.2093 43.9734 16.0594C43.7685 15.9052 43.6683 15.6868 43.6683 15.3956C43.6683 15.1044 43.7903 14.8217 44.0344 14.5819C44.2784 14.3421 44.7012 14.1708 45.3026 14.068H47.6951C47.8346 14.068 48.0089 14.0766 48.2137 14.0894C48.4186 14.1023 48.6234 14.1408 48.8195 14.2008C49.02 14.265 49.1856 14.3721 49.312 14.522C49.4427 14.6761 49.5037 14.8903 49.5037 15.1686C49.5037 15.447 49.4035 15.6954 49.1987 15.8881Z" fill="black"/>
<path d="M59.5826 11.7601C59.5303 11.9742 59.4518 12.1841 59.3429 12.3939C59.2296 12.6037 59.0901 12.7879 58.9158 12.9506C58.7415 13.1177 58.5236 13.2461 58.2534 13.3404C57.9832 13.4346 57.6607 13.4817 57.2902 13.4817C56.4143 13.4817 55.7344 13.2119 55.2463 12.668C54.8105 12.1798 54.5665 11.4774 54.5272 10.5438L61.5873 10.4924C61.6483 9.58022 61.5873 8.77937 61.4042 8.08559C61.2168 7.3918 60.9249 6.80509 60.537 6.32543C60.1448 5.84578 59.6567 5.48604 59.0727 5.24621C58.4844 5.00639 57.8263 4.88647 57.0941 4.88647C56.314 4.88647 55.6168 5.01924 55.0066 5.28476C54.3965 5.55028 53.8779 5.92287 53.4552 6.41109C53.0324 6.89502 52.7099 7.46889 52.5008 8.12413C52.2872 8.77937 52.1826 9.49457 52.1826 10.2654C52.1826 11.0363 52.2916 11.7301 52.5095 12.3468C52.7274 12.9635 53.0542 13.4945 53.4944 13.9356C53.9302 14.381 54.4619 14.7151 55.0938 14.9421C55.7213 15.169 56.4448 15.2804 57.2685 15.2804C57.9483 15.2804 58.5454 15.2076 59.0509 15.062C59.5608 14.9206 59.9966 14.7065 60.3627 14.4281C60.7287 14.1498 61.0207 13.8243 61.2386 13.4431C61.4565 13.0663 61.6178 12.6423 61.7224 12.1755L59.5826 11.7601ZM54.8323 8.36824C55.0459 7.86717 55.3466 7.47317 55.7388 7.1948C56.131 6.92072 56.5886 6.77939 57.1159 6.77939C57.5779 6.77939 57.9875 6.89502 58.3493 7.122C58.7066 7.34898 58.9768 7.6873 59.1598 8.14126C59.2688 8.41963 59.3342 8.74511 59.3472 9.1177L54.6013 9.15624C54.6536 8.86931 54.7321 8.60807 54.8323 8.36824Z" fill="black"/>
<path d="M69.9169 18.8605C69.6293 18.3595 69.1717 17.974 68.7097 17.6186C68.3872 17.3745 68.0255 17.0875 67.9906 16.6893C67.9514 16.231 68.409 15.837 68.8753 15.807C69.3416 15.7771 69.7818 16.0383 70.113 16.3681C70.6316 16.8905 70.9367 17.6143 70.9454 18.3466C70.9497 18.7835 70.8539 19.5715 70.4965 19.8884C70.2568 20.0982 70.2263 19.9655 70.1914 19.7428C70.1435 19.4258 70.0825 19.1432 69.9213 18.8605H69.9169Z" fill="black"/>
<path d="M71.5161 17.5328C71.5248 17.3444 71.5248 17.1517 71.5727 16.9675C71.6207 16.7834 71.7122 16.6035 71.8691 16.4964C72.1088 16.3337 72.4574 16.3851 72.6797 16.5735C72.9019 16.7619 73.0022 17.0617 72.9935 17.3487C72.9848 17.6356 72.8889 17.914 72.7625 18.1709C72.4618 18.8005 71.9955 19.3529 71.4289 19.7641C71.333 19.8326 71.1936 19.8968 71.1108 19.8154C70.9757 19.6913 71.1457 19.3743 71.1892 19.2373C71.2328 19.0917 71.2764 18.9504 71.3113 18.8005C71.4071 18.3808 71.4943 17.9611 71.5161 17.5285V17.5328Z" fill="black"/>
<path d="M72.6838 19.4255C72.8232 19.3227 72.9845 19.2156 73.1588 19.2456C73.368 19.2841 73.4857 19.524 73.4464 19.7295C73.4072 19.9351 73.2503 20.0978 73.076 20.2178C72.7012 20.4833 72.2218 20.6075 71.7642 20.5561C71.6814 20.5475 71.5943 20.5304 71.5245 20.4833C71.4548 20.4362 71.4069 20.3462 71.433 20.2649C71.4722 20.1364 71.5681 20.2006 71.6509 20.1792C71.7642 20.1492 71.8819 20.025 71.9778 19.9522L72.6881 19.4255H72.6838Z" fill="black"/>
<path d="M7.95682 10.4407L7.89581 10.9889C7.88274 11.1088 7.87402 11.2287 7.87402 11.3444C7.75635 11.3315 7.62997 11.3272 7.49923 11.3272C6.21796 11.3272 5.52939 11.8626 5.02822 12.2523C5.01514 12.2608 5.00207 12.2737 4.98899 12.2822C4.89747 12.2137 4.84082 12.1024 4.84082 11.9825V11.3358C4.84082 11.1688 4.95413 11.0189 5.11538 10.9675L7.6997 10.1624C7.85223 10.1624 7.97426 10.2908 7.95682 10.4407Z" fill="black"/>
<path d="M10.285 7.23325L9.8492 7.58014C9.52671 7.83282 9.23036 8.12403 8.97324 8.44095L8.62023 8.86921C8.52436 8.98484 8.34568 8.9934 8.23673 8.88634L6.91188 6.62512C6.82036 6.47523 6.84651 6.28251 6.97289 6.15831L7.4392 5.70007C7.55687 5.58444 7.74427 5.55446 7.8968 5.63155L10.3024 6.85638C10.4114 6.96344 10.4027 7.13903 10.285 7.23325Z" fill="black"/>
<path d="M14.5248 6.32966C14.5248 6.47955 14.3897 6.59518 14.2372 6.58233L13.6794 6.52238C13.2697 6.47955 12.8557 6.47955 12.4417 6.52238L11.8882 6.58233C11.7357 6.59518 11.6006 6.47955 11.6006 6.32966L12.2892 3.8072C12.3371 3.63589 12.494 3.52026 12.6683 3.52026H13.3264C13.5007 3.52026 13.6489 3.62733 13.7012 3.79007L14.5248 6.32966Z" fill="black"/>
<path d="M19.1352 6.52232L17.8888 8.88633C17.7798 8.99339 17.6012 8.98483 17.5053 8.8692L17.1523 8.43665C16.8908 8.12402 16.5988 7.83281 16.2763 7.58013L15.8405 7.23324C15.7229 7.13902 15.7098 6.96343 15.8187 6.85637L18.1241 5.55017C18.2767 5.46452 18.4728 5.49021 18.5992 5.61441L19.0611 6.06837C19.1831 6.18828 19.2136 6.37243 19.1352 6.52232Z" fill="black"/>
<path d="M21.2847 11.2116V11.4728C20.6484 11.657 20.2169 11.9867 19.8726 12.2523C19.4543 12.5777 19.2233 12.7533 18.635 12.7533C18.4519 12.7533 18.3038 12.7362 18.173 12.6977L18.2297 12.2052C18.2732 11.8026 18.2732 11.3957 18.2297 10.9889L18.1687 10.4407C18.1512 10.2908 18.2732 10.1624 18.4258 10.1624L20.9927 10.839C21.1626 10.8861 21.2847 11.036 21.2847 11.2116Z" fill="black"/>
<path d="M17.388 11.5972C17.388 11.8071 17.375 12.0084 17.3444 12.2096C16.8433 11.8285 16.1547 11.3274 14.9214 11.3274C13.688 11.3274 12.9603 11.8628 12.4504 12.2525C12.0276 12.5779 11.7967 12.7535 11.2127 12.7535C10.6287 12.7535 10.3977 12.5779 9.96627 12.2482C9.65685 12.0126 9.2777 11.7171 8.7373 11.5287C8.77653 9.21181 10.6941 7.34888 13.0605 7.34888C15.4269 7.34888 17.388 9.25036 17.388 11.5972Z" fill="black"/>
<path d="M13.9458 18.989H13.9501C14.0024 18.8777 14.0373 18.7578 14.046 18.6293V18.6207C14.0504 18.5993 14.0504 18.5779 14.0504 18.5565C14.0504 18.0212 13.6102 17.5886 13.0611 17.5886C12.5773 17.5886 12.172 17.9312 12.0936 18.3852C12.0805 18.4409 12.0762 18.4965 12.0762 18.5565C12.0762 18.8263 12.1895 19.0747 12.3725 19.2503C12.5512 19.4216 12.7952 19.5286 13.0611 19.5286C13.449 19.5286 13.7845 19.3102 13.9458 18.989Z" fill="black"/>
<path d="M21.1757 0H4.95074C2.2226 0 0 2.18413 0 4.86505V24.7706C0 31.8498 5.86157 37.6056 13.0611 37.6056C20.2605 37.6056 26.1265 31.8498 26.1265 24.7706V4.86505C26.1265 2.18413 23.9039 0 21.1757 0ZM1.70835 4.86505C1.70835 3.10918 3.16394 1.67878 4.95074 1.67878H21.1757C22.9625 1.67878 24.4181 3.10918 24.4181 4.86505V13.4388C24.2961 13.3575 24.1828 13.2718 24.0738 13.1862C23.625 12.8436 23.2022 12.5181 22.3481 12.5181C21.4939 12.5181 21.0711 12.8436 20.6223 13.1862C20.1429 13.5588 19.6373 13.9442 18.635 13.9442C17.8505 13.9442 17.3755 13.7086 16.9702 13.426C16.8569 13.3489 16.7523 13.2675 16.6477 13.1862C16.1989 12.8436 15.7761 12.5181 14.9219 12.5181C14.0678 12.5181 13.645 12.8436 13.2005 13.1862C12.7168 13.5588 12.2112 13.9442 11.2132 13.9442C10.2153 13.9442 9.70972 13.5588 9.22598 13.1862C9.14318 13.1262 9.06473 13.062 8.98193 13.0063C8.69866 12.7965 8.38488 12.6209 7.936 12.5523C7.80526 12.5309 7.66144 12.5181 7.50019 12.5181C7.08182 12.5181 6.76368 12.5952 6.49784 12.7194C6.22329 12.8436 6.00538 13.0106 5.77877 13.1862C5.29067 13.5588 4.79385 13.9442 3.78714 13.9442C2.78043 13.9442 2.29233 13.5588 1.80423 13.1862C1.77372 13.1605 1.74322 13.1391 1.70835 13.1134V4.86505ZM5.93566 33.4429C3.46029 31.4301 1.8696 28.398 1.85217 25.0019V20.7022L6.39761 25.1689L3.56924 25.0661C3.63025 29.8798 7.41739 33.8241 12.2156 34.2438V24.1111H9.90583V22.4323H12.2156V21.0705C11.1435 20.7236 10.3721 19.73 10.3721 18.5566C10.3721 17.0962 11.5793 15.9099 13.0654 15.9099C14.5515 15.9099 15.763 17.0962 15.763 18.5566C15.763 19.7257 14.9917 20.7193 13.9196 21.0705V22.4323H16.2294V24.1111H13.9196V34.2438C18.7396 33.8198 22.5311 29.8541 22.5703 25.019L19.7289 25.1218L24.2743 20.6593V24.9419H24.2787C24.2787 28.3595 22.688 31.4215 20.1952 33.4429C20.0557 33.5543 19.9163 33.6656 19.7724 33.7684C19.6504 33.8583 19.5328 33.9397 19.4107 34.0211C17.5978 35.2288 15.41 35.9311 13.0654 35.9311C10.7208 35.9311 8.53741 35.2288 6.72446 34.0211C6.45426 33.8412 6.19278 33.6485 5.94001 33.4429H5.93566Z" fill="black"/>
<path d="M64.7474 5.56743H64.085V5.28906H65.7062V5.56743H65.0437V7.52459H64.743V5.56743H64.7474Z" fill="black"/>
<path d="M66.0155 5.28919H66.3163L67.1225 6.38983L67.9418 5.30633V5.28919H68.2425V7.52472H67.9418V5.76028L67.1138 6.85663L66.3075 5.77313V7.52044H66.0068V5.28491L66.0155 5.28919Z" fill="black"/>
<path d="M37.4532 21.4644L36.5162 24.338C36.2285 25.2373 35.8189 26.3551 35.4485 27.4557H35.3962C35.0214 26.3894 34.5812 25.2031 34.2587 24.3037L33.2215 21.4644H31.2168L34.4461 29.1773C33.9362 30.3593 33.4786 30.5606 32.5591 30.5606C32.2191 30.5606 31.8967 30.5135 31.5437 30.445L31.2865 32.1281C31.6613 32.1795 32.0012 32.2309 32.5111 32.2309C34.3415 32.2309 35.3264 31.3615 36.1414 29.3915L39.423 21.4644H37.4532Z" fill="black"/>
<path d="M43.3457 21.3015C41.0883 21.3015 40.0336 22.385 39.7983 24.1366L41.5459 24.3679C41.7333 23.2373 42.2911 22.8004 43.276 22.8004C44.383 22.8004 44.8231 23.3871 44.8231 24.4535V24.7704H42.448C40.4433 24.7704 39.5586 25.8068 39.5586 27.2415C39.5586 28.6762 40.5958 29.477 42.0732 29.477C43.446 29.477 44.4178 28.7404 44.7882 27.34H44.8231V29.31H46.6404V24.4364C46.6404 22.4321 45.6555 21.3015 43.3457 21.3015ZM44.8231 26.355C44.8231 27.3057 44.0082 28.0081 42.753 28.0081C41.7158 28.0081 41.3585 27.507 41.3585 26.9588C41.3585 26.4107 41.8335 26.1066 42.7182 26.1066H44.8231V26.355Z" fill="black"/>
<path d="M53.6044 25.9228C53.3516 27.0405 52.8722 27.8757 51.5299 27.8757C50.1877 27.8757 49.2725 26.9892 49.2725 25.3875C49.2725 23.7044 50.192 22.9035 51.4994 22.9035C52.7371 22.9035 53.3342 23.6359 53.5695 24.7365L55.3345 24.4538C55.012 22.4324 53.9094 21.2676 51.5169 21.2676C49.1243 21.2676 47.4072 22.8008 47.4072 25.4046C47.4072 28.0084 49.0546 29.5287 51.5648 29.5287C53.8746 29.5287 55.0294 28.2739 55.3519 26.274L53.6044 25.9228Z" fill="black"/>
<path d="M60.7381 21.2675C59.3958 21.2675 58.3761 21.9485 58.0187 23.6187H58.0056V19.0791H56.1709V29.3103H58.0056V24.6722C58.0056 23.5544 58.716 22.8863 59.8883 22.8863C61.1304 22.8863 61.5531 23.7215 61.5531 24.6722V29.3103H63.3878V24.2054C63.3878 22.5009 62.6557 21.2675 60.7381 21.2675Z" fill="black"/>
<path d="M69.1103 27.593C68.7529 27.6743 68.3825 27.7728 67.9728 27.7728C67.1753 27.7728 66.8702 27.3917 66.8702 26.6251V22.9849H69.2323V21.4645H66.8702V19.3789H65.0529V21.4645H63.9678V22.9849H65.0529V26.9249C65.0529 28.3938 65.7982 29.5287 67.5501 29.5287C68.3302 29.5287 68.7529 29.4259 69.3325 29.2418L69.1103 27.593Z" fill="black"/>
<path d="M70.1299 21.4644V29.3101H71.9646V21.4644H70.1299Z" fill="black"/>
<path d="M77.8397 21.2676C76.5018 21.2676 75.482 21.9485 75.1246 23.6187H75.1072V21.4646H73.2725V29.3103H75.1072V24.6723C75.1072 23.5545 75.8219 22.8864 76.9942 22.8864C78.2319 22.8864 78.659 23.7215 78.659 24.6723V29.3103H80.4894V24.2055C80.4894 22.501 79.7616 21.2676 77.8397 21.2676Z" fill="black"/>
<path d="M86.5906 27.5928C85.7059 27.5928 84.6862 27.6399 83.7361 27.6399C83.2611 27.6399 83.0388 27.5243 83.0388 27.2245C83.0388 27.0917 83.126 26.9889 83.2262 26.8219L83.3962 26.5564C83.8058 26.672 84.2634 26.7234 84.7733 26.7234C86.9436 26.7234 88.1159 26.0039 88.1159 24.6206C88.1159 23.5671 87.3707 23.1517 86.3858 22.9676V22.9504C86.9436 22.9847 87.3359 22.9847 87.7281 22.9847H88.7609V21.4644H84.8561C82.6989 21.4644 81.4263 22.4322 81.4263 24.1538C81.4263 25.323 82.0713 26.1538 83.2611 26.5221L82.651 26.7876C82.0016 27.0061 81.6486 27.4258 81.6486 27.824C81.6486 28.4065 82.0888 28.7748 82.8689 28.8776C81.6312 29.0275 80.9688 29.5456 80.9688 30.2095C80.9688 31.1945 81.836 31.8283 84.9433 31.8112C87.9634 31.8283 89.0006 31.0103 89.0006 29.5456C89.0006 28.3251 88.2859 27.5928 86.5906 27.5928ZM83.0737 24.2523C83.0737 23.4686 83.5487 22.9504 84.7733 22.9504C85.9979 22.9504 86.5383 23.4344 86.5383 24.2523C86.5383 25.0703 86.0459 25.5371 84.7908 25.5371C83.5356 25.5371 83.0737 25.0361 83.0737 24.2523ZM84.9084 30.4793C82.8689 30.4793 82.3938 30.2608 82.3938 29.6613C82.3938 29.2758 82.7686 28.8947 83.601 28.8947H86.656C87.3184 28.8947 87.5407 29.1945 87.5407 29.5456C87.5407 30.1795 87.0831 30.4793 84.9084 30.4793Z" fill="black"/>
</g>
<defs>
<clipPath id="clip0_137_81">
<rect width="89" height="37.6056" fill="white"/>
</clipPath>
</defs>
</svg>
