<svg xmlns="http://www.w3.org/2000/svg" xmlns:xlink="http://www.w3.org/1999/xlink" width="500" height="125" viewBox="0 0 500 125">
  <defs>
    <linearGradient id="linear-gradient" y1="0.5" x2="1" y2="0.5" gradientUnits="objectBoundingBox">
      <stop offset="0" stop-color="#de1f27"/>
      <stop offset="1" stop-color="#ac0d21"/>
    </linearGradient>
    <clipPath id="clip-Custom_Size_1">
      <rect width="500" height="125"/>
    </clipPath>
  </defs>
  <g id="Custom_Size_1" data-name="Custom Size – 1" clip-path="url(#clip-Custom_Size_1)">
    <g id="Artboard_8" data-name="Artboard 8" transform="translate(-396 -202)">
      <path id="Path_1" data-name="Path 1" d="M536.075,291.468v4.994a2.33,2.33,0,0,1-2.339,2.33h-6.816v-16.9a2.33,2.33,0,0,0-2.33-2.33H510.1a2.339,2.339,0,0,1-2.33-2.33V263.2a2.339,2.339,0,0,1,2.33-2.33h14.324a2.33,2.33,0,0,0,2.339-2.33v-14.5a2.339,2.339,0,0,0-2.339-2.33H509.907a2.33,2.33,0,0,0-2.33,2.33v14.29a2.339,2.339,0,0,1-2.339,2.339H491.331a2.33,2.33,0,0,1-2.33-2.339V243.96a2.33,2.33,0,0,0-2.33-2.33H471.689a2.33,2.33,0,0,0-2.33,2.33v14.374a2.339,2.339,0,0,1-2.33,2.339H452.845a2.33,2.33,0,0,1-2.33-2.339V243.96a2.33,2.33,0,0,0-2.339-2.33H433.644a2.33,2.33,0,0,0-2.33,2.33v14.5a2.33,2.33,0,0,0,2.33,2.33H447.96a2.33,2.33,0,0,1,2.33,2.33v14.149a2.33,2.33,0,0,1-2.33,2.33h-14.5a2.33,2.33,0,0,0-2.33,2.33v16.887h-7.183a2.33,2.33,0,0,1-2.339-2.33v-4.994a2.33,2.33,0,0,0-2.33-2.339h-14.49a2.339,2.339,0,0,0-2.339,2.339v24.137a2.33,2.33,0,0,0,2.339,2.33H428.8a2.33,2.33,0,0,1,2.33,2.33v14.449a2.33,2.33,0,0,0,2.33,2.33h13.6a2.33,2.33,0,0,1,2.33,2.33v14.257a2.33,2.33,0,0,0,2.33,2.33h16.7a2.33,2.33,0,0,0,2.339-2.33V339.4a2.33,2.33,0,0,1,2.33-2.33h11.868a2.33,2.33,0,0,1,2.33,2.33v14.257a2.33,2.33,0,0,0,2.33,2.33h16.7a2.33,2.33,0,0,0,2.33-2.33V339.4a2.33,2.33,0,0,1,2.339-2.33h13.6a2.33,2.33,0,0,0,2.33-2.33V320.3a2.339,2.339,0,0,1,2.33-2.33h23.6a2.33,2.33,0,0,0,2.339-2.33V291.5a2.339,2.339,0,0,0-2.339-2.339h-14.49a2.33,2.33,0,0,0-2.289,2.305ZM467.161,317.91h-14.54a2.339,2.339,0,0,1-2.33-2.33v-14.5a2.33,2.33,0,0,1,2.33-2.33h14.5a2.33,2.33,0,0,1,2.33,2.33v14.5a2.33,2.33,0,0,1-2.33,2.33Zm38.285,0H490.939a2.339,2.339,0,0,1-2.33-2.33v-14.5a2.33,2.33,0,0,1,2.33-2.33h14.5a2.33,2.33,0,0,1,2.33,2.33v14.5a2.33,2.33,0,0,1-2.33,2.33Z" transform="translate(-3.225 -35)" fill="url(#linear-gradient)"/>
      <path id="Path_2" data-name="Path 2" d="M618.77,355.05h16.812v3.238H618.837a1.556,1.556,0,0,0-.707.15,1.431,1.431,0,0,0-.5.383,1.748,1.748,0,0,0-.291.549,1.823,1.823,0,0,0-.091.633,2.041,2.041,0,0,0,.1.624,1.766,1.766,0,0,0,.3.549,1.431,1.431,0,0,0,.5.383,1.482,1.482,0,0,0,.691.15H631.08a5.725,5.725,0,0,1,1.556.2,4.993,4.993,0,0,1,1.282.591,4.61,4.61,0,0,1,.99.832,5.289,5.289,0,0,1,.7,1.057,5.44,5.44,0,0,1,.416,1.207,6.056,6.056,0,0,1,.133,1.29,4.992,4.992,0,0,1-.133,1.257,5.116,5.116,0,0,1-.416,1.2,4.709,4.709,0,0,1-.7,1.065,4.4,4.4,0,0,1-.982.832,5.178,5.178,0,0,1-1.273.558A5.459,5.459,0,0,1,631.1,372H614.3v-3.238h16.712a1.29,1.29,0,0,0,.7-.183,1.781,1.781,0,0,0,.5-.466,2.22,2.22,0,0,0,.3-.616,2.264,2.264,0,0,0,.1-.633,1.731,1.731,0,0,0-.1-.566,1.532,1.532,0,0,0-.832-.891,1.547,1.547,0,0,0-.7-.15H618.737a5.535,5.535,0,0,1-1.839-.291,4.686,4.686,0,0,1-1.423-.774,4.533,4.533,0,0,1-1.007-1.14,5.044,5.044,0,0,1-.608-1.39,5.667,5.667,0,0,1-.2-1.506,5.4,5.4,0,0,1,.208-1.506,5.251,5.251,0,0,1,.607-1.382,4.6,4.6,0,0,1,1.015-1.149,4.877,4.877,0,0,1,1.423-.774,5.659,5.659,0,0,1,1.856-.3Z" transform="translate(-38.646 -54.021)" fill="#181925"/>
      <path id="Path_3" data-name="Path 3" d="M665.594,370.331a5.668,5.668,0,0,1-1.232-1.764,5.385,5.385,0,0,1-.433-2.172V360.66a5.377,5.377,0,0,1,.424-2.147,5.967,5.967,0,0,1,1.24-1.789,5.759,5.759,0,0,1,1.8-1.24,5.226,5.226,0,0,1,2.139-.433h10.487a5.169,5.169,0,0,1,2.139.433,5.759,5.759,0,0,1,1.8,1.24,5.824,5.824,0,0,1,1.24,1.789,5.233,5.233,0,0,1,.433,2.147v5.734a5.377,5.377,0,0,1-1.665,3.937,6.528,6.528,0,0,1-.832.682,5.274,5.274,0,0,1-.949.524,5.66,5.66,0,0,1-1.04.35,5.6,5.6,0,0,1-1.124.117H669.531a5.454,5.454,0,0,1-1.115-.117,5.66,5.66,0,0,1-1.04-.35,5.27,5.27,0,0,1-.949-.524A6.606,6.606,0,0,1,665.594,370.331Zm1.864-3.637a1.664,1.664,0,0,0,.183.774,2.275,2.275,0,0,0,.458.658,2.423,2.423,0,0,0,.657.466,1.814,1.814,0,0,0,.774.175h10.487a1.814,1.814,0,0,0,.774-.175,2.4,2.4,0,0,0,1.124-1.124,1.812,1.812,0,0,0,.175-.774V360.36a2.022,2.022,0,0,0-.158-.832,2.121,2.121,0,0,0-.441-.658,2.023,2.023,0,0,0-.666-.441,2,2,0,0,0-.832-.166H669.506a2.081,2.081,0,0,0-2.1,2.1Z" transform="translate(-47.077 -54.021)" fill="#181925"/>
      <path id="Path_4" data-name="Path 4" d="M713.757,356.991a2.239,2.239,0,0,1,.141-.832,1.731,1.731,0,0,1,1.007-1.007,2.224,2.224,0,0,1,.832-.141H735.5v3.238H717.286v3.437h15.947v3.3H717.286v7.041H713.74Z" transform="translate(-55.43 -54.014)" fill="#181925"/>
      <path id="Path_5" data-name="Path 5" d="M762.55,358.288V355.05h21.706v3.238h-9.08V372h-3.537V358.288Z" transform="translate(-63.616 -54.021)" fill="#181925"/>
      <path id="Path_6" data-name="Path 6" d="M812.13,355.027h3.854l5.077,11.835,4.495-10.487a2.5,2.5,0,0,1,.9-1.065,2.941,2.941,0,0,1,.633-.3,2.548,2.548,0,0,1,.707-.1h0a2.446,2.446,0,0,1,.7.1,2.822,2.822,0,0,1,.641.3,2.767,2.767,0,0,1,.524.466,2.261,2.261,0,0,1,.375.6l4.519,10.487,5.077-11.835h3.854l-6.742,15.705a2.341,2.341,0,0,1-.358.583,2.5,2.5,0,0,1-.516.458,2.781,2.781,0,0,1-.616.291,2.341,2.341,0,0,1-.682.1,2.446,2.446,0,0,1-.7-.1,2.678,2.678,0,0,1-.624-.291,2.079,2.079,0,0,1-.516-.458,2.224,2.224,0,0,1-.366-.583l-4.528-10.62-4.536,10.6a2.312,2.312,0,0,1-.366.6,2.985,2.985,0,0,1-.516.458,2.383,2.383,0,0,1-.624.291,2.188,2.188,0,0,1-.7.108,2.247,2.247,0,0,1-.707-.108,2.43,2.43,0,0,1-.633-.291,2.5,2.5,0,0,1-.524-.458,2.127,2.127,0,0,1-.375-.6Z" transform="translate(-71.931 -53.998)" fill="#181925"/>
      <path id="Path_7" data-name="Path 7" d="M866.87,371.975l10.553-15.863c.549-.832,1.082-1.232,1.606-1.232s1.074.408,1.615,1.232L891.2,371.975h-4.311l-7.857-11.893-7.849,11.893Z" transform="translate(-81.111 -53.993)" fill="#181925"/>
      <path id="Path_8" data-name="Path 8" d="M920.664,355.05h15.114a5.434,5.434,0,0,1,1.565.208,4.727,4.727,0,0,1,1.265.566,4.212,4.212,0,0,1,.99.832,4.906,4.906,0,0,1,.7,1.065,5.526,5.526,0,0,1,.416,1.2,5.407,5.407,0,0,1,.133,1.265,5.547,5.547,0,0,1-.141,1.282,5.441,5.441,0,0,1-.416,1.207,4.659,4.659,0,0,1-.7,1.057,4.336,4.336,0,0,1-.982.832,4.992,4.992,0,0,1-1.265.549,5.754,5.754,0,0,1-1.565.2h-.067l5.451,6.658h-4.386l-5.452-6.658h-9.039v6.658H918.75V356.989a2.238,2.238,0,0,1,.141-.832,1.8,1.8,0,0,1,1.007-1.007,2.239,2.239,0,0,1,.766-.1Zm15.048,7.041a1.415,1.415,0,0,0,.691-.158,1.664,1.664,0,0,0,.5-.433,1.879,1.879,0,0,0,.3-.608,2.5,2.5,0,0,0,.1-.7,2.449,2.449,0,0,0-.092-.7,1.957,1.957,0,0,0-.291-.608,1.448,1.448,0,0,0-1.207-.6H922.287v3.8Z" transform="translate(-89.812 -54.021)" fill="#181925"/>
      <path id="Path_9" data-name="Path 9" d="M968.279,370.058V356.991a2.237,2.237,0,0,1,.133-.832,1.664,1.664,0,0,1,.4-.608,1.713,1.713,0,0,1,.616-.4,2.155,2.155,0,0,1,.832-.142h19.75v3.238H971.816v3.437h15.947v3.3H971.816v3.8h18.152v3.238h-19.75a2,2,0,0,1-.832-.142,1.813,1.813,0,0,1-.616-.391,1.714,1.714,0,0,1-.4-.616A2.19,2.19,0,0,1,968.279,370.058Z" transform="translate(-98.117 -54.014)" fill="#181925"/>
      <rect id="Rectangle_2" data-name="Rectangle 2" width="14.465" height="14.465" rx="2.44" transform="translate(678.268 238.307)" fill="#181925"/>
      <path id="Path_10" data-name="Path 10" d="M674.132,276.108a20.9,20.9,0,0,0-.533-4.7,20.067,20.067,0,0,0-1.59-4.428,18.4,18.4,0,0,0-2.638-3.9,16.646,16.646,0,0,0-3.7-3.121,18.57,18.57,0,0,0-4.727-2.064,20.949,20.949,0,0,0-5.768-.749h-34.89a7.848,7.848,0,0,0-2.93.516,6.366,6.366,0,0,0-2.272,1.465,6.515,6.515,0,0,0-1.465,2.264,7.875,7.875,0,0,0-.516,2.93v48.273a7.875,7.875,0,0,0,.516,2.93,6.4,6.4,0,0,0,3.737,3.737,8.015,8.015,0,0,0,2.93.516h34.89a21.748,21.748,0,0,0,5.826-.741,18.569,18.569,0,0,0,4.769-2.039,15.9,15.9,0,0,0,3.679-3.079,18.567,18.567,0,0,0,2.663-3.87,19.562,19.562,0,0,0,1.556-4.395,21.157,21.157,0,0,0-.574-11.286,18.709,18.709,0,0,0-3.163-5.884,17.646,17.646,0,0,0,3.2-5.826A20.983,20.983,0,0,0,674.132,276.108Zm-14.449,27.249a7.492,7.492,0,0,1-.932,2.256,5.211,5.211,0,0,1-1.581,1.581,3.97,3.97,0,0,1-2.206.608H626.183V293.752h28.781a3.97,3.97,0,0,1,2.206.608,5.21,5.21,0,0,1,1.581,1.581,7.49,7.49,0,0,1,.932,2.255,10.678,10.678,0,0,1,0,5.16Zm.541-24.861a5.826,5.826,0,0,1-1.956,2.347,5.485,5.485,0,0,1-3.329.94H626.183V269.108h28.781a5.427,5.427,0,0,1,3.254.932A6.059,6.059,0,0,1,660.2,272.4a6.95,6.95,0,0,1,.674,3.046,7.208,7.208,0,0,1-.649,3.055Z" transform="translate(-38.552 -37.601)" fill="#181925"/>
      <path id="Path_11" data-name="Path 11" d="M759.051,263.307a21.639,21.639,0,0,0-6.658-4.578,19.426,19.426,0,0,0-7.907-1.59h-26.55a19.426,19.426,0,0,0-7.907,1.59,22.43,22.43,0,0,0-11.219,11.2,19.515,19.515,0,0,0-1.59,7.915v21.207a19.713,19.713,0,0,0,1.665,8,20.674,20.674,0,0,0,4.553,6.542,24.19,24.19,0,0,0,3.063,2.5,21.533,21.533,0,0,0,3.5,1.956,20.4,20.4,0,0,0,3.845,1.265,18.842,18.842,0,0,0,4.161.449h26.467a18.844,18.844,0,0,0,4.161-.449,20.4,20.4,0,0,0,3.845-1.265,21.108,21.108,0,0,0,3.5-1.956,23.7,23.7,0,0,0,3.071-2.5,20.515,20.515,0,0,0,4.544-6.542,19.718,19.718,0,0,0,1.623-8V277.831a19.507,19.507,0,0,0-1.581-7.915,21.855,21.855,0,0,0-4.586-6.608Zm-6.891,36.846A6.582,6.582,0,0,1,751.51,303a8.681,8.681,0,0,1-4.161,4.161,6.583,6.583,0,0,1-2.871.633h-26.55a6.658,6.658,0,0,1-2.855-.649,8.63,8.63,0,0,1-2.43-1.714,8.391,8.391,0,0,1-1.715-2.439,6.584,6.584,0,0,1-.649-2.846V276.757a7.6,7.6,0,0,1,7.649-7.649h26.55a7.6,7.6,0,0,1,7.649,7.649Z" transform="translate(-52.66 -37.601)" fill="#181925"/>
      <path id="Path_12" data-name="Path 12" d="M801.159,258.729a22.43,22.43,0,0,0-11.219,11.2,19.518,19.518,0,0,0-1.59,7.915v21.207a19.718,19.718,0,0,0,1.623,8,20.539,20.539,0,0,0,4.553,6.542,24.187,24.187,0,0,0,3.063,2.5,21.536,21.536,0,0,0,3.5,1.956,20.4,20.4,0,0,0,3.845,1.265,18.842,18.842,0,0,0,4.161.449h31.96V307.793H809.1a6.658,6.658,0,0,1-2.855-.649,8.787,8.787,0,0,1-2.439-1.714,8.524,8.524,0,0,1-1.665-2.439,6.584,6.584,0,0,1-.649-2.846V276.757a7.574,7.574,0,0,1,4.661-7.058,7.491,7.491,0,0,1,2.988-.591H841.1V257.14h-31.96a19.426,19.426,0,0,0-7.982,1.59Z" transform="translate(-67.943 -37.601)" fill="#181925"/>
      <path id="Path_13" data-name="Path 13" d="M866.533,257.656a6.367,6.367,0,0,0-2.272,1.465,6.659,6.659,0,0,0-1.465,2.264,8.047,8.047,0,0,0-.516,2.93v48.273a8.046,8.046,0,0,0,.516,2.93,6.6,6.6,0,0,0,1.465,2.272,6.476,6.476,0,0,0,2.272,1.465,8.049,8.049,0,0,0,2.93.516H911.81V307.793H875.364V293.752h28.3V281.784h-28.3V269.108H911.8V257.14H869.463a7.874,7.874,0,0,0-2.93.516Z" transform="translate(-80.341 -37.601)" fill="#181925"/>
      <path id="Path_14" data-name="Path 14" d="M961.734,285.032l22.955-27.682h-15.68l-22.247,27.266h-.816V257.35H932.87v61.839h13.075V301.611l6.434-7.849,16.937,25.427h15.639Z" transform="translate(-92.18 -37.636)" fill="#181925"/>
    </g>
  </g>
</svg>
