<svg width="205" height="23" viewBox="0 0 205 23" fill="none" xmlns="http://www.w3.org/2000/svg">
<path d="M63.604 21.3096V13.3896H68.664V14.4731H64.7535V16.6951H68.004V17.7786H64.7535V20.2261H68.664V21.3096H63.604Z" fill="white" fill-opacity="0.9"/>
<path d="M55.7944 21.3096V13.3896H56.9439V16.8051H60.9039V13.3896H62.0589V21.3096H60.9039V17.8886H56.9439V21.3096H55.7944Z" fill="white" fill-opacity="0.9"/>
<path d="M51.1303 21.3096V14.4731H48.4958V13.3896H54.9143V14.4731H52.2799V21.3096H51.1303Z" fill="white" fill-opacity="0.9"/>
<path d="M39.187 21.3096V13.3896H40.353L44.2525 19.2746V13.3896H45.4185V21.3096H44.2525L40.353 15.4191V21.3096H39.187Z" fill="white" fill-opacity="0.9"/>
<path d="M34.35 21.4746C33.558 21.4746 32.8833 21.3023 32.326 20.9576C31.7687 20.6093 31.3415 20.1253 31.0445 19.5056C30.7512 18.8859 30.6045 18.1673 30.6045 17.3496C30.6045 16.5319 30.7512 15.8133 31.0445 15.1936C31.3415 14.5739 31.7687 14.0918 32.326 13.7471C32.8833 13.3988 33.558 13.2246 34.35 13.2246C35.1383 13.2246 35.8112 13.3988 36.3685 13.7471C36.9295 14.0918 37.3567 14.5739 37.65 15.1936C37.9433 15.8133 38.09 16.5319 38.09 17.3496C38.09 18.1673 37.9433 18.8859 37.65 19.5056C37.3567 20.1253 36.9295 20.6093 36.3685 20.9576C35.8112 21.3023 35.1383 21.4746 34.35 21.4746ZM34.35 20.3801C34.911 20.3874 35.3767 20.2646 35.747 20.0116C36.121 19.7549 36.4015 19.3993 36.5885 18.9446C36.7755 18.4863 36.869 17.9546 36.869 17.3496C36.869 16.7446 36.7755 16.2166 36.5885 15.7656C36.4015 15.3109 36.121 14.9571 35.747 14.7041C35.3767 14.4511 34.911 14.3228 34.35 14.3191C33.789 14.3118 33.3215 14.4346 32.9475 14.6876C32.5772 14.9406 32.2985 15.2963 32.1115 15.7546C31.9245 16.2129 31.8292 16.7446 31.8255 17.3496C31.8218 17.9546 31.9135 18.4844 32.1005 18.9391C32.2875 19.3901 32.568 19.7421 32.942 19.9951C33.3197 20.2481 33.789 20.3764 34.35 20.3801Z" fill="white" fill-opacity="0.9"/>
<path d="M28.2434 21.3096V13.3896H29.3929V21.3096H28.2434Z" fill="white" fill-opacity="0.9"/>
<path d="M23.9253 21.4745C23.357 21.4745 22.8436 21.3773 22.3853 21.183C21.9306 20.985 21.5548 20.7045 21.2578 20.3415C20.9645 19.9748 20.7738 19.5403 20.6858 19.038L21.8848 18.8565C22.0058 19.3405 22.2588 19.7181 22.6438 19.9895C23.0288 20.2571 23.478 20.391 23.9913 20.391C24.3103 20.391 24.6036 20.3415 24.8713 20.2425C25.139 20.1398 25.3535 19.995 25.5148 19.808C25.6798 19.6173 25.7623 19.39 25.7623 19.126C25.7623 18.983 25.7366 18.8565 25.6853 18.7465C25.6376 18.6365 25.5698 18.5411 25.4818 18.4605C25.3975 18.3761 25.293 18.3046 25.1683 18.246C25.0473 18.1836 24.9135 18.1305 24.7668 18.0865L22.7373 17.487C22.5393 17.4283 22.3376 17.3531 22.1323 17.2615C21.927 17.1661 21.7381 17.0433 21.5658 16.893C21.3971 16.739 21.2596 16.5501 21.1533 16.3265C21.047 16.0991 20.9938 15.8241 20.9938 15.5015C20.9938 15.0138 21.1185 14.6013 21.3678 14.264C21.6208 13.923 21.9618 13.6663 22.3908 13.494C22.8198 13.318 23.3001 13.23 23.8318 13.23C24.3671 13.2373 24.8456 13.3326 25.2673 13.516C25.6926 13.6993 26.0446 13.9633 26.3233 14.308C26.6056 14.649 26.8 15.0633 26.9063 15.551L25.6743 15.76C25.6193 15.463 25.502 15.2081 25.3223 14.9955C25.1426 14.7791 24.9226 14.6141 24.6623 14.5005C24.402 14.3831 24.1196 14.3226 23.8153 14.319C23.522 14.3116 23.2525 14.3556 23.0068 14.451C22.7648 14.5463 22.5705 14.6801 22.4238 14.8525C22.2808 15.0248 22.2093 15.2228 22.2093 15.4465C22.2093 15.6665 22.2735 15.8443 22.4018 15.98C22.5301 16.1156 22.6878 16.2238 22.8748 16.3045C23.0655 16.3815 23.2543 16.4456 23.4413 16.497L24.9043 16.9095C25.0876 16.9608 25.2948 17.0305 25.5258 17.1185C25.7605 17.2028 25.986 17.322 26.2023 17.476C26.4223 17.63 26.6038 17.8353 26.7468 18.092C26.8898 18.345 26.9613 18.664 26.9613 19.049C26.9613 19.4486 26.8806 19.8006 26.7193 20.105C26.558 20.4056 26.3361 20.6586 26.0538 20.864C25.7751 21.0656 25.4525 21.2178 25.0858 21.3205C24.7191 21.4231 24.3323 21.4745 23.9253 21.4745Z" fill="white" fill-opacity="0.9"/>
<path d="M16.6851 21.4745C16.1167 21.4745 15.6034 21.3773 15.1451 21.183C14.6904 20.985 14.3146 20.7045 14.0176 20.3415C13.7242 19.9748 13.5336 19.5403 13.4456 19.038L14.6446 18.8565C14.7656 19.3405 15.0186 19.7181 15.4036 19.9895C15.7886 20.2571 16.2377 20.391 16.7511 20.391C17.0701 20.391 17.3634 20.3415 17.6311 20.2425C17.8987 20.1398 18.1132 19.995 18.2746 19.808C18.4396 19.6173 18.5221 19.39 18.5221 19.126C18.5221 18.983 18.4964 18.8565 18.4451 18.7465C18.3974 18.6365 18.3296 18.5411 18.2416 18.4605C18.1572 18.3761 18.0527 18.3046 17.9281 18.246C17.8071 18.1836 17.6732 18.1305 17.5266 18.0865L15.4971 17.487C15.2991 17.4283 15.0974 17.3531 14.8921 17.2615C14.6867 17.1661 14.4979 17.0433 14.3256 16.893C14.1569 16.739 14.0194 16.5501 13.9131 16.3265C13.8067 16.0991 13.7536 15.8241 13.7536 15.5015C13.7536 15.0138 13.8782 14.6013 14.1276 14.264C14.3806 13.923 14.7216 13.6663 15.1506 13.494C15.5796 13.318 16.0599 13.23 16.5916 13.23C17.1269 13.2373 17.6054 13.3326 18.0271 13.516C18.4524 13.6993 18.8044 13.9633 19.0831 14.308C19.3654 14.649 19.5597 15.0633 19.6661 15.551L18.4341 15.76C18.3791 15.463 18.2617 15.2081 18.0821 14.9955C17.9024 14.7791 17.6824 14.6141 17.4221 14.5005C17.1617 14.3831 16.8794 14.3226 16.5751 14.319C16.2817 14.3116 16.0122 14.3556 15.7666 14.451C15.5246 14.5463 15.3302 14.6801 15.1836 14.8525C15.0406 15.0248 14.9691 15.2228 14.9691 15.4465C14.9691 15.6665 15.0332 15.8443 15.1616 15.98C15.2899 16.1156 15.4476 16.2238 15.6346 16.3045C15.8252 16.3815 16.0141 16.4456 16.2011 16.497L17.6641 16.9095C17.8474 16.9608 18.0546 17.0305 18.2856 17.1185C18.5202 17.2028 18.7457 17.322 18.9621 17.476C19.1821 17.63 19.3636 17.8353 19.5066 18.092C19.6496 18.345 19.7211 18.664 19.7211 19.049C19.7211 19.4486 19.6404 19.8006 19.4791 20.105C19.3177 20.4056 19.0959 20.6586 18.8136 20.864C18.5349 21.0656 18.2122 21.2178 17.8456 21.3205C17.4789 21.4231 17.0921 21.4745 16.6851 21.4745Z" fill="white" fill-opacity="0.9"/>
<path d="M6.23865 21.3096L8.81265 13.3896H10.4681L13.0421 21.3096H11.8486L9.47815 14.0826H9.77515L7.43215 21.3096H6.23865ZM7.57515 19.5221V18.4441H11.7111V19.5221H7.57515Z" fill="white" fill-opacity="0.9"/>
<path d="M0.439941 21.3096V13.3896H3.64094C3.71794 13.3896 3.81328 13.3933 3.92694 13.4006C4.04061 13.4043 4.14878 13.4153 4.25144 13.4336C4.69144 13.5033 5.05811 13.6536 5.35144 13.8846C5.64844 14.1156 5.87028 14.4071 6.01694 14.7591C6.16361 15.1111 6.23694 15.4998 6.23694 15.9251C6.23694 16.3541 6.16361 16.7446 6.01694 17.0966C5.87028 17.4486 5.64844 17.7401 5.35144 17.9711C5.05811 18.2021 4.69144 18.3525 4.25144 18.4221C4.14878 18.4368 4.03877 18.4478 3.92144 18.4551C3.80777 18.4625 3.71428 18.4661 3.64094 18.4661H1.58944V21.3096H0.439941ZM1.58944 17.3771H3.59694C3.67027 17.3771 3.75094 17.3735 3.83894 17.3661C3.93061 17.3588 4.01677 17.346 4.09744 17.3276C4.33211 17.2726 4.52094 17.1718 4.66394 17.0251C4.80694 16.8748 4.90961 16.7025 4.97194 16.5081C5.03428 16.3138 5.06544 16.1195 5.06544 15.9251C5.06544 15.7308 5.03428 15.5383 4.97194 15.3476C4.90961 15.1533 4.80694 14.9828 4.66394 14.8361C4.52094 14.6858 4.33211 14.5831 4.09744 14.5281C4.01677 14.5061 3.93061 14.4915 3.83894 14.4841C3.75094 14.4768 3.67027 14.4731 3.59694 14.4731H1.58944V17.3771Z" fill="white" fill-opacity="0.9"/>
<path d="M71.5103 9.30965V1.38965H72.6598V4.80515H76.6198V1.38965H77.7748V9.30965H76.6198V5.88865H72.6598V9.30965H71.5103Z" fill="white" fill-opacity="0.9"/>
<path d="M66.8462 9.30965V2.47315H64.2117V1.38965H70.6302V2.47315H67.9957V9.30965H66.8462Z" fill="white" fill-opacity="0.9"/>
<path d="M62.0706 9.30965V1.38965H63.2201V9.30965H62.0706Z" fill="white" fill-opacity="0.9"/>
<path d="M53.0462 9.30965L50.7472 1.38965H51.9517L53.6182 7.37915L55.2847 1.39515L56.4947 1.38965L58.1612 7.37915L59.8277 1.38965H61.0377L58.7332 9.30965H57.5892L55.8897 3.38615L54.1902 9.30965H53.0462Z" fill="white" fill-opacity="0.9"/>
<path d="M41.5718 9.30965V1.38965H44.0523C44.1256 1.38965 44.2613 1.39148 44.4593 1.39515C44.6609 1.39882 44.8534 1.41348 45.0368 1.43915C45.6564 1.51615 46.1771 1.73798 46.5988 2.10465C47.0241 2.47132 47.3449 2.93698 47.5613 3.50165C47.7776 4.06265 47.8858 4.67865 47.8858 5.34965C47.8858 6.02432 47.7776 6.64398 47.5613 7.20865C47.3449 7.76965 47.0241 8.23348 46.5988 8.60015C46.1771 8.96315 45.6564 9.18315 45.0368 9.26015C44.8534 9.28581 44.6609 9.30048 44.4593 9.30415C44.2613 9.30782 44.1256 9.30965 44.0523 9.30965H41.5718ZM42.7488 8.21515H44.0523C44.1769 8.21515 44.3254 8.21148 44.4978 8.20415C44.6701 8.19682 44.8223 8.18215 44.9543 8.16015C45.3576 8.08315 45.6839 7.90898 45.9333 7.63765C46.1863 7.36265 46.3714 7.02532 46.4888 6.62565C46.6061 6.22598 46.6648 5.80065 46.6648 5.34965C46.6648 4.88398 46.6043 4.45315 46.4833 4.05715C46.3623 3.65748 46.1753 3.32382 45.9223 3.05615C45.6729 2.78481 45.3503 2.61248 44.9543 2.53915C44.8223 2.51348 44.6683 2.49882 44.4923 2.49515C44.3199 2.48782 44.1733 2.48415 44.0523 2.48415H42.7488V8.21515Z" fill="white" fill-opacity="0.9"/>
<path d="M35.1909 9.30965V1.38965H40.2509V2.47315H36.3404V4.69515H39.5909V5.77865H36.3404V8.22615H40.2509V9.30965H35.1909Z" fill="white" fill-opacity="0.9"/>
<path d="M30.5268 9.30965V2.47315H27.8923V1.38965H34.3108V2.47315H31.6763V9.30965H30.5268Z" fill="white" fill-opacity="0.9"/>
<path d="M22.8696 9.30965V1.38965H27.5611V2.53915H24.0191V4.77215H26.9011V5.92715H24.0191V9.30965H22.8696Z" fill="white" fill-opacity="0.9"/>
<path d="M15.0795 9.30965L17.6535 1.38965H19.309L21.883 9.30965H20.6895L18.319 2.08265H18.616L16.273 9.30965H15.0795ZM16.416 7.52215V6.44415H20.552V7.52215H16.416Z" fill="white" fill-opacity="0.9"/>
<path d="M8.4751 9.30965V1.38965H11.6761C11.7531 1.38965 11.8484 1.39332 11.9621 1.40065C12.0758 1.40432 12.1839 1.41532 12.2866 1.43365C12.7266 1.50332 13.0933 1.65365 13.3866 1.88465C13.6836 2.11565 13.9054 2.40715 14.0521 2.75915C14.1988 3.11115 14.2721 3.49982 14.2721 3.92515C14.2721 4.55582 14.1108 5.10031 13.7881 5.55865C13.4654 6.01331 12.9814 6.29748 12.3361 6.41115L11.8686 6.46615H9.6246V9.30965H8.4751ZM13.1061 9.30965L11.5441 6.08665L12.7046 5.78965L14.4206 9.30965H13.1061ZM9.6246 5.37715H11.6321C11.7054 5.37715 11.7861 5.37348 11.8741 5.36615C11.9658 5.35882 12.0519 5.34598 12.1326 5.32765C12.3673 5.27265 12.5561 5.17182 12.6991 5.02515C12.8421 4.87482 12.9448 4.70248 13.0071 4.50815C13.0694 4.31381 13.1006 4.11948 13.1006 3.92515C13.1006 3.73082 13.0694 3.53831 13.0071 3.34765C12.9448 3.15331 12.8421 2.98282 12.6991 2.83615C12.5561 2.68582 12.3673 2.58315 12.1326 2.52815C12.0519 2.50615 11.9658 2.49148 11.8741 2.48415C11.7861 2.47682 11.7054 2.47315 11.6321 2.47315H9.6246V5.37715Z" fill="white" fill-opacity="0.9"/>
<path d="M3.7455 9.47461C2.9535 9.47461 2.27883 9.30228 1.7215 8.95761C1.16417 8.60928 0.737 8.12528 0.44 7.50561C0.146667 6.88594 0 6.16728 0 5.34961C0 4.53194 0.146667 3.81328 0.44 3.19361C0.737 2.57394 1.16417 2.09178 1.7215 1.74711C2.27883 1.39878 2.9535 1.22461 3.7455 1.22461C4.6585 1.22461 5.41383 1.45561 6.0115 1.91761C6.61283 2.37961 7.03083 3.00111 7.2655 3.78211L6.0995 4.09561C5.9455 3.54194 5.6705 3.10744 5.2745 2.79211C4.88217 2.47678 4.3725 2.31911 3.7455 2.31911C3.1845 2.31911 2.717 2.44561 2.343 2.69861C1.969 2.95161 1.68667 3.30544 1.496 3.76011C1.309 4.21478 1.2155 4.74461 1.2155 5.34961C1.21183 5.95461 1.3035 6.48444 1.4905 6.93911C1.68117 7.39378 1.9635 7.74761 2.3375 8.00061C2.71517 8.25361 3.1845 8.38011 3.7455 8.38011C4.3725 8.38011 4.88217 8.22244 5.2745 7.90711C5.6705 7.58811 5.9455 7.15361 6.0995 6.60361L7.2655 6.91711C7.03083 7.69811 6.61283 8.31961 6.0115 8.78161C5.41383 9.24361 4.6585 9.47461 3.7455 9.47461Z" fill="white" fill-opacity="0.9"/>
<path d="M87.0854 18.7536H91.0385V19.4988H87.1011C87.0437 19.4974 86.9867 19.5092 86.9349 19.5333C86.8895 19.5538 86.8493 19.5839 86.8173 19.6215C86.787 19.6592 86.7638 19.702 86.7489 19.7478C86.733 19.7947 86.7258 19.8441 86.7275 19.8935C86.7276 19.9422 86.7356 19.9907 86.751 20.0371C86.7666 20.083 86.7905 20.1257 86.8215 20.1634C86.8535 20.201 86.8937 20.2311 86.9391 20.2516C86.9896 20.2757 87.0454 20.2876 87.1016 20.2861H89.9799C90.1034 20.2849 90.2265 20.3004 90.3458 20.3321C90.4523 20.3632 90.5538 20.409 90.6472 20.4681C90.7336 20.5209 90.812 20.5854 90.88 20.6596C90.9446 20.7339 90.9999 20.8156 91.0446 20.9028C91.0882 20.9913 91.121 21.0846 91.1424 21.1806C91.1636 21.2782 91.1741 21.3777 91.1737 21.4775C91.1758 21.5748 91.1653 21.672 91.1424 21.7668C91.1216 21.8624 91.0888 21.9552 91.0446 22.0429C91.0013 22.1315 90.9459 22.214 90.88 22.288C90.813 22.3626 90.7352 22.4271 90.6491 22.4795C90.5557 22.5353 90.455 22.5785 90.3498 22.6079C90.2309 22.6405 90.108 22.6561 89.9846 22.6544H86.0343V21.9092H89.9639C90.0217 21.9108 90.0788 21.8962 90.1285 21.8671C90.1744 21.8391 90.2143 21.8027 90.2461 21.7599C90.2769 21.7165 90.3007 21.6686 90.3166 21.6181C90.3315 21.5709 90.3394 21.5218 90.3401 21.4724C90.3397 21.428 90.3318 21.384 90.3166 21.3422C90.3001 21.2967 90.2742 21.255 90.2405 21.2198C90.2069 21.1845 90.1662 21.1564 90.121 21.1371C90.0696 21.1132 90.0132 21.1013 89.9564 21.1026H87.0776C86.9306 21.1043 86.7844 21.0817 86.6452 21.0356C86.5239 20.9957 86.4107 20.9354 86.3106 20.8575C86.2171 20.7837 86.1371 20.695 86.0738 20.5951C86.0099 20.4962 85.9617 20.3883 85.9308 20.2753C85.8993 20.1623 85.8835 20.0458 85.8838 19.9287C85.8833 19.8115 85.8998 19.6948 85.9327 19.5821C85.9644 19.4699 86.0125 19.3628 86.0754 19.2641C86.1393 19.1635 86.22 19.0741 86.3141 18.9996C86.4147 18.9224 86.5278 18.8622 86.6487 18.8215C86.7892 18.7748 86.9367 18.7515 87.0851 18.7525L87.0854 18.7536Z" fill="#E44A54"/>
<path d="M96.1131 22.2714C95.991 22.1554 95.8926 22.0176 95.8234 21.8655C95.7545 21.7076 95.7198 21.5373 95.7216 21.3656V20.0458C95.7199 19.8762 95.7538 19.708 95.8213 19.5517C95.8919 19.3981 95.9907 19.2586 96.1129 19.14C96.2341 19.0193 96.3777 18.9224 96.5361 18.8546C96.6948 18.7871 96.8661 18.7532 97.0391 18.755H99.505C99.678 18.7528 99.8494 18.7868 100.008 18.8546C100.166 18.9224 100.31 19.0193 100.431 19.14C100.554 19.2581 100.653 19.3978 100.723 19.5517C100.792 19.7075 100.827 19.8759 100.825 20.0458V21.3654C100.826 21.5346 100.792 21.7023 100.725 21.8581C100.657 22.014 100.558 22.1546 100.433 22.2714C100.372 22.3289 100.307 22.3814 100.237 22.4284C100.167 22.476 100.093 22.5164 100.014 22.549C99.9356 22.5835 99.8537 22.6105 99.7697 22.6295C99.6828 22.6472 99.5942 22.6562 99.5054 22.6564H97.0389C96.9508 22.6563 96.8629 22.6473 96.7767 22.6295C96.6927 22.6105 96.6108 22.5835 96.5321 22.549C96.4537 22.5164 96.3789 22.476 96.309 22.4284C96.2394 22.3814 96.1739 22.3289 96.1131 22.2714ZM96.5514 21.4344C96.5508 21.4963 96.5656 21.5575 96.5944 21.6125C96.6209 21.6689 96.6574 21.7201 96.7021 21.764C96.7472 21.8079 96.7994 21.8442 96.8566 21.8712C96.9135 21.8976 96.9757 21.9114 97.0386 21.9115H99.5045C99.5675 21.9114 99.6296 21.8976 99.6865 21.8712C99.8021 21.8169 99.8953 21.7257 99.9508 21.6125C99.9778 21.5569 99.9918 21.496 99.9919 21.4344V19.9768C99.9935 19.9111 99.9808 19.8458 99.9548 19.7853C99.9302 19.7289 99.8951 19.6775 99.8511 19.6339C99.8063 19.5902 99.7531 19.5557 99.6945 19.5324C99.6328 19.5061 99.5661 19.4931 99.4988 19.4942H97.033C96.968 19.4936 96.9035 19.5057 96.8433 19.5298C96.7831 19.5539 96.7285 19.5894 96.6825 19.6344C96.6365 19.6794 96.6002 19.7329 96.5756 19.7918C96.551 19.8507 96.5386 19.9138 96.5392 19.9775L96.5514 21.4344Z" fill="#E44A54"/>
<path d="M105.474 19.2024C105.472 19.1371 105.484 19.0721 105.507 19.0109C105.527 18.9581 105.559 18.9101 105.6 18.8701C105.641 18.8302 105.69 18.7992 105.744 18.7792C105.806 18.7562 105.873 18.7452 105.939 18.7467H110.586V19.4919H106.304V20.2829H110.053V21.0423H106.304V22.6627H105.47L105.474 19.2024Z" fill="#E44A54"/>
<path d="M115.022 19.4991V18.7539H120.126V19.4991H117.991V22.6547H117.159V19.4991H115.022Z" fill="#E44A54"/>
<path d="M124.725 18.754H125.631L126.825 21.4776L127.882 19.0642C127.927 18.9645 128.001 18.8795 128.093 18.8191C128.14 18.7904 128.19 18.7672 128.242 18.7501C128.296 18.7348 128.352 18.727 128.409 18.7271C128.464 18.7269 128.52 18.7346 128.573 18.7501C128.626 18.7668 128.677 18.79 128.724 18.8191C128.769 18.8496 128.811 18.8856 128.847 18.9263C128.884 18.9676 128.913 19.0142 128.935 19.0644L129.998 21.4778L131.192 18.7542H132.098L130.513 22.3685C130.491 22.417 130.463 22.4622 130.428 22.5026C130.393 22.5431 130.352 22.5785 130.307 22.608C130.262 22.6361 130.213 22.6586 130.162 22.675C130.11 22.6904 130.056 22.6981 130.002 22.698C129.946 22.6982 129.891 22.6904 129.837 22.675C129.786 22.6589 129.736 22.6364 129.69 22.608C129.644 22.5797 129.603 22.5441 129.569 22.5026C129.534 22.4625 129.504 22.4173 129.483 22.3685L128.418 19.9244L127.352 22.3639C127.33 22.4139 127.301 22.4605 127.266 22.5019C127.23 22.5415 127.189 22.5769 127.144 22.6073C127.099 22.6365 127.05 22.6591 126.998 22.6743C126.945 22.6913 126.889 22.6997 126.833 22.6992C126.777 22.6996 126.721 22.6912 126.667 22.6743C126.614 22.6591 126.564 22.6365 126.518 22.6073C126.472 22.578 126.431 22.5425 126.395 22.5019C126.358 22.461 126.328 22.4144 126.307 22.3639L124.725 18.754Z" fill="#E44A54"/>
<path d="M135.438 22.6563L137.919 19.0057C138.048 18.8142 138.174 18.7222 138.297 18.7222C138.42 18.7222 138.549 18.8161 138.677 19.0057L141.159 22.6563H140.145L138.297 19.9193L136.452 22.6563H135.438Z" fill="#E44A54"/>
<path d="M146.041 18.7544H149.595C149.719 18.7527 149.843 18.7689 149.963 18.8023C150.068 18.8311 150.168 18.875 150.26 18.9325C150.347 18.9842 150.426 19.0488 150.493 19.124C150.558 19.1983 150.614 19.2807 150.657 19.3691C150.701 19.4572 150.734 19.5498 150.755 19.6452C150.777 19.7407 150.788 19.8385 150.787 19.9364C150.787 20.0356 150.776 20.1346 150.753 20.2314C150.732 20.3274 150.699 20.4207 150.656 20.5092C150.612 20.5972 150.557 20.6791 150.491 20.7524C150.424 20.8271 150.346 20.8917 150.26 20.9439C150.167 20.9993 150.067 21.0418 149.963 21.0702C149.843 21.102 149.719 21.1175 149.595 21.1163H149.579L150.861 22.6485H149.829L148.547 21.1163H146.422V22.6485H145.591V19.2006C145.589 19.1353 145.6 19.0703 145.624 19.0092C145.645 18.9568 145.677 18.9092 145.718 18.8694C145.759 18.8295 145.807 18.7982 145.861 18.7774C145.919 18.7596 145.98 18.7518 146.041 18.7544ZM149.579 20.3748C149.636 20.3763 149.691 20.3638 149.742 20.3384C149.787 20.3132 149.827 20.2793 149.859 20.2388C149.891 20.1967 149.915 20.1493 149.93 20.0988C149.945 20.0465 149.953 19.9923 149.953 19.9377C149.954 19.8833 149.947 19.829 149.932 19.7767C149.917 19.7265 149.894 19.6791 149.863 19.6367C149.831 19.5929 149.788 19.5575 149.739 19.5334C149.689 19.5093 149.635 19.4974 149.579 19.4986H146.422V20.3732L149.579 20.3748Z" fill="#E44A54"/>
<path d="M155.284 22.2101V19.2029C155.282 19.1377 155.293 19.0727 155.315 19.0114C155.336 18.9586 155.368 18.9108 155.409 18.8715C155.45 18.8309 155.5 18.7995 155.554 18.7795C155.617 18.756 155.683 18.7449 155.75 18.7468H160.394V19.492H156.116V20.2829H159.865V21.0424H156.116V21.9169H160.384V22.662H155.74C155.673 22.6649 155.606 22.6538 155.544 22.6294C155.49 22.6093 155.441 22.5787 155.399 22.5394C155.358 22.4993 155.326 22.451 155.305 22.3976C155.286 22.337 155.279 22.2733 155.284 22.2101Z" fill="#E44A54"/>
<path d="M112.99 4.32031H110.736C110.42 4.32031 110.163 4.57172 110.163 4.88184V7.08767C110.163 7.39779 110.42 7.64919 110.736 7.64919H112.99C113.307 7.64919 113.564 7.39779 113.564 7.08767V4.88184C113.564 4.57172 113.307 4.32031 112.99 4.32031Z" fill="#E44A54"/>
<path d="M100.125 4.36502C100.125 4.001 100.083 3.63813 99.9998 3.28339C99.9165 2.93054 99.791 2.58852 99.6259 2.26436C99.4593 1.94042 99.2508 1.63878 99.0057 1.36683C98.753 1.08721 98.4599 0.845243 98.1357 0.648595C97.7895 0.440429 97.4154 0.280549 97.0242 0.173593C96.5825 0.0546917 96.126 -0.00332244 95.6679 0.0012245H87.464C87.2287 -0.00254699 86.9949 0.0377581 86.775 0.119971C86.5744 0.193624 86.3922 0.308604 86.2408 0.457123C86.0901 0.605384 85.9728 0.782854 85.8963 0.97814C85.8125 1.19332 85.7713 1.42217 85.775 1.65244V12.7617C85.7713 12.9919 85.8125 13.2208 85.8963 13.436C85.9718 13.6323 86.0892 13.8106 86.2407 13.9589C86.3923 14.1072 86.5745 14.2221 86.775 14.296C86.9951 14.3773 87.2288 14.4176 87.464 14.4147H95.6679C96.1303 14.4188 96.5912 14.3614 97.0378 14.2442C97.4322 14.1399 97.8097 13.9819 98.1592 13.775C98.4825 13.5829 98.7742 13.344 99.0242 13.0664C99.2706 12.7966 99.481 12.4974 99.6504 12.1758C99.8131 11.8541 99.936 11.5145 100.016 11.1643C100.213 10.3026 100.166 9.4048 99.8813 8.56703C99.7184 8.07565 99.4665 7.61697 99.1376 7.21292C99.4729 6.81669 99.7282 6.3617 99.89 5.87217C100.049 5.38514 100.129 4.87642 100.125 4.36502ZM96.7277 10.6359C96.6841 10.8195 96.6101 10.9949 96.5085 11.1551C96.4129 11.3013 96.2861 11.4254 96.1368 11.519C95.9816 11.6144 95.8012 11.6631 95.618 11.6589H88.8506V8.4255H95.618C95.8012 8.4213 95.9816 8.46996 96.1368 8.56541C96.2861 8.65893 96.413 8.78308 96.5085 8.92926C96.61 9.08936 96.6841 9.26467 96.7277 9.44821C96.8268 9.83809 96.8268 10.2458 96.7277 10.6357V10.6359ZM96.8549 4.91458C96.7534 5.13146 96.5946 5.31791 96.3949 5.4547C96.1647 5.60755 95.8901 5.68344 95.6122 5.67102H88.8506V2.75408H95.618C95.8899 2.74392 96.158 2.81907 96.3832 2.96857C96.5838 3.10727 96.7443 3.29436 96.8492 3.51168C96.9556 3.73057 97.0098 3.97028 97.0077 4.21267C97.01 4.45512 96.9579 4.69511 96.8551 4.91573L96.8549 4.91458Z" fill="#E44A54"/>
<path d="M116.776 1.41972C116.326 0.975447 115.795 0.618033 115.21 0.366166C114.623 0.118237 113.99 -0.00641917 113.351 0.000254478H107.108C106.469 -0.00641917 105.835 0.118237 105.249 0.366166C104.078 0.882425 103.14 1.79887 102.611 2.94366C102.358 3.51868 102.23 4.13913 102.237 4.76517V9.64561C102.234 10.2793 102.368 10.9065 102.628 11.4867C102.882 12.0517 103.246 12.5631 103.699 12.9922C103.923 13.2029 104.163 13.3953 104.419 13.5675C104.679 13.7423 104.954 13.893 105.242 14.0177C105.533 14.1438 105.836 14.2413 106.146 14.3088C106.467 14.3787 106.796 14.4134 107.125 14.4121H113.348C113.677 14.4134 114.005 14.3787 114.326 14.3088C114.637 14.2413 114.94 14.1438 115.23 14.0177C115.519 13.8935 115.794 13.7428 116.053 13.5675C116.31 13.3958 116.552 13.2034 116.776 12.9922C117.229 12.5635 117.592 12.052 117.844 11.4867C118.101 10.9058 118.231 10.2786 118.226 9.64561V4.76218C118.233 4.13628 118.106 3.51583 117.854 2.94067C117.594 2.37283 117.228 1.8572 116.776 1.41995V1.41972ZM115.155 9.89922C115.155 10.1261 115.103 10.35 115.002 10.5544C114.8 10.9754 114.454 11.314 114.024 11.512C113.813 11.6097 113.582 11.6595 113.349 11.6577H107.106C106.874 11.6573 106.644 11.6062 106.435 11.5083C106.222 11.4102 106.029 11.2767 105.863 11.1139C105.696 10.9518 105.559 10.7617 105.46 10.5526C105.36 10.3482 105.308 10.1244 105.307 9.89761V4.51501C105.306 4.28343 105.351 4.05386 105.441 3.83961C105.531 3.62537 105.664 3.43072 105.831 3.26696C105.998 3.1032 106.197 2.9736 106.416 2.88567C106.635 2.79774 106.869 2.75322 107.106 2.75472H113.349C113.586 2.75322 113.82 2.79774 114.039 2.88567C114.258 2.9736 114.457 3.1032 114.624 3.26696C114.791 3.43072 114.924 3.62537 115.014 3.83961C115.103 4.05386 115.149 4.28343 115.147 4.51501L115.155 9.89922Z" fill="#E44A54"/>
<path d="M123.083 0.366145C121.912 0.882404 120.974 1.79885 120.445 2.94364C120.192 3.51867 120.065 4.13911 120.071 4.76515V9.64559C120.066 10.2786 120.196 10.9057 120.453 11.4867C120.706 12.0521 121.069 12.5636 121.523 12.9922C121.747 13.2029 121.988 13.3953 122.243 13.5675C122.503 13.7423 122.778 13.893 123.066 14.0177C123.357 14.1438 123.66 14.2413 123.971 14.3088C124.292 14.3787 124.62 14.4133 124.949 14.4121H132.464V11.6574H124.95C124.718 11.657 124.488 11.606 124.279 11.5081C124.066 11.4095 123.872 11.2761 123.705 11.1136C123.542 10.9502 123.41 10.7603 123.314 10.5523C123.214 10.3479 123.161 10.1241 123.161 9.89735V4.51499C123.158 4.16826 123.261 3.82851 123.456 3.53917C123.651 3.24983 123.93 3.02405 124.257 2.89071C124.479 2.79876 124.719 2.75247 124.96 2.7547H132.474V0.00046493H124.96C124.315 -0.00863961 123.675 0.116067 123.083 0.366376L123.083 0.366145Z" fill="#E44A54"/>
<path d="M135.539 0.118971C135.339 0.192631 135.157 0.307603 135.005 0.456116C134.855 0.604979 134.738 0.78229 134.661 0.97714C134.578 1.19257 134.537 1.42124 134.539 1.65143V12.7607C134.537 12.9909 134.578 13.2195 134.661 13.435C134.737 13.6306 134.855 13.8087 135.005 13.9578C135.157 14.1057 135.339 14.2206 135.539 14.295C135.76 14.3761 135.993 14.4164 136.228 14.4137H146.186V11.6572H137.616V8.42587H144.27V5.67163H137.616V2.75446H146.183V0.00022446H136.228C135.993 -0.00340003 135.759 0.0369002 135.539 0.118971Z" fill="#E44A54"/>
<path d="M155.141 6.41109L160.539 0.0405273H156.852L151.621 6.31535H151.429V0.0405273H148.354V14.2718H151.428V10.2265L152.941 8.42015L156.924 14.2718H160.601L155.141 6.41109Z" fill="#E44A54"/>
<path d="M190.907 21.3067V13.3867H195.967V14.4702H192.056V16.6922H195.307V17.7757H192.056V20.2232H195.967V21.3067H190.907Z" fill="white" fill-opacity="0.9"/>
<path d="M183.752 21.3067V13.3867H186.953C187.03 13.3867 187.126 13.3904 187.239 13.3977C187.353 13.4014 187.461 13.4124 187.564 13.4307C188.004 13.5004 188.37 13.6507 188.664 13.8817C188.961 14.1127 189.183 14.4042 189.329 14.7562C189.476 15.1082 189.549 15.4969 189.549 15.9222C189.549 16.5529 189.388 17.0974 189.065 17.5557C188.743 18.0104 188.259 18.2946 187.613 18.4082L187.146 18.4632H184.902V21.3067H183.752ZM188.383 21.3067L186.821 18.0837L187.982 17.7867L189.698 21.3067H188.383ZM184.902 17.3742H186.909C186.983 17.3742 187.063 17.3706 187.151 17.3632C187.243 17.3559 187.329 17.3431 187.41 17.3247C187.644 17.2697 187.833 17.1689 187.976 17.0222C188.119 16.8719 188.222 16.6996 188.284 16.5052C188.347 16.3109 188.378 16.1166 188.378 15.9222C188.378 15.7279 188.347 15.5354 188.284 15.3447C188.222 15.1504 188.119 14.9799 187.976 14.8332C187.833 14.6829 187.644 14.5802 187.41 14.5252C187.329 14.5032 187.243 14.4886 187.151 14.4812C187.063 14.4739 186.983 14.4702 186.909 14.4702H184.902V17.3742Z" fill="white" fill-opacity="0.9"/>
<path d="M179.057 21.4717C178.437 21.4717 177.889 21.3452 177.412 21.0922C176.939 20.8356 176.569 20.4781 176.301 20.0197C176.034 19.5577 175.9 19.0151 175.9 18.3917V13.3922L177.066 13.3867V18.3312C177.066 18.6686 177.123 18.9656 177.236 19.2222C177.35 19.4789 177.502 19.6934 177.693 19.8657C177.883 20.0381 178.096 20.1682 178.331 20.2562C178.569 20.3442 178.811 20.3882 179.057 20.3882C179.306 20.3882 179.548 20.3442 179.783 20.2562C180.021 20.1646 180.236 20.0326 180.426 19.8602C180.617 19.6879 180.767 19.4734 180.877 19.2167C180.991 18.9601 181.048 18.6649 181.048 18.3312V13.3867H182.214V18.3917C182.214 19.0114 182.08 19.5522 181.812 20.0142C181.545 20.4762 181.172 20.8356 180.696 21.0922C180.223 21.3452 179.676 21.4717 179.057 21.4717Z" fill="white" fill-opacity="0.9"/>
<path d="M171.236 21.3067V14.4702H168.601V13.3867H175.02V14.4702H172.385V21.3067H171.236Z" fill="white" fill-opacity="0.9"/>
<path d="M201.657 6.29802V5.37402H204.957V6.29802H201.657Z" fill="white" fill-opacity="0.9"/>
<path d="M194.417 9.30672L196.991 1.38672H198.647L201.221 9.30672H200.027L197.657 2.07972H197.954L195.611 9.30672H194.417ZM195.754 7.51922V6.44122H199.89V7.51922H195.754Z" fill="white" fill-opacity="0.9"/>
<path d="M187.201 9.30672V1.38672H188.367L192.266 7.27172V1.38672H193.432V9.30672H192.266L188.367 3.41622V9.30672H187.201Z" fill="white" fill-opacity="0.9"/>
<path d="M182.491 9.47155C181.959 9.47155 181.47 9.37988 181.022 9.19655C180.575 9.00955 180.186 8.73822 179.856 8.38255C179.526 8.02689 179.27 7.59422 179.086 7.08455C178.903 6.57488 178.811 5.99555 178.811 5.34655C178.811 4.49222 178.967 3.75888 179.279 3.14655C179.59 2.53055 180.023 2.05755 180.577 1.72755C181.13 1.39388 181.768 1.22705 182.491 1.22705C183.422 1.22705 184.165 1.44338 184.718 1.87605C185.276 2.30872 185.655 2.90638 185.857 3.66905L184.691 3.87805C184.529 3.40505 184.269 3.02738 183.91 2.74505C183.55 2.46272 183.099 2.31972 182.557 2.31605C181.996 2.31238 181.528 2.43705 181.154 2.69005C180.784 2.94305 180.505 3.29872 180.318 3.75705C180.131 4.21172 180.036 4.74155 180.032 5.34655C180.029 5.95155 180.12 6.48138 180.307 6.93605C180.494 7.38705 180.775 7.73905 181.149 7.99205C181.526 8.24505 181.996 8.37339 182.557 8.37705C183.008 8.38439 183.395 8.30188 183.717 8.12955C184.044 7.95355 184.302 7.69689 184.493 7.35955C184.683 7.02222 184.806 6.60788 184.861 6.11655H183.321V5.19255H186.082C186.09 5.25855 186.095 5.34655 186.099 5.45655C186.102 5.56288 186.104 5.63072 186.104 5.66005C186.104 6.39338 185.963 7.04788 185.681 7.62355C185.398 8.19922 184.988 8.65205 184.449 8.98205C183.91 9.30838 183.257 9.47155 182.491 9.47155Z" fill="white" fill-opacity="0.9"/>
<path d="M176.45 9.30672V1.38672H177.6V9.30672H176.45Z" fill="white" fill-opacity="0.9"/>
<path d="M172.132 9.47155C171.564 9.47155 171.05 9.37438 170.592 9.18005C170.137 8.98205 169.762 8.70155 169.465 8.33855C169.171 7.97188 168.981 7.53738 168.893 7.03505L170.092 6.85355C170.213 7.33755 170.466 7.71522 170.851 7.98655C171.236 8.25422 171.685 8.38805 172.198 8.38805C172.517 8.38805 172.81 8.33855 173.078 8.23955C173.346 8.13688 173.56 7.99205 173.722 7.80505C173.887 7.61438 173.969 7.38705 173.969 7.12305C173.969 6.98005 173.943 6.85355 173.892 6.74355C173.844 6.63355 173.777 6.53822 173.689 6.45755C173.604 6.37322 173.5 6.30172 173.375 6.24305C173.254 6.18072 173.12 6.12755 172.974 6.08355L170.944 5.48405C170.746 5.42538 170.544 5.35022 170.339 5.25855C170.134 5.16322 169.945 5.04038 169.773 4.89005C169.604 4.73605 169.466 4.54722 169.36 4.32355C169.254 4.09622 169.201 3.82122 169.201 3.49855C169.201 3.01088 169.325 2.59838 169.575 2.26105C169.828 1.92005 170.169 1.66338 170.598 1.49105C171.027 1.31505 171.507 1.22705 172.039 1.22705C172.574 1.23438 173.052 1.32972 173.474 1.51305C173.899 1.69638 174.251 1.96038 174.53 2.30505C174.812 2.64605 175.007 3.06038 175.113 3.54805L173.881 3.75705C173.826 3.46005 173.709 3.20522 173.529 2.99255C173.349 2.77622 173.129 2.61122 172.869 2.49755C172.609 2.38022 172.326 2.31972 172.022 2.31605C171.729 2.30872 171.459 2.35272 171.214 2.44805C170.972 2.54338 170.777 2.67722 170.631 2.84955C170.488 3.02188 170.416 3.21988 170.416 3.44355C170.416 3.66355 170.48 3.84138 170.609 3.97705C170.737 4.11272 170.895 4.22088 171.082 4.30155C171.272 4.37855 171.461 4.44272 171.648 4.49405L173.111 4.90655C173.294 4.95788 173.502 5.02755 173.733 5.11555C173.967 5.19988 174.193 5.31905 174.409 5.47305C174.629 5.62705 174.811 5.83238 174.954 6.08905C175.097 6.34205 175.168 6.66105 175.168 7.04605C175.168 7.44572 175.087 7.79772 174.926 8.10205C174.765 8.40272 174.543 8.65572 174.261 8.86105C173.982 9.06272 173.659 9.21488 173.293 9.31755C172.926 9.42022 172.539 9.47155 172.132 9.47155Z" fill="white" fill-opacity="0.9"/>
</svg>
