<svg width="496" height="493" viewBox="0 0 496 493" fill="none" xmlns="http://www.w3.org/2000/svg">
<path fill-rule="evenodd" clip-rule="evenodd" d="M395.815 444.309C459.229 397.192 499.091 320.665 495.812 235.753C494.747 207.96 489.211 181.443 479.884 156.842C475.114 207.406 470.813 260.311 455.438 307.385C440.831 355.694 421.794 401.363 395.815 444.309Z" fill="#FFCE02"/>
<path fill-rule="evenodd" clip-rule="evenodd" d="M86.5818 433.583C127.765 468.91 180.531 490.787 238.025 493C307.189 427.326 375.841 354.459 412.126 265.462C428.948 225.283 449.05 169.781 458.632 114.152C448.198 97.3402 435.805 81.9751 421.794 68.1849C418.514 150.373 377.63 243.584 331.549 289.382C266.773 352.629 179.765 402.385 86.6244 433.625" fill="#FFCE02"/>
<mask id="mask0_8_61" style="mask-type:luminance" maskUnits="userSpaceOnUse" x="86" y="68" width="373" height="425">
<path d="M86.5818 433.583C127.765 468.91 180.531 490.787 238.025 493C307.189 427.326 375.841 354.459 412.126 265.462C428.948 225.283 449.05 169.781 458.632 114.152C448.198 97.3402 435.805 81.9751 421.794 68.1849C418.514 150.373 377.63 243.584 331.549 289.382C266.773 352.629 179.765 402.385 86.6244 433.625" fill="white"/>
</mask>
<g mask="url(#mask0_8_61)">
<path fill-rule="evenodd" clip-rule="evenodd" d="M116.095 382.721C125.422 382.721 132.96 388.297 132.96 395.192C132.96 402.087 125.422 407.662 116.095 407.662C106.769 407.662 99.2305 402.087 99.2305 395.192C99.2305 388.297 106.769 382.721 116.095 382.721Z" fill="#050007"/>
</g>
<path fill-rule="evenodd" clip-rule="evenodd" d="M0.0425892 258.268C1.74612 290.999 9.7527 322.027 22.8699 350.076C140.2 364.079 262.343 311.642 330.272 207.96C361.02 163.142 382.4 93.4244 375.372 32.4751C348.457 16.2163 318.134 5.02236 285.852 0C327.674 98.915 292.24 248.82 162.73 238.945C111.411 235.2 52.0002 169.271 86.0282 116.791C109.452 85.5929 189.645 50.3513 188.495 118.579C162.857 93.0414 130.788 147.308 143.096 171.441C163.241 202.895 221.246 181.699 237.472 160.247C255.614 138.711 254.124 99.0001 249.311 72.654C240.325 30.1767 207.021 14.684 169.842 9.57653C104.384 31.2408 51.3188 79.2086 22.7847 140.626C42.4179 194.425 65.16 247.33 116.819 278.528C79.1715 283.976 38.0313 272.272 0 258.226" fill="#FFCE02"/>
<mask id="mask1_8_61" style="mask-type:luminance" maskUnits="userSpaceOnUse" x="0" y="0" width="377" height="353">
<path d="M0.0425892 258.268C1.74612 290.999 9.7527 322.027 22.8699 350.076C140.2 364.079 262.343 311.642 330.272 207.96C361.02 163.142 382.4 93.4244 375.372 32.4751C348.457 16.2163 318.134 5.02236 285.852 0C327.674 98.915 292.24 248.82 162.73 238.945C111.411 235.2 52.0002 169.271 86.0282 116.791C109.452 85.5929 189.645 50.3513 188.495 118.579C162.857 93.0414 130.788 147.308 143.096 171.441C163.241 202.895 221.246 181.699 237.472 160.247C255.614 138.711 254.124 99.0001 249.311 72.654C240.325 30.1767 207.021 14.684 169.842 9.57653C104.384 31.2408 51.3188 79.2086 22.7847 140.626C42.4179 194.425 65.16 247.33 116.819 278.528C79.1715 283.976 38.0313 272.272 0 258.226" fill="white"/>
</mask>
<g mask="url(#mask1_8_61)">
<path fill-rule="evenodd" clip-rule="evenodd" d="M-4.59953 216.728C7.45293 216.728 17.2056 223.41 17.2056 231.624C17.2056 239.839 7.45293 246.521 -4.59953 246.521C-16.652 246.521 -26.4047 239.839 -26.4047 231.624C-26.4047 223.41 -16.652 216.728 -4.59953 216.728Z" fill="#050007"/>
</g>
</svg>
