<svg width="182" height="57" viewBox="0 0 182 57" fill="none" xmlns="http://www.w3.org/2000/svg">
<path d="M79.2634 39.7433C79.9321 39.7433 80.5029 39.4052 80.9763 38.7282C81.4492 38.0512 81.686 37.2315 81.686 36.2686C81.686 35.3062 81.4492 34.4865 80.9763 33.8091C80.5029 33.1325 79.9321 32.794 79.2634 32.794C78.6109 32.794 78.0438 33.1325 77.5626 33.8091C77.0814 34.4865 76.8325 35.3062 76.8164 36.2686C76.8325 37.2315 77.0814 38.0512 77.5626 38.7282C78.0438 39.4052 78.6109 39.7433 79.2634 39.7433ZM81.9797 39.1438C81.2289 39.9515 80.3237 40.3551 79.2634 40.3551C78.2027 40.3551 77.2976 39.9515 76.5471 39.1438C75.7967 38.3362 75.4217 37.3696 75.4217 36.2442C75.4217 35.1187 75.7967 34.1518 76.5471 33.3445C77.2976 32.5368 78.2027 32.1332 79.2634 32.1332C80.3237 32.1332 81.2289 32.5368 81.9797 33.3445C82.7298 34.1518 83.1052 35.1187 83.1052 36.2442C83.1052 37.3696 82.7298 38.3362 81.9797 39.1438ZM71.1394 40.3551H70.1608L79.4348 23.6665H80.3889L71.1394 40.3551ZM71.2863 31.2521C71.955 31.2521 72.522 30.914 72.9871 30.237C73.4517 29.56 73.6923 28.7403 73.7089 27.7775C73.6923 26.8151 73.4475 25.9995 72.9746 25.3308C72.5013 24.6621 71.9384 24.3274 71.2863 24.3274C70.6171 24.3274 70.0505 24.6621 69.5855 25.3308C69.1204 25.9995 68.8881 26.8151 68.8881 27.7775C68.8881 28.7403 69.1246 29.56 69.5979 30.237C70.0708 30.914 70.6337 31.2521 71.2863 31.2521ZM74.0022 30.6776C73.2517 31.4687 72.3466 31.864 71.2863 31.864C70.2256 31.864 69.3204 31.4687 68.57 30.6776C67.8195 29.8861 67.4445 28.9195 67.4445 27.7775C67.4445 26.6517 67.8195 25.6851 68.57 24.8778C69.3204 24.0706 70.2256 23.6665 71.2863 23.6665C72.3466 23.6665 73.2517 24.0706 74.0022 24.8778C74.7526 25.6851 75.128 26.6517 75.128 27.7775C75.128 28.9195 74.7526 29.8861 74.0022 30.6776Z" fill="#C09460"/>
<path d="M84.7693 40.355V39.817C85.389 39.817 85.6989 39.6129 85.6989 39.2051V26.3587C85.6989 26.0811 85.6827 25.8936 85.6504 25.7953C85.6504 25.7796 85.601 25.7713 85.5035 25.7713L84.2798 25.8687L83.8392 25.8936V25.4041C84.7527 25.1756 85.3567 24.9968 85.6504 24.8657L85.6748 24.8416L85.7723 24.8167C86.3431 24.5558 86.8248 24.2293 87.2159 23.8381L87.3877 23.6664H87.7299L87.7059 26.9701V39.2051C87.7216 39.6129 88.0319 39.817 88.6355 39.817V40.355H84.7693Z" fill="#C09460"/>
<path d="M95.6826 39.7923C96.9549 39.7923 97.9012 39.0178 98.5213 37.4676C99.0755 35.9833 99.3531 33.9768 99.3531 31.448C99.3531 29.1644 98.9859 27.2968 98.2521 25.8445C97.7298 24.7676 96.7919 24.2292 95.4379 24.2292C92.7299 24.2292 91.3759 26.7501 91.3759 31.7907C91.3759 37.125 92.8112 39.7923 95.6826 39.7923ZM95.5603 40.3548C93.7819 40.3548 92.2972 39.5642 91.1067 37.9816C89.9485 36.4152 89.3694 34.3929 89.3694 31.913C89.3694 29.0586 90.1932 26.8152 91.8409 25.1837C92.7871 24.1727 93.9943 23.6667 95.4624 23.6667C97.159 23.6667 98.5047 24.3602 99.4999 25.7466C100.739 27.4433 101.36 29.6211 101.36 32.2802C101.36 33.6993 101.131 34.9961 100.675 36.1709C100.218 37.3946 99.5895 38.3732 98.7905 39.1074C97.9584 39.9392 96.8819 40.3548 95.5603 40.3548Z" fill="#C09460"/>
<path d="M108.407 39.7923C109.679 39.7923 110.625 39.0178 111.245 37.4676C111.8 35.9833 112.077 33.9768 112.077 31.448C112.077 29.1644 111.71 27.2968 110.976 25.8445C110.454 24.7676 109.516 24.2292 108.162 24.2292C105.454 24.2292 104.1 26.7501 104.1 31.7907C104.1 37.125 105.535 39.7923 108.407 39.7923ZM108.284 40.3548C106.506 40.3548 105.021 39.5642 103.831 37.9816C102.672 36.4152 102.093 34.3929 102.093 31.913C102.093 29.0586 102.917 26.8152 104.565 25.1837C105.511 24.1727 106.718 23.6667 108.186 23.6667C109.883 23.6667 111.229 24.3602 112.224 25.7466C113.463 27.4433 114.084 29.6211 114.084 32.2802C114.084 33.6993 113.855 34.9961 113.399 36.1709C112.942 37.3946 112.313 38.3732 111.515 39.1074C110.682 39.9392 109.606 40.3548 108.284 40.3548Z" fill="#C09460"/>
<path d="M132.778 23.6666H135.959V24.1806C135.241 24.1317 134.736 24.4254 134.442 25.0613L128.765 38.2018L129.206 39.2298L127.885 40.1594L127.517 40.4286L121.326 25.355C121.244 25.0941 121.065 24.8497 120.788 24.6212C120.429 24.3275 120.07 24.1968 119.711 24.2291V23.6666H124.336V24.2291H124.067C123.757 24.2291 123.545 24.315 123.431 24.4868C123.316 24.6581 123.324 24.8825 123.455 25.1596L128.423 37.3456L134.026 24.2785L134.1 24.1806H132.778V23.6666Z" fill="#C09460"/>
<path d="M136.693 40.355V39.817H137.158C137.321 39.817 137.464 39.7597 137.586 39.6456C137.709 39.5316 137.77 39.3847 137.77 39.2051V24.7433C137.737 24.3359 137.435 24.1559 136.865 24.2049V23.6664H140.462V24.2293C140.429 24.2293 140.347 24.2339 140.217 24.2418C140.086 24.2501 139.98 24.2625 139.899 24.2783C139.817 24.2949 139.74 24.3517 139.666 24.4496C139.593 24.5479 139.556 24.6782 139.556 24.8416V39.1806C139.556 39.605 139.858 39.817 140.462 39.817V40.355H136.693Z" fill="#C09460"/>
<path d="M141.44 40.355V39.817C142.044 39.817 142.346 39.6129 142.346 39.2051V24.8416C142.346 24.6782 142.309 24.5479 142.235 24.4496C142.162 24.3517 142.084 24.2949 142.003 24.2783C141.921 24.2625 141.815 24.2501 141.685 24.2418C141.554 24.2339 141.473 24.2293 141.44 24.2293V23.6664H145.282V24.2293C145.249 24.2293 145.167 24.2339 145.037 24.2418C144.906 24.2501 144.801 24.2625 144.719 24.2783C144.637 24.2949 144.56 24.3517 144.487 24.4496C144.413 24.5479 144.377 24.6782 144.377 24.8416V39.2051C144.377 39.6129 144.637 39.817 145.159 39.817H146.261C146.57 39.817 147.019 39.8211 147.606 39.829C148.194 39.8373 148.601 39.8414 148.83 39.8414C149.058 39.8414 149.376 39.829 149.784 39.8045C150.192 39.78 150.485 39.7398 150.665 39.6821C150.845 39.6253 151.06 39.544 151.314 39.4374C151.566 39.3316 151.774 39.1972 151.938 39.0338C152.1 38.8712 152.247 38.6671 152.378 38.4223H152.77L152.378 40.355H141.44Z" fill="#C09460"/>
<path d="M153.479 40.355V39.817C154.083 39.817 154.385 39.6129 154.385 39.2051V24.8416C154.385 24.6782 154.348 24.5479 154.274 24.4496C154.201 24.3517 154.123 24.2949 154.042 24.2783C153.96 24.2625 153.854 24.2501 153.724 24.2418C153.593 24.2339 153.512 24.2293 153.479 24.2293V23.6664H157.321V24.2293C157.288 24.2293 157.206 24.2339 157.076 24.2418C156.945 24.2501 156.84 24.2625 156.758 24.2783C156.676 24.2949 156.599 24.3517 156.526 24.4496C156.452 24.5479 156.416 24.6782 156.416 24.8416V39.2051C156.416 39.6129 156.676 39.817 157.198 39.817H158.3C158.609 39.817 159.058 39.8211 159.645 39.829C160.233 39.8373 160.64 39.8414 160.869 39.8414C161.097 39.8414 161.415 39.829 161.823 39.8045C162.231 39.78 162.524 39.7398 162.704 39.6821C162.884 39.6253 163.099 39.544 163.353 39.4374C163.605 39.3316 163.813 39.1972 163.977 39.0338C164.139 38.8712 164.286 38.6671 164.417 38.4223H164.809L164.417 40.355H153.479Z" fill="#C09460"/>
<path d="M169.776 33.1854H175.233L172.566 26.7008L169.776 33.1854ZM165.029 40.3549V39.8414C165.746 39.8903 166.252 39.5966 166.546 38.9603L172.223 25.8201L171.783 24.7926L173.471 23.5933L179.662 38.667C179.76 38.9279 179.939 39.1726 180.2 39.4008C180.592 39.7277 180.95 39.8658 181.277 39.8169V40.3549H176.652V39.8169H176.921C177.231 39.8169 177.443 39.7277 177.557 39.5477C177.672 39.368 177.663 39.1399 177.533 38.8628L175.551 33.9927H169.409L166.962 39.7435L166.888 39.8414H168.21V40.3549H165.029Z" fill="#C09460"/>
<path d="M41.4161 35.3603H41.4186C41.8302 35.271 42.2178 35.1739 42.5955 35.0684L42.492 35.0331L40.5566 34.3595C40.4923 34.5596 40.4231 34.7588 40.3486 34.9551L41.3131 35.3211L41.4161 35.3603Z" fill="#C09460"/>
<path d="M46.9479 33.938C47.7559 33.7908 48.6925 33.6647 49.8203 33.5906L49.5623 33.548L41.0548 32.1723C41.0273 32.3813 40.9935 32.5874 40.9542 32.7924L46.7791 33.9066L46.9479 33.938Z" fill="#C09460"/>
<path d="M40.476 26.1676L55.4609 20.955V24.9338L40.9048 27.716C40.9474 27.921 40.9857 28.1261 41.0142 28.3356L55.4609 25.9959V29.7318L41.1716 29.9364C41.1765 30.0841 41.1765 30.2318 41.1765 30.3843V30.5654L55.4609 30.7704V34.9621C53.2213 35.0818 51.5871 35.3531 50.1383 35.6681C49.5903 35.7883 49.0762 35.9159 48.5616 36.0395C47.337 36.3427 46.1311 36.6459 44.6495 36.8814H44.6446C44.2349 36.9495 43.8062 37.0094 43.3484 37.0653L41.8619 37.161L39.5654 37.3087C39.1984 37.3165 38.8123 37.3204 38.4125 37.3204H38.0642C37.5167 37.3165 36.9971 37.3047 36.5065 37.2886C36.1965 37.2768 35.8962 37.2645 35.6107 37.2488C35.2486 37.2248 34.9052 37.2007 34.5716 37.1728C34.3812 37.1571 34.2002 37.1409 34.0192 37.1252C33.4045 37.0609 32.8373 36.9893 32.3134 36.9054C31.7796 36.8215 31.289 36.7298 30.8219 36.638H30.817C30.531 36.5782 30.2499 36.5144 29.9786 36.4545C29.645 36.3785 29.3256 36.3029 29.0067 36.223C28.7251 36.1553 28.4538 36.0876 28.1727 36.0194C27.8342 35.9355 27.4962 35.8521 27.1434 35.7721C26.8672 35.7083 26.5861 35.6485 26.2908 35.5847C25.9856 35.5248 25.6711 35.4606 25.3424 35.4051C25.0564 35.3531 24.7611 35.3051 24.4515 35.2614C24.1081 35.2094 23.7558 35.1657 23.3746 35.1216C23.0695 35.0897 22.7457 35.0578 22.4121 35.0338C22.0353 35.0019 21.6399 34.9739 21.2209 34.9499C20.8731 34.9342 20.5012 34.9219 20.12 34.9101C19.6579 34.8939 19.1717 34.89 18.657 34.89H18.6477C18.1095 34.89 17.5949 34.8939 17.1136 34.9101C16.6465 34.9219 16.2035 34.942 15.7841 34.9661C15.6791 34.9739 15.5746 34.9778 15.4696 34.9857C14.8313 35.0298 14.2451 35.0818 13.6922 35.1495C11.1096 35.4527 9.40382 35.9718 7.43602 36.4266C5.86414 36.7896 4.12987 37.109 1.64842 37.2488V35.4876L15.4755 32.8427C15.4328 32.6333 15.3994 32.4282 15.371 32.2138L1.64842 34.4293V30.7606L15.2425 30.5703V30.3843C15.2425 30.2318 15.2424 30.0792 15.2518 29.9315L1.64842 29.7363V26.0676L15.4093 28.2924C15.4421 28.0829 15.4804 27.8734 15.528 27.6684L1.64842 25.0147V21.1027L15.971 26.0867C16.0426 25.8865 16.1142 25.6864 16.1952 25.4911L1.64842 19.9591V17.1862L3.13542 16.3237H3.13984L16.91 24.0139C17.0145 23.8329 17.1195 23.6518 17.2338 23.4708L4.2118 15.7046L4.77403 15.3803L5.87003 14.7514L7.7711 13.651L18.1914 22.1462C18.3249 21.9843 18.4681 21.8224 18.606 21.6649L8.7052 13.1123L9.15312 12.8552L10.101 12.3072L11.8166 11.3162L19.7736 20.5311C19.9355 20.3928 20.0974 20.2593 20.2691 20.1308L12.6791 10.8158L12.9695 10.649L13.8511 10.1441L15.5947 9.134L21.608 19.2158C21.789 19.1113 21.975 19.0063 22.1604 18.9112L16.4336 8.65272L16.5381 8.59091L17.3957 8.0954L19.3493 6.96604L23.6376 18.244C23.8329 18.1679 24.033 18.1012 24.2332 18.0345L20.2117 6.47053L20.9599 6.03684L23.3231 4.67395L25.8007 17.639C26.0057 17.6008 26.2103 17.5674 26.4203 17.539L24.2572 4.13577L24.7812 3.83062L27.8067 2.08702L28.026 17.4148H28.2115C28.3596 17.4148 28.5117 17.4148 28.6594 17.4197L28.8836 1.84418L29.1505 1.99626L32.4188 3.88311L32.4664 3.91206L30.2558 17.5767C30.4653 17.6101 30.6703 17.6484 30.8749 17.691L33.4054 4.45515L36.2308 6.08443L36.5453 6.26546L32.4238 18.1154C32.6239 18.1821 32.8192 18.2582 33.0144 18.3347L37.4122 6.76588L39.7896 8.13808L40.3568 8.46679L34.4632 19.0206C34.6442 19.1207 34.8252 19.2256 35.0063 19.335L41.2001 8.95297L43.3254 10.1819L44.1496 10.6539L36.3162 20.2593C36.4786 20.3879 36.6405 20.5262 36.7975 20.6646L45.0121 11.1543L47.0657 12.3406L48.0185 12.8935H48.0234L48.1519 12.9646L37.9268 21.7934C38.0696 21.9509 38.203 22.1128 38.332 22.2796L49.0904 13.5077L51.2868 14.7754H51.2917L52.3828 15.4088L52.6782 15.5805L39.2563 23.5851C39.3657 23.7661 39.4707 23.9423 39.5708 24.1282L53.7599 16.2045L55.4609 17.1862V19.7972L40.2567 25.5814C40.3376 25.7722 40.4092 25.9675 40.476 26.1676ZM55.4609 39.1087C53.4931 39.2122 51.9918 39.4359 50.6721 39.7033H50.6672C50.1766 39.8029 49.7145 39.9069 49.2616 40.0183C48.018 40.3097 46.8601 40.6251 45.483 40.8842C45.1116 40.9524 44.7211 41.0201 44.311 41.0838C43.3632 41.2237 42.3049 41.3355 41.0519 41.4032C40.709 41.4194 40.3514 41.4351 39.98 41.4469C39.4889 41.4591 38.9649 41.467 38.4125 41.467C38.0166 41.467 37.6452 41.4631 37.2831 41.4552C36.9687 41.4513 36.6733 41.443 36.3824 41.4312C36.3682 41.4312 36.3584 41.4273 36.3441 41.4273C35.5297 41.3954 34.7865 41.3434 34.1095 41.2796C33.819 41.2516 33.5379 41.2197 33.271 41.1839H33.247C33.0282 41.156 32.8138 41.128 32.6038 41.1C28.1776 40.4534 26.3001 39.1842 19.8104 39.0488C19.7246 39.0444 19.6387 39.0444 19.5484 39.0444C19.4768 39.0405 19.4052 39.0405 19.3341 39.0405C19.1098 39.0366 18.8812 39.0366 18.6477 39.0366H18.5952C17.9761 39.0366 17.3947 39.0444 16.8467 39.0645C16.413 39.0807 15.9985 39.1003 15.603 39.1244C15.0791 39.1563 14.588 39.2004 14.1258 39.248C10.8285 39.5875 8.94658 40.2817 6.37829 40.8047H6.36897C5.42996 40.9921 4.39627 41.1599 3.16682 41.2796C2.69094 41.3232 2.18611 41.363 1.64842 41.3949V38.2222C1.70974 38.2182 1.76665 38.2143 1.82307 38.2104C7.48361 37.8714 9.2326 36.5664 14.2308 36.0635C14.2686 36.0596 14.302 36.0557 14.3402 36.0513C14.8833 35.9997 15.4603 35.9556 16.0892 35.9237C16.0936 35.9276 16.0985 35.9355 16.1035 35.9438L16.1461 35.9198C16.2369 35.9159 16.3223 35.9159 16.4179 35.908C17.1038 35.88 17.8426 35.8639 18.6526 35.8639H18.7385C19.2197 35.8639 19.677 35.8678 20.1151 35.88C20.5964 35.8957 21.0541 35.9159 21.4878 35.9399C21.8641 35.9595 22.2168 35.9875 22.5597 36.0154C23.7411 36.1155 24.7419 36.2632 25.652 36.4305C25.6427 36.4428 25.6329 36.4545 25.6285 36.4624H25.8046C29.564 37.1811 31.7271 38.2943 38.4169 38.2943H38.4503C38.5935 38.2943 38.7314 38.2943 38.8697 38.2904H38.8747C39.4128 38.2904 39.9226 38.2742 40.4039 38.2585C40.5756 38.2506 40.7424 38.2467 40.9092 38.2344C41.1329 38.2266 41.3429 38.2143 41.5523 38.1986C42.8294 38.1147 43.9062 37.9832 44.8688 37.8194C45.3118 37.7478 45.7357 37.6678 46.136 37.58C47.6083 37.2729 48.8662 36.9132 50.3243 36.6022H50.3292C50.9056 36.4786 51.511 36.3628 52.1778 36.2632H52.1827C53.131 36.1195 54.203 36.0037 55.4609 35.9355V39.1087ZM55.4609 43.2489C53.1644 43.373 51.5061 43.6585 50.0245 43.9877C49.5859 44.0829 49.162 44.183 48.7426 44.2875C47.5229 44.5833 46.3411 44.8929 44.9022 45.1357C44.5357 45.1975 44.1496 45.2549 43.7399 45.3074C42.7298 45.4359 41.5813 45.536 40.2233 45.5836C39.8755 45.5978 39.5134 45.6028 39.1322 45.6077C38.8987 45.6077 38.6558 45.6121 38.413 45.6121C37.5554 45.6121 36.7739 45.5978 36.0542 45.5601C35.7113 45.5454 35.3826 45.5267 35.0632 45.5027C34.0437 45.431 33.1528 45.331 32.3428 45.2073C32.0283 45.1548 31.7232 45.1023 31.4327 45.0454C30.5654 44.8879 29.7887 44.7069 29.0263 44.521C28.7452 44.4543 28.469 44.3831 28.1879 44.3164C27.4922 44.1398 26.7823 43.9735 26.015 43.8209C25.758 43.7684 25.4911 43.7208 25.2149 43.6732C24.5477 43.5589 23.8329 43.4588 23.0278 43.3779C22.756 43.3489 22.4749 43.3254 22.1795 43.3063C21.427 43.2489 20.6027 43.2062 19.6878 43.1919C19.3684 43.1821 19.0397 43.1821 18.6968 43.1821H18.6492C17.4438 43.1821 16.3855 43.2204 15.4421 43.2822C14.9658 43.3156 14.5227 43.3489 14.0989 43.3965C11.5831 43.6585 9.89147 44.1256 8.08558 44.5642C7.28982 44.7594 6.46562 44.9453 5.54623 45.1072C4.44091 45.2932 3.18743 45.4551 1.64842 45.536V42.3687C2.33378 42.329 2.96715 42.277 3.55292 42.2132C7.24076 41.8143 9.15116 40.972 12.3533 40.4573C12.892 40.3695 13.4635 40.2896 14.0832 40.2258C15.0933 40.1183 16.2413 40.0423 17.5851 40.0183C17.7376 40.0143 17.8995 40.0143 18.057 40.0104H18.6526C19.4719 40.0104 20.225 40.0261 20.9207 40.0585C20.9731 40.0585 21.0207 40.0585 21.0683 40.0624C21.1733 40.0663 21.2729 40.0742 21.373 40.0781C21.4922 40.082 21.6065 40.0904 21.7208 40.0982C25.4042 40.3298 27.4196 40.9764 29.802 41.5308C30.0546 41.5867 30.3122 41.6466 30.5742 41.7025C30.6458 41.7187 30.717 41.7304 30.7979 41.7506C31.0555 41.8021 31.3174 41.8541 31.5892 41.9022C32.2324 42.0179 32.9232 42.1215 33.6949 42.2053C33.8857 42.2294 34.081 42.2495 34.2861 42.2652C34.3763 42.277 34.4715 42.2853 34.5672 42.2932C35.3055 42.3569 36.1106 42.3972 37.0064 42.4246C37.3209 42.4291 37.6452 42.4369 37.9788 42.4369C38.1216 42.4408 38.2693 42.4408 38.4169 42.4408C39.3177 42.4408 40.1419 42.4207 40.8949 42.381C41.2806 42.3653 41.6426 42.3412 41.9954 42.3133C43.3151 42.2093 44.416 42.0577 45.407 41.8742C45.8122 41.7982 46.1978 41.7187 46.579 41.6348C47.9562 41.3272 49.1714 40.9842 50.6054 40.6889C51.1009 40.5893 51.6204 40.4932 52.1778 40.4093H52.1827C53.131 40.266 54.203 40.1502 55.4609 40.082V43.2489ZM55.2131 15.3945L54.0837 14.742L53.836 14.5988L52.6973 13.9365H52.6924L50.2767 12.5456L49.2955 11.9785L49.2047 11.926L48.2093 11.3495L45.9648 10.049L45.1597 9.58633L45.0645 9.52942L44.2448 9.05747L41.934 7.72353L41.3767 7.40414L41.0524 7.2187L40.4853 6.88951L37.9268 5.40789L37.6266 5.23618L37.0266 4.88835L36.7121 4.70732L33.6861 2.96373L33.6576 2.94459L32.7142 2.4015L32.6617 2.37304L29.174 0.357166L28.9071 0.200176L28.5549 1.14441e-05L28.0353 0.300259L27.7827 0.443024L24.5383 2.32055L24.0095 2.62521L23.5473 2.8921L23.0371 3.18744L20.4835 4.65973L19.7305 5.09342L19.5637 5.1935L18.8346 5.61296L16.6956 6.84682L15.8091 7.36146L15.7331 7.40414L14.8613 7.90946L12.9361 9.01969L12.0168 9.54856L11.7641 9.69623L10.8634 10.2153L8.95786 11.3162L7.96636 11.8877L7.55671 12.1262L6.58483 12.6884L4.46446 13.9129L3.32087 14.5703L2.81114 14.8657L1.68668 15.5138L0.219298 16.362L0 46.4127V46.5702C0.238432 46.5604 0.519545 46.5511 0.77662 46.5462C0.781526 46.5462 0.781524 46.5511 0.78643 46.5511C0.881607 46.5462 0.976782 46.5462 1.06754 46.5369C1.26722 46.532 1.46297 46.5221 1.64842 46.5128C2.41081 46.4746 3.10206 46.4127 3.73543 46.3411C4.62636 46.2366 5.41279 46.1076 6.14182 45.9697C6.37044 45.9265 6.59906 45.879 6.81836 45.8314C8.85778 45.3884 10.5155 44.8595 12.9504 44.5068C13.4076 44.4449 13.8938 44.3875 14.4178 44.3355C15.4519 44.2355 16.6289 44.1731 18.0011 44.1589C18.2155 44.1589 18.4299 44.1545 18.6536 44.1545C18.787 44.1545 18.9156 44.1545 19.0446 44.1589C20.0449 44.1589 20.9408 44.1972 21.7557 44.2448C22.0603 44.2639 22.3561 44.2875 22.6368 44.3164C23.514 44.3924 24.2857 44.4925 25.0005 44.6068C25.286 44.6544 25.5627 44.7069 25.8291 44.7594C26.668 44.9213 27.4255 45.0979 28.1737 45.2834C28.4641 45.355 28.7501 45.4217 29.0406 45.4933C29.5076 45.6077 29.9796 45.722 30.4795 45.8314C30.8465 45.9079 31.2277 45.9839 31.628 46.0556C31.9282 46.1076 32.2427 46.1601 32.5714 46.2077C33.429 46.3367 34.3817 46.4412 35.4777 46.5035C35.8064 46.5221 36.1499 46.5413 36.5021 46.5511C37.0977 46.5746 37.7365 46.5889 38.4174 46.5889C38.8894 46.5889 39.3422 46.5795 39.7754 46.5702C40.1664 46.5604 40.5378 46.5462 40.8954 46.527C42.3295 46.4603 43.5206 46.3269 44.5735 46.165C44.9836 46.0983 45.3741 46.0266 45.7504 45.9506C45.9555 45.9123 46.1556 45.8745 46.3509 45.8314C47.5372 45.5743 48.5998 45.2883 49.7576 45.0165C50.1957 44.9213 50.6486 44.8261 51.1205 44.7354H51.1249C52.3352 44.5023 53.7173 44.3208 55.4609 44.2256C55.9088 44.2021 56.3851 44.183 56.8905 44.1687V43.2013V40.0261V39.0488V35.88V34.9062V30.7896V29.7078V25.7673V24.662V20.4546V19.2541V16.362L55.2131 15.3945Z" fill="#C09460"/>
<path d="M33.0844 56.3597C31.8137 56.0491 30.4911 55.7528 28.7867 55.5482C28.4021 55.4997 27.992 55.458 27.5602 55.4236C26.4647 55.3319 25.2171 55.2784 23.7507 55.2784C23.5098 55.2784 23.2734 55.2809 23.0452 55.2823C22.848 55.2848 22.6523 55.2872 22.4614 55.2926C22.6037 55.3294 22.7494 55.3677 22.8995 55.407C22.9295 55.4148 22.9545 55.4212 22.9839 55.429V55.4276C23.319 55.5114 23.6541 55.5929 23.9921 55.6689C24.0937 55.694 24.1923 55.716 24.2909 55.7371C24.5725 55.8014 24.8575 55.8588 25.1406 55.9152C25.8637 56.0609 26.5928 56.1855 27.3223 56.2915C27.3331 56.294 27.3473 56.2969 27.3596 56.2969C27.7947 56.3597 28.1892 56.4107 28.5586 56.4529C28.5758 56.4554 28.5959 56.4578 28.6131 56.4578C28.9859 56.5015 29.3568 56.5407 29.7307 56.5721C30.103 56.606 30.4739 56.6349 30.8497 56.6599C31.1764 56.681 31.5022 56.6977 31.8245 56.7095C31.8967 56.7149 31.9702 56.7173 32.0424 56.7203C32.3912 56.7345 32.737 56.7424 33.078 56.7463H33.0814C33.288 56.7492 33.4975 56.7517 33.7089 56.7517C33.9199 56.7517 34.1299 56.7492 34.3408 56.7463C34.4429 56.7438 34.5444 56.7438 34.6465 56.7424C34.5415 56.7173 34.4414 56.6913 34.3393 56.6663C33.9184 56.5643 33.5053 56.4617 33.0844 56.3597Z" fill="#C09460"/>
<path d="M44.8108 53.1653C43.5509 53.3566 42.0845 53.4984 40.2408 53.5465C39.8341 53.5558 39.4102 53.5612 38.9643 53.5637H38.8215C37.2158 53.5637 35.8715 53.5009 34.701 53.391H34.698C34.2722 53.3512 33.8748 53.3081 33.4912 53.2571C31.9669 53.0603 30.7477 52.788 29.5742 52.5035C29.2004 52.4127 28.8309 52.321 28.4601 52.2283C27.3675 51.9633 26.2406 51.7038 24.8747 51.5046C24.5318 51.4546 24.1717 51.406 23.7915 51.3658C22.7259 51.249 21.5117 51.1666 20.0718 51.1416H20.0683C19.7416 51.1347 19.4065 51.1323 19.0562 51.1323H18.8806C17.1154 51.1362 15.6711 51.2216 14.4255 51.3525C13.8824 51.4139 13.3766 51.4796 12.9012 51.5542C11.71 51.7416 10.7023 51.9751 9.72109 52.2111C10.1715 52.4407 10.6238 52.662 11.081 52.8729C11.4112 52.7998 11.7536 52.7301 12.1074 52.6634C12.6097 52.5717 13.145 52.4863 13.7195 52.4127C15.0166 52.2425 16.535 52.1287 18.4381 52.109C18.6397 52.1051 18.8492 52.1051 19.0606 52.1051C19.2672 52.1051 19.4708 52.1051 19.668 52.109C21.1859 52.1247 22.4615 52.1993 23.5727 52.3131C23.9652 52.3553 24.3361 52.401 24.6913 52.4495C26.1346 52.6517 27.3067 52.919 28.4429 53.1967C28.8246 53.2909 29.2048 53.3856 29.5914 53.4788C30.809 53.7722 32.0768 54.0567 33.6854 54.2544C34.0764 54.303 34.49 54.3462 34.9247 54.383C36.0423 54.4801 37.3208 54.5365 38.8279 54.5365C39.0094 54.5365 39.1895 54.5365 39.3676 54.5336C39.8263 54.5287 40.2614 54.5194 40.676 54.5051C41.6935 54.4708 42.5933 54.4051 43.4023 54.3202L43.4052 54.3172C43.9925 54.1102 44.5699 53.8914 45.1395 53.6584C45.1768 53.6461 45.2145 53.6294 45.2523 53.6147C45.6291 53.4592 45.9656 53.3159 46.2836 53.1746C46.315 53.1599 46.3459 53.1481 46.3758 53.1324C46.7153 52.9818 47.0518 52.8273 47.3869 52.6659C46.9768 52.7591 46.5558 52.8508 46.1143 52.9387C45.7027 53.0186 45.2695 53.0971 44.8108 53.1653Z" fill="#C09460"/>
<path d="M51.9658 47.2367H51.9629C49.9799 47.4648 48.5164 47.82 47.0628 48.1777C46.6526 48.2772 46.2474 48.3798 45.8279 48.4769C44.626 48.7585 43.343 49.0205 41.7089 49.1961C41.3257 49.2369 40.9219 49.2722 40.4946 49.3036C39.4962 49.3757 38.3723 49.4179 37.0815 49.4179C36.9265 49.4179 36.7764 49.4179 36.6277 49.4154H36.6257C36.2333 49.4125 35.856 49.4046 35.493 49.3953C34.1453 49.3551 33.0017 49.2643 31.992 49.1397C31.6197 49.0965 31.2689 49.0485 30.9294 48.9945C29.7446 48.8071 28.7398 48.579 27.765 48.3405C27.4363 48.2606 27.114 48.1791 26.7853 48.1016C25.8855 47.8803 24.9652 47.664 23.9089 47.482C23.6072 47.4305 23.2957 47.3794 22.9684 47.3363C22.103 47.2146 21.1419 47.1175 20.0263 47.0557C19.7025 47.0375 19.3645 47.0218 19.0108 47.01C18.4799 46.9953 17.9167 46.9865 17.3157 46.9865C16.699 46.9865 16.125 46.9953 15.5819 47.0125C15.1532 47.0272 14.743 47.0468 14.3535 47.0689C12.3283 47.192 10.804 47.4388 9.45337 47.7268C8.76015 47.8764 8.11207 48.0334 7.46742 48.1924C6.09325 48.5328 4.72693 48.8699 2.93232 49.1059C3.04025 49.1873 3.14671 49.2673 3.25758 49.3418C3.38759 49.4375 3.51907 49.5293 3.65203 49.6195C3.79136 49.7191 3.93069 49.8138 4.07296 49.9095C4.81622 49.7795 5.48785 49.6367 6.1325 49.4885C6.84632 49.3222 7.53169 49.1505 8.23423 48.9803C9.7492 48.6158 11.3608 48.2748 13.6225 48.0952C14.0292 48.0614 14.4614 48.0334 14.9152 48.0113C15.6492 47.9785 16.4474 47.9588 17.3206 47.9588C17.7602 47.9588 18.1748 47.9628 18.5756 47.9706C18.9435 47.9799 19.2953 47.9932 19.6319 48.0074C20.8196 48.0614 21.8415 48.1556 22.7526 48.2772C23.0935 48.3234 23.4144 48.3719 23.7288 48.423C24.8558 48.6104 25.8247 48.836 26.7716 49.0681C27.1076 49.1505 27.4427 49.2329 27.7822 49.3154C28.8041 49.5661 29.8604 49.8069 31.1237 49.9958C31.4725 50.0468 31.8341 50.0954 32.2172 50.1425C33.272 50.2617 34.474 50.3456 35.8997 50.3785C36.274 50.3854 36.6635 50.3903 37.0688 50.3903H37.0874C38.6495 50.3903 39.9643 50.3289 41.1113 50.2279C41.5465 50.1886 41.9595 50.144 42.3476 50.0944C44.0206 49.882 45.3241 49.5778 46.5947 49.2673H46.5982C47.022 49.1623 47.4366 49.0573 47.8674 48.9553C49.296 48.6128 50.8252 48.2974 52.9127 48.1163L53.0407 48.0138C53.0864 47.9785 53.1364 47.9392 53.1835 47.9C53.4622 47.6718 53.7173 47.453 53.9611 47.2406C54.0052 47.2053 54.0474 47.166 54.0882 47.1292C54.1176 47.1057 54.1475 47.0782 54.1755 47.0547C54.0224 47.061 53.8738 47.0704 53.7281 47.0807C53.0957 47.1199 52.5119 47.1724 51.9658 47.2367Z" fill="#C09460"/>
</svg>
