<svg xmlns="http://www.w3.org/2000/svg" version="1.1" xmlns:xlink="http://www.w3.org/1999/xlink" width="512" height="512" x="0" y="0" viewBox="0 0 682.667 682.667" style="enable-background:new 0 0 512 512" xml:space="preserve" class=""><g><defs><clipPath id="a" clipPathUnits="userSpaceOnUse"><path d="M0 512h512V0H0Z" fill="#ff5900" opacity="1" data-original="#000000"></path></clipPath></defs><g clip-path="url(#a)" transform="matrix(1.33333 0 0 -1.33333 0 682.667)"><path d="M0 0h-217.605a20.626 20.626 0 0 1-14.755-6.213L-275.031-49.9H0Z" style="stroke-width:15;stroke-linecap:round;stroke-linejoin:round;stroke-miterlimit:10;stroke-dasharray:none;stroke-opacity:1" transform="translate(282.531 188.113)" fill="none" stroke="#ff5900" stroke-width="15" stroke-linecap="round" stroke-linejoin="round" stroke-miterlimit="10" stroke-dasharray="none" stroke-opacity="" data-original="#000000" opacity="1"></path><path d="M0 0v-89.82c0-18.336 14.854-33.19 33.189-33.19h241.842V0Z" style="stroke-width:15;stroke-linecap:round;stroke-linejoin:round;stroke-miterlimit:10;stroke-dasharray:none;stroke-opacity:1" transform="translate(7.5 138.213)" fill="none" stroke="#ff5900" stroke-width="15" stroke-linecap="round" stroke-linejoin="round" stroke-miterlimit="10" stroke-dasharray="none" stroke-opacity="" data-original="#000000" opacity="1"></path><path d="M0 0h-196.058a11.33 11.33 0 0 0-11.012 8.661l-20.392 84.101c-1.729 7.132 3.674 14.001 11.013 14.001H20.392c7.338 0 12.742-6.869 11.012-14.001L11.013 8.661A11.333 11.333 0 0 0 0 0Z" style="stroke-width:15;stroke-linecap:round;stroke-linejoin:round;stroke-miterlimit:10;stroke-dasharray:none;stroke-opacity:1" transform="translate(472.772 246.137)" fill="none" stroke="#ff5900" stroke-width="15" stroke-linecap="round" stroke-linejoin="round" stroke-miterlimit="10" stroke-dasharray="none" stroke-opacity="" data-original="#000000" opacity="1"></path><path d="M0 0v111.659h-185.675v-230.933h169.554c8.903 0 16.121 7.217 16.121 16.121v67.839" style="stroke-width:15;stroke-linecap:round;stroke-linejoin:round;stroke-miterlimit:10;stroke-dasharray:none;stroke-opacity:1" transform="translate(468.206 134.477)" fill="none" stroke="#ff5900" stroke-width="15" stroke-linecap="round" stroke-linejoin="round" stroke-miterlimit="10" stroke-dasharray="none" stroke-opacity="" data-original="#000000" opacity="1"></path><path d="M0 0h-142.025l-22.056 90.964c-1.951 8.048 4.145 15.799 12.426 15.799H9.63c8.281 0 14.377-7.751 12.426-15.799z" style="stroke-width:15;stroke-linecap:round;stroke-linejoin:round;stroke-miterlimit:10;stroke-dasharray:none;stroke-opacity:1" transform="translate(445.8 352.9)" fill="none" stroke="#ff5900" stroke-width="15" stroke-linecap="round" stroke-linejoin="round" stroke-miterlimit="10" stroke-dasharray="none" stroke-opacity="" data-original="#000000" opacity="1"></path><path d="M0 0v32.493" style="stroke-width:15;stroke-linecap:round;stroke-linejoin:round;stroke-miterlimit:10;stroke-dasharray:none;stroke-opacity:1" transform="translate(376.53 459.663)" fill="none" stroke="#ff5900" stroke-width="15" stroke-linecap="round" stroke-linejoin="round" stroke-miterlimit="10" stroke-dasharray="none" stroke-opacity="" data-original="#000000" opacity="1"></path><path d="M0 0h34.813" style="stroke-width:15;stroke-linecap:round;stroke-linejoin:round;stroke-miterlimit:10;stroke-dasharray:none;stroke-opacity:1" transform="translate(359.122 492.156)" fill="none" stroke="#ff5900" stroke-width="15" stroke-linecap="round" stroke-linejoin="round" stroke-miterlimit="10" stroke-dasharray="none" stroke-opacity="" data-original="#000000" opacity="1"></path><path d="M443.836 280.951H309.222v37.135h134.614z" style="stroke-width:15;stroke-linecap:round;stroke-linejoin:round;stroke-miterlimit:10;stroke-dasharray:none;stroke-opacity:1" fill="none" stroke="#ff5900" stroke-width="15" stroke-linecap="round" stroke-linejoin="round" stroke-miterlimit="10" stroke-dasharray="none" stroke-opacity="" data-original="#000000" opacity="1"></path><path d="M0 0v-65.76h-75.431V0c0 7.905 6.409 14.313 14.313 14.313h46.805C-6.408 14.313 0 7.905 0 0Z" style="stroke-width:15;stroke-linecap:round;stroke-linejoin:round;stroke-miterlimit:10;stroke-dasharray:none;stroke-opacity:1" transform="translate(243.075 80.963)" fill="none" stroke="#ff5900" stroke-width="15" stroke-linecap="round" stroke-linejoin="round" stroke-miterlimit="10" stroke-dasharray="none" stroke-opacity="" data-original="#000000" opacity="1"></path><path d="M0 0v-65.76h-75.431V0c0 7.905 6.408 14.313 14.313 14.313h46.805C-6.408 14.313 0 7.905 0 0Z" style="stroke-width:15;stroke-linecap:round;stroke-linejoin:round;stroke-miterlimit:10;stroke-dasharray:none;stroke-opacity:1" transform="translate(412.504 80.963)" fill="none" stroke="#ff5900" stroke-width="15" stroke-linecap="round" stroke-linejoin="round" stroke-miterlimit="10" stroke-dasharray="none" stroke-opacity="" data-original="#000000" opacity="1"></path><path d="M0 0h-75.43" style="stroke-width:15;stroke-linecap:round;stroke-linejoin:round;stroke-miterlimit:10;stroke-dasharray:none;stroke-opacity:1" transform="translate(124.707 95.276)" fill="none" stroke="#ff5900" stroke-width="15" stroke-linecap="round" stroke-linejoin="round" stroke-miterlimit="10" stroke-dasharray="none" stroke-opacity="" data-original="#000000" opacity="1"></path><path d="M0 0h-75.431" style="stroke-width:15;stroke-linecap:round;stroke-linejoin:round;stroke-miterlimit:10;stroke-dasharray:none;stroke-opacity:1" transform="translate(412.504 213.644)" fill="none" stroke="#ff5900" stroke-width="15" stroke-linecap="round" stroke-linejoin="round" stroke-miterlimit="10" stroke-dasharray="none" stroke-opacity="" data-original="#000000" opacity="1"></path><path d="M0 0a8.524 8.524 0 0 0 8.524-8.524 8.524 8.524 0 1 0-17.047 0A8.523 8.523 0 0 0 0 0" style="fill-opacity:1;fill-rule:nonzero;stroke:none" transform="translate(353.293 414.405)" fill="#ff5900" data-original="#000000" opacity="1"></path><path d="M0 0a8.524 8.524 0 0 0 8.524-8.524 8.524 8.524 0 1 0-17.047 0A8.523 8.523 0 0 0 0 0" style="fill-opacity:1;fill-rule:nonzero;stroke:none" transform="translate(394.695 414.405)" fill="#ff5900" data-original="#000000" opacity="1"></path><path d="m0 0 156.849 99.191s-20.872 27.918-42.042 15.026c-21.169-12.893-61.514-40.365-61.514-40.365l-59.38 22.846-26.847-11.513L7.119 49.6l-29.298-26.55-33.755 4.595-12.271-8.441 18.309-15.485a40.23 40.23 0 0 1 26.823-9.504l4.145.087A36.855 36.855 0 0 1 0 0Z" style="stroke-width:15;stroke-linecap:round;stroke-linejoin:round;stroke-miterlimit:10;stroke-dasharray:none;stroke-opacity:1" transform="translate(81.792 379.179)" fill="none" stroke="#ff5900" stroke-width="15" stroke-linecap="round" stroke-linejoin="round" stroke-miterlimit="10" stroke-dasharray="none" stroke-opacity="" data-original="#000000" opacity="1"></path><path d="m0 0 32.756 20.138" style="stroke-width:15;stroke-linecap:round;stroke-linejoin:round;stroke-miterlimit:10;stroke-dasharray:none;stroke-opacity:1" transform="translate(49.014 251.529)" fill="none" stroke="#ff5900" stroke-width="15" stroke-linecap="round" stroke-linejoin="round" stroke-miterlimit="10" stroke-dasharray="none" stroke-opacity="" data-original="#000000" opacity="1"></path><path d="m0 0 75.693 47.99" style="stroke-width:15;stroke-linecap:round;stroke-linejoin:round;stroke-miterlimit:10;stroke-dasharray:none;stroke-opacity:1" transform="translate(74.544 313.034)" fill="none" stroke="#ff5900" stroke-width="15" stroke-linecap="round" stroke-linejoin="round" stroke-miterlimit="10" stroke-dasharray="none" stroke-opacity="" data-original="#000000" opacity="1"></path></g></g></svg>