<svg width="28" height="28" viewBox="0 0 28 28" fill="none" xmlns="http://www.w3.org/2000/svg">
<g clip-path="url(#clip0_77_2204)">
<path d="M27.1797 26.3049H25.9914L23.7572 21.8365C23.6182 21.5586 23.3342 21.3831 23.0234 21.3831H17.6989L13.8683 9.9509L22.4257 7.09025C22.9156 6.92646 23.135 6.35432 22.8775 5.90463C20.6706 2.05036 16.1313 0.0366054 11.0147 1.41637L10.7469 0.615199C10.6033 0.185574 10.1386 -0.0464649 9.70878 0.0972538C9.2791 0.240918 9.04723 0.705652 9.19089 1.13533L9.4587 1.9365C4.54677 3.9087 2.12445 8.24383 2.67985 12.6565C2.74477 13.1721 3.26512 13.4952 3.75386 13.3321L12.3123 10.4711L15.9686 21.3831H7.97552L1.35434 16.6158C0.986617 16.3511 0.473977 16.4345 0.209289 16.8022C-0.0554531 17.1699 0.0280547 17.6825 0.395664 17.9473L6.74702 22.5202L5.52748 26.305H0.820312C0.367281 26.305 0 26.6723 0 27.1253C0 27.5783 0.367281 27.9456 0.820312 27.9456H27.1797C27.6327 27.9456 28 27.5783 28 27.1253C28 26.6723 27.6327 26.3049 27.1797 26.3049ZM10.7487 3.20936C10.7488 3.2093 10.7489 3.2093 10.749 3.20925C10.7545 3.21001 11.7232 2.75797 13.4481 4.43403C14.3395 5.30011 15.1271 6.45347 15.6441 7.62739L9.49501 9.68299C8.84439 6.90891 9.39433 3.66266 10.7487 3.20936ZM20.8987 5.87089L17.2056 7.1054C16.4978 5.44274 15.2778 3.72369 13.8724 2.62836C16.6549 2.53211 19.2259 3.61984 20.8987 5.87089ZM7.90437 4.62314C7.43668 6.35607 7.5034 8.46329 7.93466 10.2046L4.24047 11.4396C4.22368 8.70299 5.5638 6.26081 7.90437 4.62314ZM22.5164 23.0237L24.1571 26.3049H19.3481L18.2486 23.0237H22.5164ZM8.30845 23.0237H16.5184L17.6178 26.3049H7.25118L8.30845 23.0237Z" fill="#C09460"/>
</g>
<defs>
<clipPath id="clip0_77_2204">
<rect width="28" height="28" fill="white"/>
</clipPath>
</defs>
</svg>
