<svg width="28" height="28" viewBox="0 0 28 28" fill="none" xmlns="http://www.w3.org/2000/svg">
<g clip-path="url(#clip0_77_2201)">
<path d="M24.7188 4.8125H21.3828V9.84375H19.7422V0H8.25781V9.84375H6.61719V4.8125H3.28125C1.47197 4.8125 0 6.28447 0 8.09375V24.7188C0 26.528 1.47197 28 3.28125 28H24.7188C26.528 28 28 26.528 28 24.7188V8.09375C28 6.28447 26.528 4.8125 24.7188 4.8125ZM9.89844 1.64062H18.1016V23.0781H16.4609V16.4062H11.5391V23.0781H9.89844V1.64062ZM14.8203 18.0469V23.0781H13.1797V18.0469H14.8203ZM1.64062 8.09375C1.64062 7.18911 2.37661 6.45312 3.28125 6.45312H4.97656V21.4375H3.28125C2.68406 21.4375 2.12352 21.598 1.64062 21.8778V8.09375ZM24.7188 26.3594H3.28125C2.37661 26.3594 1.64062 25.6234 1.64062 24.7188C1.64062 23.8141 2.37661 23.0781 3.28125 23.0781H6.61719V11.4844H8.25781V24.7188H19.7422V11.4844H21.3828V23.0781H24.7188C25.6234 23.0781 26.3594 23.8141 26.3594 24.7188C26.3594 25.6234 25.6234 26.3594 24.7188 26.3594ZM26.3594 21.8778C25.8765 21.598 25.3159 21.4375 24.7188 21.4375H23.0234V6.45312H24.7188C25.6234 6.45312 26.3594 7.18911 26.3594 8.09375V21.8778Z" fill="#C09460"/>
<path d="M16.4609 9.84375H11.5391V14.7656H16.4609V9.84375ZM14.8203 13.125H13.1797V11.4844H14.8203V13.125Z" fill="#C09460"/>
<path d="M16.4609 3.28125H11.5391V8.20312H16.4609V3.28125ZM14.8203 6.5625H13.1797V4.92188H14.8203V6.5625Z" fill="#C09460"/>
</g>
<defs>
<clipPath id="clip0_77_2201">
<rect width="28" height="28" fill="white"/>
</clipPath>
</defs>
</svg>
