<svg id="Capa_1" enable-background="new 0 0 512 512" height="512" viewBox="0 0 512 512" width="512" xmlns="http://www.w3.org/2000/svg"><g><path d="m71.997 136.494v348.415c0 10.82 8.771 19.591 19.591 19.591h328.824c10.82 0 19.591-8.771 19.591-19.591v-348.415z" fill="#f6f9f9"/><path d="m400.003 136.494v201.061c0 81.155-65.789 146.944-146.945 146.944h-181.061v.409c0 10.82 8.771 19.591 19.591 19.591h328.824c10.82 0 19.591-8.771 19.591-19.591v-348.414z" fill="#e7ecf1"/><path d="m335.083 416.416c0-9.298 7.538-16.836 16.836-16.836h3.766c17.25-21.715 27.555-49.195 27.555-79.083 0-70.273-56.967-127.24-127.24-127.24s-127.24 56.967-127.24 127.24 56.967 127.24 127.24 127.24c29.887 0 57.368-10.305 79.083-27.555z" fill="#a2f4c1"/><path d="m291.963 198.411c31.122 23.196 51.277 60.287 51.277 102.086 0 70.273-56.967 127.24-127.24 127.24-12.49 0-24.559-1.8-35.963-5.154 21.2 15.801 47.489 25.154 75.963 25.154 29.887 0 57.368-10.305 79.083-27.555v-3.766c0-9.298 7.538-16.836 16.836-16.836h3.766c17.25-21.715 27.555-49.195 27.555-79.083 0-57.783-38.517-106.569-91.277-122.086z" fill="#78d0b1"/><g fill="#dae4ea"><path d="m146.365 98.846c-12.026 0-21.776-9.749-21.776-21.776v-47.794c0-12.026 9.749-21.776 21.776-21.776 12.026 0 21.776 9.749 21.776 21.776v47.795c0 12.026-9.749 21.775-21.776 21.775z"/><path d="m256 98.846c-12.026 0-21.776-9.749-21.776-21.776v-47.794c0-12.027 9.75-21.776 21.776-21.776 12.026 0 21.776 9.749 21.776 21.776v47.795c0 12.026-9.75 21.775-21.776 21.775z"/><path d="m365.634 98.846c-12.026 0-21.776-9.749-21.776-21.776v-47.794c0-12.026 9.749-21.776 21.776-21.776 12.026 0 21.776 9.749 21.776 21.776v47.795c0 12.026-9.749 21.775-21.776 21.775z"/></g><path d="m387.41 47.399v29.15c0 11.807-9.181 21.864-20.981 22.283-12.388.441-22.57-9.471-22.57-21.761v-29.672h-66.083v29.15c0 11.808-9.182 21.864-20.982 22.283-12.388.44-22.57-9.472-22.57-21.762v-29.671h-66.083v29.15c0 11.807-9.181 21.864-20.981 22.283-12.388.441-22.57-9.471-22.57-21.762v-29.671h-33.002c-10.82 0-19.591 8.771-19.591 19.591v69.505h368.006v-69.506c0-10.82-8.771-19.591-19.591-19.591h-33.002z" fill="#e4989d"/><path d="m420.412 47.398h-20.409v42.946c0 14.442-11.708 26.15-26.15 26.15h-301.856v20h368.006v-69.505c0-10.819-8.771-19.591-19.591-19.591z" fill="#e28086"/><path d="m440.003 325.39c0 47.503-18.87 93.06-52.46 126.649-33.59 33.59-79.147 52.46-126.65 52.46 40.974 0 74.19-33.216 74.19-74.19v-13.894c0-9.298 7.538-16.836 16.836-16.836h13.895c40.973.001 74.189-33.215 74.189-74.189z" fill="#dae4ea"/><path d="m260.896 504.5h-.004z" fill="#c6d0da"/><path d="m440.003 325.41c-.008 33.309-21.968 61.487-52.198 70.857-12.589 28.853-34.175 52.881-61.212 68.539-12.417 23.6-37.177 39.694-65.696 39.695 47.502-.001 93.058-18.871 126.646-52.46 33.585-33.586 52.455-79.135 52.46-126.631z" fill="#c6d0da"/><path d="m387.543 452.04c-33.59 33.59-79.147 52.46-126.65 52.46h159.519c10.82 0 19.591-8.771 19.591-19.591v-159.518c0 47.502-18.87 93.059-52.46 126.649z" fill="#e7ecf1"/><path d="m238.332 386.317-65.82-65.82 30.485-30.485 35.335 35.335 70.671-70.67 30.485 30.485z" fill="#fff"/><path d="m303.699 249.374-65.367 65.367-30.031-30.032c-2.928-2.927-7.678-2.929-10.607 0l-30.484 30.485c-2.929 2.929-2.929 7.678 0 10.606l65.819 65.82c2.928 2.927 7.678 2.929 10.607 0l101.155-101.155c2.929-2.929 2.929-7.678 0-10.606l-30.484-30.485c-2.928-2.927-7.678-2.929-10.608 0zm-65.367 126.337-55.213-55.214 19.878-19.878 30.031 30.032c2.929 2.929 7.677 2.929 10.607 0l65.367-65.367 19.878 19.878z"/><path d="m447.503 484.909v-417.92c0-14.938-12.153-27.091-27.091-27.091h-25.502v-10.623c0-16.142-13.133-29.275-29.275-29.275s-29.276 13.133-29.276 29.275v10.623h-51.083v-10.623c-.001-16.142-13.133-29.275-29.276-29.275s-29.275 13.133-29.275 29.275v10.623h-51.084v-10.623c0-16.142-13.133-29.275-29.276-29.275s-29.275 13.133-29.275 29.275v10.623h-25.502c-14.938 0-27.091 12.153-27.091 27.091v371.466c0 4.142 3.357 7.5 7.5 7.5s7.5-3.358 7.5-7.5v-294.461h299.176c4.143 0 7.5-3.358 7.5-7.5s-3.357-7.5-7.5-7.5h-299.176v-62.005c0-6.667 5.424-12.091 12.091-12.091h25.502v22.172c0 16.143 13.133 29.275 29.275 29.275s29.275-13.133 29.275-29.275v-22.172h51.084v22.172c0 16.143 13.133 29.275 29.275 29.275s29.275-13.133 29.275-29.275v-22.172h51.083v22.172c0 16.143 13.134 29.275 29.276 29.275s29.275-13.133 29.275-29.275v-22.172h25.502c6.667 0 12.091 5.424 12.091 12.091v62.005h-18.83c-4.143 0-7.5 3.358-7.5 7.5s3.357 7.5 7.5 7.5h18.83v181.396c0 35.277-27.534 64.245-62.24 66.542 3.505-5.595 6.595-11.441 9.24-17.487 1.66-3.795-.07-8.217-3.865-9.877-3.796-1.659-8.218.071-9.877 3.866-3.661 8.369-8.284 16.307-13.765 23.646-13.464 0-24.413 10.823-24.413 24.415-20.777 15.545-45.449 23.742-71.583 23.742-66.025 0-119.74-53.715-119.74-119.74s53.715-119.74 119.74-119.74c71.783 0 128.022 63.179 118.754 135.182-.529 4.108 2.372 7.868 6.48 8.396 4.11.529 7.867-2.373 8.396-6.48 10.442-81.037-52.911-152.098-133.628-152.098-74.296 0-134.74 60.444-134.74 134.74s60.444 134.74 134.74 134.74c25.669 0 50.088-7.029 71.434-20.454-2.308 34.695-31.271 62.217-66.541 62.217h-169.305c-6.667 0-12.091-5.424-12.091-12.091v-11.454c0-4.142-3.357-7.5-7.5-7.5s-7.5 3.358-7.5 7.5v11.454c0 14.938 12.153 27.091 27.091 27.091h328.824c14.938 0 27.091-12.153 27.091-27.091zm-286.862-407.838c0 7.872-6.404 14.275-14.275 14.275s-14.275-6.404-14.275-14.275v-47.796c0-7.872 6.404-14.275 14.275-14.275s14.275 6.404 14.275 14.275zm109.634 0c0 7.872-6.404 14.275-14.275 14.275s-14.275-6.404-14.275-14.275v-47.796c0-7.871 6.404-14.275 14.275-14.275s14.275 6.404 14.275 14.275zm109.635 0c0 7.872-6.404 14.275-14.275 14.275-7.872 0-14.276-6.404-14.276-14.275v-47.796c0-7.872 6.404-14.275 14.276-14.275 7.871 0 14.275 6.404 14.275 14.275zm-37.327 353.239c0-8.35 0-4.225 0-13.894 0-5.148 4.188-9.336 9.336-9.336h13.895c21.782 0 41.602-8.571 56.262-22.515-17.218 46.984-54.919 84.751-102.008 102.007 13.945-14.66 22.515-34.48 22.515-56.262zm77.829 66.69h-86.218c43.063-18.384 78.951-52.961 98.309-98.308v86.218c0 6.666-5.424 12.09-12.091 12.09z"/></g></svg>