<svg width="28" height="28" viewBox="0 0 28 28" fill="none" xmlns="http://www.w3.org/2000/svg">
<g clip-path="url(#clip0_77_2200)">
<path d="M16.4609 18.9404H11.5391C11.086 18.9404 10.7188 19.308 10.7188 19.7616C10.7188 20.215 11.086 20.5827 11.5391 20.5827H16.4609C16.914 20.5827 17.2812 20.2151 17.2812 19.7616C17.2812 19.3081 16.914 18.9404 16.4609 18.9404Z" fill="#C09460"/>
<path d="M27.7597 4.94823L26.3925 3.57973C26.2387 3.42573 26.03 3.33922 25.8125 3.33922H24.7661C24.6526 1.47886 23.1053 0 21.2188 0H6.78125C4.8947 0 3.34742 1.47886 3.23395 3.33922H2.1875C1.9699 3.33922 1.76127 3.42573 1.60748 3.57973L0.240297 4.94823C0.0864063 5.10223 0 5.31109 0 5.52885V9.63441C0 10.0879 0.367281 10.4555 0.820312 10.4555C1.27334 10.4555 1.64062 10.0879 1.64062 9.63441V5.86895L2.52727 4.98143H3.22656V23.3196C3.22656 23.9211 3.61637 24.4328 4.15625 24.6159V26.6314C4.15625 27.3861 4.76957 28 5.52344 28H8.09375C8.84762 28 9.46094 27.3861 9.46094 26.6315V24.6882H18.5391V26.6315C18.5391 27.3861 19.1524 28 19.9062 28H22.4766C23.2304 28 23.8438 27.3861 23.8438 26.6315V24.6159C24.3836 24.4328 24.7734 23.9212 24.7734 23.3197V4.98143H25.4727L26.3594 5.86895V9.63441C26.3594 10.0879 26.7267 10.4555 27.1797 10.4555C27.6327 10.4555 28 10.0879 28 9.63441V5.52885C28 5.31109 27.9136 5.10223 27.7597 4.94823ZM23.1328 23.046H20.0448L20.3725 22.0183L23.1328 21.5393V23.046ZM9.67739 23.046L9.0393 21.0446C8.94633 20.7531 8.69914 20.5375 8.39787 20.4852L4.86719 19.8726V16.5695C8.33438 17.1763 19.6721 17.1752 23.1328 16.5695V19.8726L19.6021 20.4852C19.3008 20.5375 19.0537 20.753 18.9606 21.0446L18.3226 23.0459L9.67739 23.046ZM4.86719 23.046V21.5393L7.62759 22.0183L7.95528 23.046H4.86719ZM6.78125 1.64221H21.2188C22.2742 1.64221 23.1328 2.50168 23.1328 3.55813V14.8999C20.2393 15.5428 7.7589 15.5424 4.86719 14.8999V3.55819C4.86719 2.50168 5.72584 1.64221 6.78125 1.64221ZM5.79688 26.3578V24.6882H7.82031V26.3578H5.79688ZM20.1797 26.3578V24.6882H22.2031V26.3578H20.1797Z" fill="#C09460"/>
</g>
<defs>
<clipPath id="clip0_77_2200">
<rect width="28" height="28" fill="white"/>
</clipPath>
</defs>
</svg>
