<svg width="38" height="38" viewBox="0 0 38 38" fill="none" xmlns="http://www.w3.org/2000/svg">
<path fill-rule="evenodd" clip-rule="evenodd" d="M26.5371 4.34861L20.3858 13.5921C20.0236 14.1384 20.1721 14.8758 20.7171 15.2392C21.2634 15.6014 22.0008 15.4529 22.3642 14.9079L28.5416 5.62399L33.4186 8.72693C34.4256 9.36819 34.7368 10.6946 34.1216 11.7171L32.9638 13.6373C32.6266 14.1989 32.8071 14.9292 33.3687 15.2665C33.9292 15.6049 34.6608 15.4244 34.998 14.8627L36.1558 12.9437C37.4371 10.8169 36.7876 8.05598 34.694 6.72361L27.056 1.86319C26.0822 1.24331 24.9031 1.0367 23.7773 1.28727C22.6504 1.53783 21.6707 2.22537 21.0508 3.19912L14.4352 13.6135C14.0837 14.1669 14.2476 14.9007 14.801 15.2522C15.3544 15.6037 16.0883 15.4399 16.4398 14.8865L23.0565 4.47331C23.3368 4.03156 23.7821 3.71926 24.2927 3.60526C24.8045 3.49126 25.3389 3.58508 25.7806 3.86651L26.5371 4.34861Z" fill="#C09460"/>
<path fill-rule="evenodd" clip-rule="evenodd" d="M1.1875 11.875V33.25C1.1875 34.1952 1.56275 35.1013 2.23131 35.7687C2.89869 36.4373 3.80475 36.8125 4.75 36.8125H33.25C34.1953 36.8125 35.1013 36.4373 35.7687 35.7687C36.4373 35.1013 36.8125 34.1952 36.8125 33.25C36.8125 32.2703 36.8125 31.0484 36.8125 29.6982C36.8125 29.0427 36.2805 28.5107 35.625 28.5107C34.9695 28.5107 34.4375 29.0427 34.4375 29.6982V33.25C34.4375 33.5647 34.3128 33.8675 34.0896 34.0896C33.8675 34.3128 33.5647 34.4375 33.25 34.4375H4.75C4.43531 34.4375 4.1325 34.3128 3.91044 34.0896C3.68719 33.8675 3.5625 33.5647 3.5625 33.25V15.2344C3.93419 15.3663 4.33319 15.4375 4.75 15.4375H33.25C33.9055 15.4375 34.4375 15.9695 34.4375 16.625V19.0226C34.4375 19.6781 34.9695 20.2101 35.625 20.2101C36.2805 20.2101 36.8125 19.6781 36.8125 19.0226V16.625C36.8125 14.6573 35.2177 13.0625 33.25 13.0625H4.75C4.0945 13.0625 3.5625 12.5305 3.5625 11.875C3.5625 11.5603 3.68719 11.2575 3.91044 11.0354C4.1325 10.8122 4.43531 10.6875 4.75 10.6875H14.25C14.9055 10.6875 15.4375 10.1555 15.4375 9.5C15.4375 8.8445 14.9055 8.3125 14.25 8.3125C9.55225 8.3125 7.866 8.3125 4.75 8.3125C3.80475 8.3125 2.89869 8.68775 2.23131 9.35631C1.56275 10.0237 1.1875 10.9297 1.1875 11.875ZM7.125 32.0625H9.5C10.1555 32.0625 10.6875 31.5305 10.6875 30.875C10.6875 30.2195 10.1555 29.6875 9.5 29.6875H7.125C6.4695 29.6875 5.9375 30.2195 5.9375 30.875C5.9375 31.5305 6.4695 32.0625 7.125 32.0625ZM7.125 28.5H11.875C12.5305 28.5 13.0625 27.968 13.0625 27.3125C13.0625 26.657 12.5305 26.125 11.875 26.125H7.125C6.4695 26.125 5.9375 26.657 5.9375 27.3125C5.9375 27.968 6.4695 28.5 7.125 28.5ZM36.8125 24.9375V23.7215C36.8125 23.066 36.2805 22.534 35.625 22.534C34.9695 22.534 34.4375 23.066 34.4375 23.7215V24.9375C34.4375 25.593 34.9695 26.125 35.625 26.125C36.2805 26.125 36.8125 25.593 36.8125 24.9375Z" fill="#1A4564"/>
</svg>
