<svg height="512" viewBox="0 0 58 58" width="512" xmlns="http://www.w3.org/2000/svg"><g id="Page-1" fill="none" fill-rule="evenodd"><g id="006---Get-Points-Cards" fill-rule="nonzero"><path id="Shape" d="m50 53.76v.24c0 2.209139-1.790861 4-4 4h-42c-2.209139 0-4-1.790861-4-4v-26c0-2.209139 1.790861-4 4-4h3.1l37.48 26 2.88 2z" fill="#285680"/><path id="Shape" d="m47.46 52h-47.46v-2h44.58z" fill="#2c3e50"/><path id="Shape" d="m57.91 25.39-4.54 21.52-.42 1.96-.41 1.96c-.4598115 2.158461-2.5808803 3.5367082-4.74 3.08l-41.09-8.68c-1.03845431-.2185653-1.94749573-.8408287-2.52702673-1.729818s-.78204806-1.9718351-.56297327-3.010182l.41-1.95.42-1.96 4.54-21.53v-.02l24.85 1.19 20.99 4.43c1.0378223.21864 1.9459344.8413839 2.5238187 1.7307254.5778844.8893414.7780077 1.9721287.5561813 3.0092746z" fill="#4482c3"/><path id="Shape" d="m53.37 46.91-.42 1.96-48.92-10.33.42-1.96z" fill="#285680"/><rect id="Rectangle-path" fill="#f29c1f" height="8" rx="2" transform="matrix(-.978 -.207 .207 -.978 87.341 65.552)" width="10" x="42.095" y="24.214"/><g fill="#f3d55b"><path id="Shape" d="m50.128 39.052c-.0699141.000002-.1396333-.0073721-.208-.022l-17.611-3.72c-.5404106-.1143229-.8858229-.6450894-.7715-1.1855s.6450894-.8858229 1.1855-.7715l17.611 3.72c.5022519.1045796.8438921.5722687.7907768 1.0825359-.0531152.5102672-.4837537.8975675-.9967768.8964641z"/><path id="Shape" d="m49.3 42.965c-.0698573-.0001029-.1395319-.0071373-.208-.021l-8.806-1.861c-.5404106-.1143229-.8858229-.6450894-.7715-1.1855s.6450894-.8858229 1.1855-.7715l8.806 1.861c.4999467.106629.8389833.5731474.7860314 1.0815887s-.4808419.8950877-.9920314.8964113z"/><path id="Shape" d="m23.964 1.279 2.95 6.215c.3073523.66748396.9266368 1.13832013 1.652 1.256l6.545.989c.8492688.1689178 1.5369376.7909991 1.7898541 1.619144.2529166.8281449.0301344 1.7282791-.5798541 2.342856l-4.695 4.758c-.5301708.5479136-.7684669 1.315138-.642 2.067l1.116 6.752c.1802884.8371032-.1362581 1.7033388-.8137961 2.2269685-.6775379.5236297-1.5955988.6115503-2.3602039.2260315l-5.916-3.231c-.6291129-.3451092-1.3908871-.3451092-2.02 0l-5.914 3.232c-.7649422.3868921-1.6841795.29949-2.3625018-.2246293s-.9948502-1.3915559-.8134982-2.2293707l1.114-6.752c.1264669-.751862-.1118292-1.5190864-.642-2.067l-4.693-4.759c-.60998848-.6145769-.83277066-1.5147111-.57985413-2.342856s.94058535-1.4502262 1.78985413-1.619144l6.545-.989c.7253632-.11767987 1.3446477-.58851604 1.652-1.256l2.95-6.215c.3443558-.77698928 1.114447-1.2778843 1.9643254-1.27766793.8498784.00021636 1.6197144.50150341 1.9636746 1.27866793z"/></g><path id="Shape" d="m31.629 18.458c-.5315605.5481324-.7725931 1.3153577-.65 2.069l1.12 6.75c.1797377.8385545-.1375518 1.7058605-.8159802 2.2304691s-1.5976648.6134716-2.3640198.2285309l-5.909-3.236c-.6304265-.3399448-1.3895735-.3399448-2.02 0l-5.909 3.239c-.766355.3849407-1.6855914.2960777-2.3640198-.2285309s-.9957179-1.3919146-.8159802-2.2304691l.25-1.49c14.849-8.982 12.539-21.151 11.189-25.32.2639569.22089236.4756971.49752063.62.81l2.949 6.22c.3146297.66386954.9350415 1.13104712 1.66 1.25l6.539.99c.8488754.16839263 1.5364041.7898984 1.7893532 1.6175229.2529492.8276245.0303425 1.7272974-.5793532 2.3414771z" fill="#f0c419"/></g></g></svg>