<svg width="20" height="20" viewBox="0 0 20 20" fill="none" xmlns="http://www.w3.org/2000/svg">
<g clip-path="url(#clip0_75_10421)">
<path fill-rule="evenodd" clip-rule="evenodd" d="M6.60809 19.8477C6.53779 19.8477 6.4792 19.8126 6.43234 19.7657L4.15934 17.2584L1.28881 15.454C1.21851 15.4072 1.18336 15.3369 1.18336 15.2666L1.05448 11.8805L0.0117165 8.64678C-0.0117165 8.57648 0 8.49446 0.0468659 8.43588L2.1324 5.75281L3.40949 2.6128C3.44464 2.5425 3.50322 2.49564 3.57352 2.4722L6.88928 1.7575L9.88869 0.175776C9.95899 0.140627 10.041 0.140627 10.1113 0.175776L13.1107 1.7575L16.4148 2.4722C16.4968 2.49564 16.5554 2.5425 16.5905 2.6128L17.8676 5.75281L19.9414 8.43588C19.9883 8.49446 20.0117 8.57648 19.9883 8.64678L18.9455 11.8688L18.8166 15.2549C18.8166 15.3369 18.7698 15.4072 18.7112 15.454L15.8407 17.2584L13.5677 19.7657C13.5091 19.8243 13.4388 19.8477 13.3568 19.836L9.99414 19.3791L6.60809 19.8477Z" fill="#4CAF50"/>
<path fill-rule="evenodd" clip-rule="evenodd" d="M9.99428 17.1646C6.25673 17.1646 3.21045 14.13 3.21045 10.3808C3.21045 6.6432 6.25673 3.59692 9.99428 3.59692C13.7435 3.59692 16.7781 6.6432 16.7781 10.3808C16.7781 14.13 13.7435 17.1646 9.99428 17.1646Z" fill="white"/>
<path fill-rule="evenodd" clip-rule="evenodd" d="M8.83446 13.3813C8.77587 13.3813 8.71729 13.3578 8.67043 13.311L6.08109 10.7334C5.3078 9.94835 6.49116 8.80014 7.25273 9.56171L8.83446 11.1551L12.7478 7.25357C13.5093 6.48028 14.6693 7.65193 13.9077 8.4135L8.99849 13.311C8.96334 13.3578 8.90476 13.3813 8.83446 13.3813Z" fill="#4CAF50"/>
</g>
<defs>
<clipPath id="clip0_75_10421">
<rect width="20" height="20" fill="white"/>
</clipPath>
</defs>
</svg>
