<svg xmlns="http://www.w3.org/2000/svg" version="1.1" xmlns:xlink="http://www.w3.org/1999/xlink" width="512" height="512" x="0" y="0" viewBox="0 0 512 512" style="enable-background:new 0 0 512 512" xml:space="preserve" class=""><g><path fill="#c09460" d="M416 512H96c-53.023 0-96-42.977-96-96V96C0 42.977 42.977 0 96 0h320c53.023 0 96 42.977 96 96v320c0 53.023-42.977 96-96 96zm0 0" opacity="0.788235294117647" data-original="#ffe6e2" class=""></path><path fill="#ffffff" d="m271.09 256 64.11-64.113c4.16-4.16 4.16-10.91 0-15.086s-10.91-4.16-15.087 0L256 240.91l-64.113-64.11c-4.16-4.16-10.91-4.16-15.086 0s-4.16 10.91 0 15.086L240.91 256l-64.11 64.113c-4.16 4.16-4.16 10.91 0 15.086a10.627 10.627 0 0 0 7.535 3.121c2.734 0 5.457-1.039 7.535-3.12L256 271.09l64.113 64.11c2.078 2.081 4.817 3.12 7.535 3.12s5.457-1.039 7.536-3.12c4.16-4.16 4.16-10.91 0-15.087zm0 0" opacity="1" data-original="#fc573b" class=""></path></g></svg>