<svg width="36" height="36" viewBox="0 0 36 36" fill="none" xmlns="http://www.w3.org/2000/svg">
<path d="M31.5 15.9573V15.75C31.5 8.30621 25.4438 2.25 18 2.25C10.5562 2.25 4.5 8.30621 4.5 15.75V15.9573C3.19331 16.4232 2.25 17.6603 2.25 19.125V21.375C2.25 23.2361 3.76392 24.75 5.625 24.75H6.75C7.37128 24.75 7.875 24.2463 7.875 23.625V16.875C7.875 16.2537 7.37128 15.75 6.75 15.75C6.75 9.54657 11.7966 4.5 18 4.5C24.2034 4.5 29.25 9.54657 29.25 15.75C28.6287 15.75 28.125 16.2537 28.125 16.875V23.625C28.125 24.2463 28.6287 24.75 29.25 24.75H30.375C32.2361 24.75 33.75 23.2361 33.75 21.375V19.125C33.75 17.6603 32.8067 16.4232 31.5 15.9573Z" fill="white"/>
<path d="M28.125 25.875C28.125 28.9764 25.6014 31.5 22.5 31.5H21.375C21.375 30.2591 20.3659 29.25 19.125 29.25H16.875C15.6341 29.25 14.625 30.2591 14.625 31.5C14.625 32.7409 15.6341 33.75 16.875 33.75H22.5C26.8423 33.75 30.375 30.2173 30.375 25.875H28.125Z" fill="#C09460"/>
</svg>
