<svg width="24" height="24" viewBox="0 0 24 24" fill="none" xmlns="http://www.w3.org/2000/svg">
<g clip-path="url(#clip0_77_2074)">
<path fill-rule="evenodd" clip-rule="evenodd" d="M16.7602 2.74655L12.8752 8.58457C12.6464 8.92957 12.7402 9.39531 13.0844 9.62481C13.4294 9.85356 13.8952 9.7598 14.1247 9.41555L18.0262 3.55205L21.1064 5.51181C21.7424 5.91681 21.9389 6.75456 21.5504 7.40031L20.8192 8.61306C20.6062 8.96781 20.7202 9.42905 21.0749 9.64205C21.4289 9.8558 21.8909 9.7418 22.1039 9.38705L22.8352 8.17505C23.6444 6.8318 23.2342 5.08805 21.9119 4.24655L17.0879 1.17681C16.4729 0.785307 15.7282 0.654818 15.0172 0.813068C14.3054 0.971318 13.6867 1.40556 13.2952 2.02056L9.11692 8.59805C8.89492 8.94755 8.99843 9.41105 9.34793 9.63305C9.69743 9.85505 10.1609 9.75156 10.3829 9.40206L14.5619 2.82531C14.7389 2.54631 15.0202 2.34906 15.3427 2.27706C15.6659 2.20506 16.0034 2.26432 16.2824 2.44207L16.7602 2.74655Z" fill="#C09460"/>
<path fill-rule="evenodd" clip-rule="evenodd" d="M0.75 7.5V21C0.75 21.597 0.987001 22.1693 1.40925 22.5908C1.83075 23.013 2.403 23.25 3 23.25H21C21.597 23.25 22.1693 23.013 22.5908 22.5908C23.013 22.1693 23.25 21.597 23.25 21C23.25 20.3813 23.25 19.6095 23.25 18.7568C23.25 18.3428 22.914 18.0068 22.5 18.0068C22.086 18.0068 21.75 18.3428 21.75 18.7568V21C21.75 21.1987 21.6713 21.39 21.5303 21.5303C21.39 21.6713 21.1987 21.75 21 21.75H3C2.80125 21.75 2.61 21.6713 2.46975 21.5303C2.32875 21.39 2.25 21.1987 2.25 21V9.62176C2.48475 9.70501 2.73675 9.75 3 9.75H21C21.414 9.75 21.75 10.086 21.75 10.5V12.0143C21.75 12.4283 22.086 12.7643 22.5 12.7643C22.914 12.7643 23.25 12.4283 23.25 12.0143V10.5C23.25 9.25725 22.2428 8.25 21 8.25H3C2.586 8.25 2.25 7.914 2.25 7.5C2.25 7.30125 2.32875 7.11 2.46975 6.96975C2.61 6.82875 2.80125 6.75 3 6.75H9C9.414 6.75 9.75 6.414 9.75 6C9.75 5.586 9.414 5.25 9 5.25C6.033 5.25 4.968 5.25 3 5.25C2.403 5.25 1.83075 5.487 1.40925 5.90925C0.987001 6.33075 0.75 6.903 0.75 7.5ZM4.5 20.25H6C6.414 20.25 6.75 19.914 6.75 19.5C6.75 19.086 6.414 18.75 6 18.75H4.5C4.086 18.75 3.75 19.086 3.75 19.5C3.75 19.914 4.086 20.25 4.5 20.25ZM4.5 18H7.5C7.914 18 8.25 17.664 8.25 17.25C8.25 16.836 7.914 16.5 7.5 16.5H4.5C4.086 16.5 3.75 16.836 3.75 17.25C3.75 17.664 4.086 18 4.5 18ZM23.25 15.75V14.982C23.25 14.568 22.914 14.232 22.5 14.232C22.086 14.232 21.75 14.568 21.75 14.982V15.75C21.75 16.164 22.086 16.5 22.5 16.5C22.914 16.5 23.25 16.164 23.25 15.75Z" fill="#1A4564"/>
</g>
<defs>
<clipPath id="clip0_77_2074">
<rect width="24" height="24" fill="white"/>
</clipPath>
</defs>
</svg>
