<svg width="24" height="25" viewBox="0 0 24 25" fill="none" xmlns="http://www.w3.org/2000/svg">
<g opacity="0.3">
<path d="M20.0925 3.6875H17.4525V3.3125C17.4525 3.11359 17.3735 2.92282 17.2328 2.78217C17.0922 2.64152 16.9014 2.5625 16.7025 2.5625C16.5036 2.5625 16.3128 2.64152 16.1722 2.78217C16.0315 2.92282 15.9525 3.11359 15.9525 3.3125V3.6875H8.0475V3.3125C8.0475 3.11359 7.96848 2.92282 7.82783 2.78217C7.68718 2.64152 7.49641 2.5625 7.2975 2.5625C7.09859 2.5625 6.90782 2.64152 6.76717 2.78217C6.62652 2.92282 6.5475 3.11359 6.5475 3.3125V3.6875H3.9075C3.07069 3.68948 2.26872 4.02278 1.677 4.6145C1.08528 5.20622 0.751981 6.00819 0.75 6.845V20C0.751981 20.8368 1.08528 21.6388 1.677 22.2305C2.26872 22.8222 3.07069 23.1555 3.9075 23.1575H20.0925C20.9293 23.1555 21.7313 22.8222 22.323 22.2305C22.9147 21.6388 23.248 20.8368 23.25 20V6.845C23.248 6.00819 22.9147 5.20622 22.323 4.6145C21.7313 4.02278 20.9293 3.68948 20.0925 3.6875ZM3.9075 5.1875H6.5475V5.5625C6.5475 5.76141 6.62652 5.95218 6.76717 6.09283C6.90782 6.23348 7.09859 6.3125 7.2975 6.3125C7.49641 6.3125 7.68718 6.23348 7.82783 6.09283C7.96848 5.95218 8.0475 5.76141 8.0475 5.5625V5.1875H15.9525V5.5625C15.9525 5.76141 16.0315 5.95218 16.1722 6.09283C16.3128 6.23348 16.5036 6.3125 16.7025 6.3125C16.9014 6.3125 17.0922 6.23348 17.2328 6.09283C17.3735 5.95218 17.4525 5.76141 17.4525 5.5625V5.1875H20.0925C20.5321 5.1875 20.9537 5.36213 21.2645 5.67297C21.5754 5.98381 21.75 6.4054 21.75 6.845V8.6225H2.25V6.845C2.25 6.4054 2.42463 5.98381 2.73547 5.67297C3.04631 5.36213 3.4679 5.1875 3.9075 5.1875ZM20.0925 21.6875H3.9075C3.68729 21.6875 3.46927 21.6437 3.2662 21.5585C3.06312 21.4734 2.87905 21.3486 2.72474 21.1915C2.57042 21.0344 2.44896 20.8481 2.36745 20.6435C2.28594 20.4389 2.24601 20.2202 2.25 20V10.1225H21.75V20C21.754 20.2202 21.7141 20.4389 21.6325 20.6435C21.551 20.8481 21.4296 21.0344 21.2753 21.1915C21.121 21.3486 20.9369 21.4734 20.7338 21.5585C20.5307 21.6437 20.3127 21.6875 20.0925 21.6875Z" fill="white"/>
</g>
</svg>
