<svg xmlns="http://www.w3.org/2000/svg" version="1.1" xmlns:xlink="http://www.w3.org/1999/xlink" width="512" height="512" x="0" y="0" viewBox="0 0 682.667 682.667" style="enable-background:new 0 0 512 512" xml:space="preserve"><g><defs><clipPath id="a" clipPathUnits="userSpaceOnUse"><path d="M0 512h512V0H0Z" fill="#131518" opacity="1" data-original="#000000"></path></clipPath></defs><g clip-path="url(#a)" transform="matrix(1.33333 0 0 -1.33333 0 682.667)"><path d="M0 0h-196.667m118-78.667L0 0l-78.667 78.667M94.48 200.853l8.373-8.373A119.997 119.997 0 0 0 138 107.628v-215.256a119.997 119.997 0 0 0-35.147-84.852l-8.373-8.373A119.997 119.997 0 0 0 9.628-236h-215.256a119.997 119.997 0 0 0-84.852 35.147l-8.373 8.373A119.997 119.997 0 0 0-334-107.628v215.256a119.997 119.997 0 0 0 35.147 84.852l8.373 8.373A119.997 119.997 0 0 0-205.628 236H9.628a119.997 119.997 0 0 0 84.852-35.147z" style="stroke-width:40;stroke-linecap:round;stroke-linejoin:round;stroke-miterlimit:10;stroke-dasharray:none;stroke-opacity:1" transform="translate(354 256)" fill="none" stroke="#131518" stroke-width="40" stroke-linecap="round" stroke-linejoin="round" stroke-miterlimit="10" stroke-dasharray="none" stroke-opacity="" data-original="#000000" opacity="1"></path></g></g></svg>