<svg width="54" height="54" viewBox="0 0 54 54" fill="none" xmlns="http://www.w3.org/2000/svg">
<path fill-rule="evenodd" clip-rule="evenodd" d="M18.5625 3.375C19.4945 3.375 20.25 4.13053 20.25 5.0625V6.75H28.6875C29.6195 6.75 30.375 7.50553 30.375 8.4375C30.375 9.36947 29.6195 10.125 28.6875 10.125H20.25V11.8125C20.25 12.7445 19.4945 13.5 18.5625 13.5C17.6305 13.5 16.875 12.7445 16.875 11.8125V10.125H13.5C9.77208 10.125 6.75 13.1471 6.75 16.875V40.5C6.75 44.2279 9.77208 47.25 13.5 47.25H23.625C24.557 47.25 25.3125 48.0055 25.3125 48.9375C25.3125 49.8695 24.557 50.625 23.625 50.625H13.5C7.90811 50.625 3.375 46.0919 3.375 40.5V16.875C3.375 11.2831 7.90811 6.75 13.5 6.75H16.875V5.0625C16.875 4.13053 17.6305 3.375 18.5625 3.375ZM35.4375 3.375C36.3695 3.375 37.125 4.13053 37.125 5.0625V6.75H40.5C46.0919 6.75 50.625 11.2831 50.625 16.875V23.625C50.625 24.557 49.8695 25.3125 48.9375 25.3125C48.0055 25.3125 47.25 24.557 47.25 23.625V16.875C47.25 13.1471 44.2279 10.125 40.5 10.125H37.125V11.8125C37.125 12.7445 36.3695 13.5 35.4375 13.5C34.5055 13.5 33.75 12.7445 33.75 11.8125V5.0625C33.75 4.13053 34.5055 3.375 35.4375 3.375ZM13.5 18.5625C12.568 18.5625 11.8125 19.318 11.8125 20.25C11.8125 21.182 12.568 21.9375 13.5 21.9375H40.5C41.432 21.9375 42.1875 21.182 42.1875 20.25C42.1875 19.318 41.432 18.5625 40.5 18.5625H13.5ZM43.3807 38.3182L39.162 42.537C38.503 43.1959 37.4345 43.1959 36.7755 42.537L34.2443 40.0057C33.5853 39.3468 33.5853 38.2782 34.2443 37.6193C34.9032 36.9603 35.9718 36.9603 36.6307 37.6193L37.9688 38.9573L40.9943 35.9318C41.6532 35.2728 42.7218 35.2728 43.3807 35.9318C44.0397 36.5907 44.0397 37.6593 43.3807 38.3182ZM16.875 29.5312C16.875 30.9292 15.7417 32.0625 14.3438 32.0625C12.9458 32.0625 11.8125 30.9292 11.8125 29.5312C11.8125 28.1333 12.9458 27 14.3438 27C15.7417 27 16.875 28.1333 16.875 29.5312ZM14.3438 42.1875C15.7417 42.1875 16.875 41.0542 16.875 39.6562C16.875 38.2583 15.7417 37.125 14.3438 37.125C12.9458 37.125 11.8125 38.2583 11.8125 39.6562C11.8125 41.0542 12.9458 42.1875 14.3438 42.1875ZM30.375 38.8125C30.375 34.1526 34.1526 30.375 38.8125 30.375C43.4724 30.375 47.25 34.1526 47.25 38.8125C47.25 43.4724 43.4724 47.25 38.8125 47.25C34.1526 47.25 30.375 43.4724 30.375 38.8125ZM38.8125 27C32.2886 27 27 32.2886 27 38.8125C27 45.3364 32.2886 50.625 38.8125 50.625C45.3364 50.625 50.625 45.3364 50.625 38.8125C50.625 32.2886 45.3364 27 38.8125 27Z" fill="#1A4564"/>
</svg>
