<svg width="54" height="54" viewBox="0 0 54 54" fill="none" xmlns="http://www.w3.org/2000/svg">
<g clip-path="url(#clip0_16_91)">
<path d="M52.8007 24.9629L47.6619 17.836C45.932 15.4363 42.235 13.5565 39.2454 13.5565H14.7546C11.765 13.5565 8.06801 15.4362 6.33781 17.8359L1.19898 24.9632C-0.696286 27.5923 -0.282113 31.5106 2.12224 33.6978L22.6191 52.3438C23.7916 53.4104 25.3451 53.9982 26.9936 53.9997C26.9957 53.9997 26.9979 53.9999 27 53.9999C27.0023 53.9999 27.0044 53.9997 27.0067 53.9997C28.6551 53.9981 30.2081 53.4103 31.3807 52.3437L51.8778 33.6977C54.2823 31.5105 54.6962 27.5922 52.8007 24.9629ZM45.0953 19.6865L50.2343 26.8135C50.3173 26.9287 50.3909 27.0496 50.4566 27.1746H37.5564L34.9547 16.7206H39.2456C41.2228 16.7206 43.9563 18.1065 45.0953 19.6865ZM27.0001 48.1013L20.0034 30.3387H33.9964L27.0001 48.1013ZM22.3057 16.7206H31.6942L34.2958 27.1746H19.7039L22.3057 16.7206ZM8.90437 19.6865C10.0435 18.1066 12.7773 16.7206 14.7547 16.7206H19.0452L16.4434 27.1746H3.54332C3.60892 27.0496 3.68254 26.9288 3.76554 26.8135L8.90437 19.6865ZM4.25144 31.3574C3.93682 31.0711 3.68845 30.722 3.50862 30.3387H16.6028L24.1254 49.4367L4.25144 31.3574ZM49.7486 31.3574L29.8747 49.4364L37.3969 30.3385H50.4914C50.3116 30.7219 50.0633 31.0711 49.7486 31.3574Z" fill="#1A4564"/>
<path d="M26.9999 9.94253C27.8736 9.94253 28.5819 9.2342 28.5819 8.3605V1.58234C28.5819 0.708633 27.8736 0.000305176 26.9999 0.000305176C26.1262 0.000305176 25.4178 0.708633 25.4178 1.58234V8.3605C25.4178 9.2342 26.1262 9.94253 26.9999 9.94253Z" fill="#C09460"/>
<path d="M36.4595 9.77546C36.6865 9.88905 36.928 9.94284 37.1657 9.94284C37.746 9.94284 38.3047 9.62232 38.5819 9.06798L41.9709 2.28982C42.3617 1.50829 42.045 0.558127 41.2635 0.167259C40.482 -0.223502 39.5317 0.0932204 39.141 0.874849L35.752 7.65301C35.3612 8.43453 35.6779 9.3847 36.4595 9.77546Z" fill="#C09460"/>
<path d="M15.4176 9.06797C15.6948 9.62242 16.2535 9.94284 16.8339 9.94284C17.0716 9.94284 17.313 9.88905 17.5401 9.77546C18.3216 9.3847 18.6383 8.43442 18.2476 7.6529L14.8586 0.874845C14.4679 0.0933216 13.5178 -0.223401 12.7362 0.167255C11.9547 0.558017 11.638 1.50829 12.0287 2.28981L15.4176 9.06797Z" fill="#C09460"/>
</g>
<defs>
<clipPath id="clip0_16_91">
<rect width="54" height="54" fill="white"/>
</clipPath>
</defs>
</svg>
