<svg width="32" height="32" viewBox="0 0 32 32" fill="none" xmlns="http://www.w3.org/2000/svg">
<g clip-path="url(#clip0_75_10595)">
<path d="M32 9.38082V30.7409C32 31.4309 31.4408 31.9901 30.7508 31.9901C30.0609 31.9901 29.5017 31.4309 29.5017 30.7409V9.38082C29.5017 8.00338 28.3812 6.88264 27.004 6.88252L22.5689 6.88221C20.5931 6.88221 18.031 8.29312 16.9674 9.55938C16.7329 9.83857 16.3881 10.0013 16.0235 10.005C15.6593 10.0066 15.3109 9.85287 15.0708 9.57849C13.955 8.30324 11.3733 6.88221 9.45293 6.88221L5.01795 6.88252C3.6407 6.88264 2.52015 8.00338 2.52015 9.38082V12.8212C2.52015 17.0451 5.33317 20.1413 9.20984 20.1856C12.9875 20.2399 12.8631 18.4358 16.011 18.3126C17.3507 18.3127 18.2021 18.787 18.9533 19.2055C20.3764 20.1815 23.4984 20.6692 25.6351 19.5044C27.1371 18.8209 28.2063 20.9464 26.748 21.7412C23.8286 23.3327 19.6585 22.68 17.7374 21.3879C16.4868 20.6147 15.534 20.6158 14.2845 21.388C11.1555 23.4064 5.44366 23.1968 2.52858 19.7195C-0.197434 16.6808 -0.030485 13.3044 0.0219168 9.38075C0.0217919 6.62594 2.26295 4.38447 5.01764 4.38416L9.45286 4.38385C10.7304 4.38385 12.1098 4.77352 13.3738 5.36562C12.0423 3.62711 9.9805 2.50956 7.76564 2.50806C7.07573 2.50756 6.51687 1.94794 6.51736 1.25804C6.5178 0.568135 7.07761 0.00920393 7.76739 0.00976605C10.0055 0.011265 12.1982 0.839388 13.9417 2.34143C14.778 3.062 15.484 3.91398 16.0358 4.85378C16.5874 3.91404 17.2935 3.062 18.1298 2.34143C19.8733 0.839388 22.066 0.0113275 24.3041 0.00976605C24.994 0.00926639 25.5536 0.568135 25.5541 1.25804C25.5546 1.94788 24.9958 2.50756 24.3059 2.50806C22.12 2.50956 20.0833 3.59832 18.7505 5.29797C19.9749 4.74398 21.3102 4.38379 22.569 4.38379L27.0043 4.3841C29.7589 4.38447 32 6.62594 32 9.38082ZM9.23264 17.6873C6.57764 17.6953 4.97648 15.3642 5.01845 12.8212C5.01839 10.9241 6.56177 9.38069 8.45879 9.38057L9.4528 9.3805C11.649 9.45277 12.6589 10.645 13.5559 11.6232C14.8597 12.9301 14.5975 15.2639 13.0356 16.2486C11.8063 17.0487 11.0791 17.7323 9.23264 17.6873ZM9.45286 11.8788L8.45892 11.8789C7.9394 11.8789 7.51668 12.3016 7.51668 12.8212C7.51668 13.3687 7.64141 15.1544 9.24313 15.1889C10.0152 15.1869 10.0765 15.1527 10.6368 14.8406C10.7826 14.7593 10.9821 14.6229 11.2131 14.4649C11.3473 14.373 11.4995 14.2689 11.66 14.1631C11.8414 14.0434 11.8859 13.8706 11.8963 13.7783C11.9066 13.686 11.9016 13.5079 11.7515 13.3512C11.6061 13.1994 11.4578 13.0371 11.3105 12.8688C10.987 12.4991 10.3155 11.8788 9.45286 11.8788ZM22.7892 17.6873C20.9458 17.7329 20.2117 17.0495 18.9862 16.2486C17.4249 15.2639 17.1616 12.9301 18.4659 11.6232C19.3601 10.6443 20.3748 9.45258 22.569 9.38044C22.569 9.3805 23.563 9.38057 23.563 9.38057C25.4601 9.38069 27.0034 10.9241 27.0034 12.8212C27.0454 15.3637 25.4442 17.6958 22.7892 17.6873ZM22.5689 11.8788C21.7063 11.8788 21.0348 12.4991 20.7113 12.8688C20.564 13.0371 20.4156 13.1994 20.2702 13.3512C20.1202 13.5079 20.1152 13.6861 20.1255 13.7783C20.136 13.8707 20.1804 14.0435 20.3619 14.1632C20.5223 14.269 21.2391 14.7594 21.3849 14.8407C21.9453 15.1528 22.0066 15.187 22.7787 15.189C24.3804 15.1545 24.5051 13.3688 24.5051 12.8213C24.5051 12.3017 24.0824 11.879 23.5629 11.879L22.5689 11.8788Z" fill="#1A4564"/>
</g>
<defs>
<clipPath id="clip0_75_10595">
<rect width="32" height="32" fill="white"/>
</clipPath>
</defs>
</svg>
