<svg width="24" height="24" viewBox="0 0 24 24" fill="none" xmlns="http://www.w3.org/2000/svg">
<path d="M18.6546 11.3035C17.3945 11.3035 16.3757 12.3273 16.3757 13.5824C16.3757 13.8826 16.6218 14.1287 16.922 14.1287C17.2223 14.1287 17.4684 13.8826 17.4684 13.5824C17.4684 12.9277 18.0049 12.3912 18.6595 12.3912C18.9598 12.3912 19.2059 12.1451 19.2059 11.8449C19.2009 11.5446 18.9548 11.3035 18.6546 11.3035Z" fill="#C09460"/>
<path d="M22.3707 9.73333C22.2379 9.60535 22.0951 9.4823 21.9475 9.36417L19.9294 7.6513C19.1517 7.10003 18.2264 6.75056 17.2223 6.68165L17.3306 6.78994L16.105 5.55942H16.0951C15.7555 5.24933 15.2978 5.05737 14.8006 5.05737C13.9442 5.05737 13.2206 5.61357 12.9745 6.38633C12.7284 6.22882 12.443 6.1353 12.1329 6.11562C12.0836 6.11069 12.0295 6.11069 11.9803 6.11069C11.6308 6.11069 11.306 6.21406 11.0303 6.38633C10.7793 5.61849 10.0558 5.0623 9.20425 5.0623C8.70712 5.0623 8.25429 5.24933 7.90975 5.56435H7.8999L6.67431 6.79486L6.78259 6.68657C5.77849 6.75548 4.84823 7.10987 4.07546 7.65622L2.05742 9.3691C1.90976 9.4823 1.76702 9.60535 1.63412 9.73825C0.625101 10.7128 0 12.0762 0 13.5873C0 16.5405 2.40196 18.9425 5.3552 18.9425C8.08202 18.9425 10.3412 16.89 10.6661 14.2469C11.0599 14.4733 11.5176 14.6012 12 14.6012C12.4873 14.6012 12.9401 14.4733 13.3339 14.2469C13.6636 16.8851 15.9179 18.9376 18.6448 18.9376C21.598 18.9376 24 16.5356 24 13.5824C24.0049 12.0713 23.3798 10.7079 22.3707 9.73333ZM5.3552 17.2395C3.33715 17.2395 1.70303 15.6053 1.70303 13.5873C1.70303 11.5693 3.33715 9.93513 5.3552 9.93513C7.37324 9.93513 9.00736 11.5693 9.00736 13.5873C9.01229 15.6004 7.37324 17.2395 5.3552 17.2395ZM12.0049 13.0852C11.3503 13.0852 10.8187 12.5537 10.8187 11.899C10.8187 11.2444 11.3503 10.7128 12.0049 10.7128C12.6595 10.7128 13.1911 11.2444 13.1911 11.899C13.1911 12.5537 12.6595 13.0852 12.0049 13.0852ZM18.6546 17.2395C16.6366 17.2395 15.0024 15.6053 15.0024 13.5873C15.0024 11.5693 16.6366 9.93513 18.6546 9.93513C20.6726 9.93513 22.3068 11.5693 22.3068 13.5873C22.3068 15.6004 20.6726 17.2395 18.6546 17.2395Z" fill="#C09460"/>
<path d="M5.35521 11.3035C4.09516 11.3035 3.07629 12.3273 3.07629 13.5824C3.07629 13.8826 3.3224 14.1287 3.62264 14.1287C3.92289 14.1287 4.16899 13.8826 4.16899 13.5824C4.16899 12.9277 4.70549 12.3912 5.36013 12.3912C5.66037 12.3912 5.90648 12.1451 5.90648 11.8449C5.90155 11.5446 5.65545 11.3035 5.35521 11.3035Z" fill="#C09460"/>
</svg>
