<svg width="24" height="24" viewBox="0 0 24 24" fill="none" xmlns="http://www.w3.org/2000/svg">
<g clip-path="url(#clip0_75_9678)">
<path d="M0.703125 4.26562C0.314812 4.26562 0 4.58044 0 4.96875V19.0781C0 19.4664 0.314812 19.7812 0.703125 19.7812C1.86811 19.7812 2.8125 18.8369 2.8125 17.6719V6.375C2.8125 5.21002 1.86811 4.26562 0.703125 4.26562Z" fill="#0D1B4E"/>
<path d="M18.375 16.9688V18.375C18.375 18.7633 18.6898 19.0781 19.0781 19.0781H23.2969C23.6852 19.0781 24 18.7633 24 18.375V16.9688H18.375Z" fill="#0D1B4E"/>
<path d="M18.375 9.23438H15.1239C14.6593 8.71861 14.0737 8.32373 13.4062 8.08645V4.21875H15.3378C15.4785 4.31048 15.9578 4.92188 16.9219 4.92188C18.085 4.92188 19.0312 3.97566 19.0312 2.8125C19.0312 1.64934 18.085 0.703125 16.9219 0.703125C15.9566 0.703125 15.4787 1.31433 15.3378 1.40625H13.4928L13.3266 0.937969C13.1275 0.376969 12.5947 0 12 0C11.4053 0 10.8725 0.376969 10.6734 0.937969L10.5072 1.40625H8.66222C8.52155 1.31452 8.04225 0.703125 7.07812 0.703125C5.91497 0.703125 4.96875 1.64934 4.96875 2.8125C4.96875 3.97566 5.91497 4.92188 7.07812 4.92188C8.04338 4.92188 8.52127 4.31067 8.66222 4.21875H10.5938V8.08645C9.92634 8.32369 9.34069 8.71861 8.87611 9.23438H4.21875V14.8594H8.86341H8.87611C9.64833 15.7166 10.7555 16.2656 12 16.2656C13.2445 16.2656 14.3517 15.7166 15.1239 14.8594H15.1366H16.9688C17.4836 14.8594 17.9145 15.1497 18.1595 15.5625H24V14.8594C24 11.7527 21.4816 9.23438 18.375 9.23438Z" fill="#0D1B4E"/>
<path d="M22.4846 22.0499L21.7965 20.8461C21.6716 20.6271 21.4388 20.4918 21.1868 20.4918H21.1861C20.9341 20.4918 20.702 20.6264 20.5763 20.8447L19.8883 22.0532C19.8176 22.2263 19.7812 22.4083 19.7812 22.5937C19.7812 23.3689 20.4123 23.9999 21.1875 23.9999C21.9627 23.9999 22.5938 23.3689 22.5938 22.5937C22.5938 22.4175 22.572 22.2029 22.4846 22.0499Z" fill="#0D1B4E"/>
</g>
<defs>
<clipPath id="clip0_75_9678">
<rect width="24" height="24" fill="white"/>
</clipPath>
</defs>
</svg>
