<svg width="54" height="54" viewBox="0 0 54 54" fill="none" xmlns="http://www.w3.org/2000/svg">
<g clip-path="url(#clip0_16_87)">
<path d="M46.4885 49.1153C44.867 49.9261 43.4678 50.6248 40.4883 50.6248C37.5073 50.6248 36.1081 49.9245 34.4866 49.1153C32.7365 48.2402 30.7523 47.2499 26.9769 47.2499C23.2064 47.2499 21.2239 48.2419 19.4771 49.1153C17.8589 49.9261 16.4614 50.6248 13.4869 50.6248C10.514 50.6248 9.11664 49.9261 7.49829 49.1153C5.7515 48.2419 3.77065 47.2499 0.00012207 47.2499V50.6248C2.97299 50.6248 4.3704 51.3236 5.98875 52.1344C7.73554 53.0078 9.71639 53.9998 13.4869 53.9998C17.2574 53.9998 19.2399 53.0078 20.9867 52.1344C22.6049 51.3236 24.0024 50.6248 26.9769 50.6248C29.9564 50.6248 31.3555 51.3236 32.9771 52.1344C34.7272 53.0095 36.7113 53.9998 40.4883 53.9998C44.2638 53.9998 46.2478 53.0094 47.998 52.1344C49.6196 51.3252 51.0187 50.6248 53.9998 50.6248V47.2499C50.2228 47.2499 48.2386 48.2403 46.4885 49.1153Z" fill="#C09460"/>
<path d="M1.68769 30.3749H6.75012V45.3821C6.99958 45.5022 7.26113 45.6218 7.49827 45.7403C8.34429 46.1643 9.14308 46.5505 10.1251 46.8292V28.6873C10.1251 27.7546 9.3703 26.9998 8.43759 26.9998H5.58346L27 4.15448L48.4166 26.9998H45.5624C44.6297 26.9998 43.8749 27.7546 43.8749 28.6873V46.8251C44.8511 46.5466 45.6454 46.1616 46.4886 45.7401C46.7298 45.6194 46.9957 45.4981 47.25 45.3759V30.3749H52.3124C52.9848 30.3749 53.5929 29.9761 53.8615 29.3581C54.1284 28.7418 54.0032 28.0233 53.5435 27.5339L47.25 20.8208V3.37507H37.125V10.0208L28.231 0.534061C27.9107 0.192323 27.4538 -0.000446992 26.9973 0.000123332C26.5425 0.000693656 26.0881 0.193577 25.7689 0.534061L0.456706 27.5339C-0.00308926 28.0233 -0.128332 28.7418 0.138693 29.3581C0.407202 29.9761 1.0154 30.3749 1.68769 30.3749ZM40.5 6.75002H43.8749V17.2208L40.5 13.6209V6.75002Z" fill="#1A4564"/>
</g>
<defs>
<clipPath id="clip0_16_87">
<rect width="54" height="54" fill="white"/>
</clipPath>
</defs>
</svg>
