<svg width="54" height="54" viewBox="0 0 54 54" fill="none" xmlns="http://www.w3.org/2000/svg">
<g clip-path="url(#clip0_16_89)">
<path d="M52.418 41.2383C51.5435 41.2383 50.8359 41.9459 50.8359 42.8203V44.4023H41.2383V42.8203C41.2383 41.9459 40.5307 41.2383 39.6562 41.2383C38.7818 41.2383 38.0742 41.9459 38.0742 42.8203V44.4023H28.582V42.8203C28.582 41.9459 27.8744 41.2383 27 41.2383C26.1256 41.2383 25.418 41.9459 25.418 42.8203V44.4023H15.9258V42.8203C15.9258 41.9459 15.2182 41.2383 14.3438 41.2383C13.4693 41.2383 12.7617 41.9459 12.7617 42.8203V44.4023H3.16406V42.8203C3.16406 41.9459 2.45647 41.2383 1.58203 41.2383C0.70759 41.2383 0 41.9459 0 42.8203V52.418C0 53.2924 0.70759 54 1.58203 54H52.418C53.2924 54 54 53.2924 54 52.418V42.8203C54 41.9459 53.2924 41.2383 52.418 41.2383ZM12.7617 50.8359H3.16406V47.5664H12.7617V50.8359ZM25.418 50.8359H15.9258V47.5664H25.418V50.8359ZM38.0742 50.8359H28.582V47.5664H38.0742V50.8359ZM50.8359 50.8359H41.2383V47.5664H50.8359V50.8359Z" fill="#1A4564"/>
<path d="M6.43359 12.7617C9.92366 12.7617 12.7617 9.92366 12.7617 6.43359C12.7617 2.94353 9.92366 0 6.43359 0C2.94353 0 0 2.94353 0 6.43359C0 9.92366 2.94353 12.7617 6.43359 12.7617Z" fill="#C09460"/>
<path d="M54 27C54 24.9199 52.6462 23.1678 50.7804 22.5281C50.789 22.4331 50.8359 22.351 50.8359 22.2539C50.8359 20.5097 49.4161 19.0898 47.6719 19.0898C45.9276 19.0898 44.5078 20.5097 44.5078 22.2539C44.5078 22.351 44.5547 22.4331 44.5634 22.5281C42.6975 23.1678 41.2383 24.9199 41.2383 27C41.2383 29.6171 43.4727 31.7461 46.0898 31.7461V34.9102H28.582V31.7461C31.1991 31.7461 33.3281 29.6171 33.3281 27C33.3281 24.9199 31.9743 23.1678 30.1085 22.5281C30.1171 22.4331 30.1641 22.351 30.1641 22.2539C30.1641 20.5097 28.7442 19.0898 27 19.0898C25.2558 19.0898 23.8359 20.5097 23.8359 22.2539C23.8359 22.351 23.8829 22.4331 23.8915 22.5281C22.0257 23.1678 20.6719 24.9199 20.6719 27C20.6719 29.6171 22.8009 31.7461 25.418 31.7461V34.9102H8.01562V31.7461C10.6327 31.7461 12.7617 29.6171 12.7617 27C12.7617 24.9199 11.4079 23.1678 9.54207 22.5281C9.55072 22.4331 9.59766 22.351 9.59766 22.2539C9.59766 20.5097 8.17784 19.0898 6.43359 19.0898C4.68935 19.0898 3.16406 20.5097 3.16406 22.2539C3.16406 22.351 3.211 22.4331 3.21964 22.5281C1.3538 23.1678 0 24.9199 0 27C0 29.6171 2.23446 31.7461 4.85156 31.7461V34.9102H1.58203C0.70759 34.9102 0 35.6177 0 36.4922C0 37.3666 0.70759 38.0742 1.58203 38.0742H52.418C53.2924 38.0742 54 37.3666 54 36.4922C54 35.6177 53.2924 34.9102 52.418 34.9102H49.2539V31.7461C51.871 31.7461 54 29.6171 54 27Z" fill="#1A4564"/>
<path d="M11.1892 18.1071C11.7939 18.7996 12.262 19.6148 12.5208 20.522C14.1845 21.6732 15.3188 23.4325 15.73 25.418H17.7036C18.1147 23.4325 19.2491 21.6732 20.9128 20.522C21.1716 19.6148 21.6397 18.7996 22.2443 18.1071C21.6678 17.2342 20.8345 16.5461 19.8251 16.2C19.8337 16.105 19.8807 16.0229 19.8807 15.9258C19.8807 14.1815 18.4609 12.7617 16.7166 12.7617C14.9724 12.7617 13.5526 14.1815 13.5526 15.9258C13.5526 16.0229 13.5995 16.105 13.6081 16.2C12.5989 16.546 11.7656 17.2341 11.1892 18.1071Z" fill="#C09460"/>
<path d="M31.7556 18.1071C32.3603 18.7996 32.8284 19.6148 33.0872 20.522C34.7509 21.6732 35.8852 23.4325 36.2964 25.418H38.27C38.6811 23.4325 39.8155 21.6732 41.4792 20.522C41.738 19.6148 42.2061 18.7996 42.8107 18.1071C42.2343 17.2342 41.4009 16.5461 40.3915 16.2C40.4002 16.105 40.4471 16.0229 40.4471 15.9258C40.4471 14.1815 39.0273 12.7617 37.283 12.7617C35.5388 12.7617 34.119 14.1815 34.119 15.9258C34.119 16.0229 34.1659 16.105 34.1745 16.2C33.1653 16.546 32.332 17.2341 31.7556 18.1071Z" fill="#C09460"/>
</g>
<defs>
<clipPath id="clip0_16_89">
<rect width="54" height="54" fill="white"/>
</clipPath>
</defs>
</svg>
