<svg width="20" height="20" viewBox="0 0 20 20" fill="none" xmlns="http://www.w3.org/2000/svg">
<path fill-rule="evenodd" clip-rule="evenodd" d="M3.62508 1.66675C2.56484 1.66675 1.66675 2.56485 1.66675 3.62508V7.37508C1.66675 8.43534 2.56484 9.33342 3.62508 9.33342H7.37508C8.43536 9.33342 9.33344 8.43534 9.33344 7.37508V3.62508C9.33344 2.56485 8.43536 1.66675 7.37508 1.66675H3.62508ZM3.33341 3.62508C3.33341 3.48532 3.48531 3.33342 3.62508 3.33342H7.37508C7.51485 3.33342 7.66675 3.48532 7.66675 3.62508V7.37508C7.66675 7.51485 7.51485 7.66675 7.37508 7.66675H3.62508C3.48531 7.66675 3.33341 7.51485 3.33341 7.37508V3.62508Z" fill="#C09460"/>
<path fill-rule="evenodd" clip-rule="evenodd" d="M12.6251 1.66675C11.5648 1.66675 10.6667 2.56485 10.6667 3.62508V7.37508C10.6667 8.43534 11.5648 9.33342 12.6251 9.33342H16.3751C17.4353 9.33342 18.3334 8.43534 18.3334 7.37508V3.62508C18.3334 2.56485 17.4353 1.66675 16.3751 1.66675H12.6251ZM12.3334 3.62508C12.3334 3.48532 12.4853 3.33342 12.6251 3.33342H16.3751C16.5148 3.33342 16.6667 3.48532 16.6667 3.62508V7.37508C16.6667 7.51485 16.5148 7.66675 16.3751 7.66675H12.6251C12.4853 7.66675 12.3334 7.51485 12.3334 7.37508V3.62508Z" fill="#C09460"/>
<path fill-rule="evenodd" clip-rule="evenodd" d="M1.66675 12.6249C1.66675 11.5647 2.56484 10.6666 3.62508 10.6666H7.37508C8.43536 10.6666 9.33344 11.5647 9.33344 12.6249V16.3749C9.33344 17.4352 8.43536 18.3333 7.37508 18.3333H3.62508C2.56484 18.3333 1.66675 17.4352 1.66675 16.3749V12.6249ZM3.62508 12.3333C3.48531 12.3333 3.33341 12.4852 3.33341 12.6249V16.3749C3.33341 16.5147 3.48531 16.6666 3.62508 16.6666H7.37508C7.51485 16.6666 7.66675 16.5147 7.66675 16.3749V12.6249C7.66675 12.4852 7.51485 12.3333 7.37508 12.3333H3.62508Z" fill="#C09460"/>
<path fill-rule="evenodd" clip-rule="evenodd" d="M12.6251 10.6666C11.5648 10.6666 10.6667 11.5647 10.6667 12.6249V16.3749C10.6667 17.4352 11.5648 18.3333 12.6251 18.3333H16.3751C17.4353 18.3333 18.3334 17.4352 18.3334 16.3749V12.6249C18.3334 11.5647 17.4353 10.6666 16.3751 10.6666H12.6251ZM12.3334 12.6249C12.3334 12.4852 12.4853 12.3333 12.6251 12.3333H16.3751C16.5148 12.3333 16.6667 12.4852 16.6667 12.6249V16.3749C16.6667 16.5147 16.5148 16.6666 16.3751 16.6666H12.6251C12.4853 16.6666 12.3334 16.5147 12.3334 16.3749V12.6249Z" fill="#C09460"/>
</svg>
