<svg width="24" height="24" viewBox="0 0 24 24" fill="none" xmlns="http://www.w3.org/2000/svg">
<path d="M12 6.32515L11.5574 5.48338C10.4434 3.3644 8.69034 1.95312 6.375 1.95312C3.01008 1.95312 0.5 4.77771 0.5 8.32102C0.5 10.631 1.59312 12.545 3.59267 14.6531C4.97977 16.1155 6.75627 17.6258 8.84165 19.3987C9.78864 20.2038 10.7993 21.0631 11.8662 21.9966L12 6.32515ZM12 6.32515L12.4426 5.48338M12 6.32515L12.4426 5.48338M12.4426 5.48338C13.5565 3.36454 15.3096 1.95312 17.625 1.95312M12.4426 5.48338L17.625 1.95312M17.625 1.95312C20.9903 1.95312 23.5 4.77827 23.5 8.32102M17.625 1.95312L23.5 8.32102M23.5 8.32102C23.5 10.6307 22.4083 12.5435 20.4096 14.6509M23.5 8.32102L20.4096 14.6509M20.4096 14.6509C19.023 16.113 17.2464 17.6234 15.1598 19.3974M20.4096 14.6509L15.1598 19.3974M15.1598 19.3974C14.2126 20.2027 13.2014 21.0624 12.1338 21.9966M15.1598 19.3974L12.1338 21.9966M12.1338 21.9966C12.0571 22.0636 11.9428 22.0636 11.8662 21.9966L12.1338 21.9966Z" stroke="#1A4564"/>
</svg>
