<svg width="24" height="24" viewBox="0 0 24 24" fill="none" xmlns="http://www.w3.org/2000/svg">
<g clip-path="url(#clip0_75_9692)">
<path d="M17.5325 11.332C17.2198 8.78062 15.2062 6.77202 12.654 6.46579C12.4342 6.44071 12.2133 6.42815 11.9921 6.4281C9.73653 6.43157 7.70562 7.79469 6.84791 9.88077C5.99019 11.9669 6.47492 14.3643 8.0757 15.9533C8.92695 16.7685 9.41445 17.8919 9.42837 19.0705V19.7143H14.5712V19.0672C14.5751 17.9109 15.0455 16.8052 15.8758 16.0004C17.1299 14.7905 17.7433 13.062 17.5325 11.3322V11.332H17.5325Z" fill="#1A4564"/>
<path d="M11.9998 24C12.5445 23.9994 13.0299 23.6562 13.2121 23.1428H10.7876C10.9698 23.6562 11.4551 23.9994 11.9998 24Z" fill="#1A4564"/>
<path d="M9.85693 21.8571C9.85726 22.0937 10.0489 22.2854 10.2855 22.2857H13.7141C13.9507 22.2854 14.1423 22.0937 14.1427 21.8571V20.5714H9.85693V21.8571Z" fill="#1A4564"/>
<path d="M12.0002 3.85716C12.4736 3.85716 12.8574 3.47339 12.8574 3V0.857156C12.8574 0.383766 12.4736 0 12.0002 0C11.5268 0 11.1431 0.383766 11.1431 0.857156V3C11.1431 3.47339 11.5268 3.85716 12.0002 3.85716Z" fill="#1A4564"/>
<path d="M4.7662 5.97844C5.10539 6.30239 5.6393 6.30239 5.97848 5.97844C6.13927 5.8177 6.22959 5.59964 6.22959 5.3723C6.22959 5.14495 6.13927 4.92689 5.97848 4.76616L4.46316 3.25111C4.30247 3.09033 4.08445 3 3.85716 3C3.62986 3 3.41184 3.09033 3.25111 3.25111C3.09033 3.4118 3 3.62981 3 3.85716C3 4.0845 3.09033 4.30247 3.25111 4.4632L4.7662 5.97844Z" fill="#1A4564"/>
<path d="M3.85716 12C3.85716 11.5266 3.47339 11.1428 3 11.1428H0.857156C0.383953 11.1433 0.00046875 11.5268 0 12C0.00046875 12.4732 0.383953 12.8567 0.857156 12.8571H3C3.47339 12.8571 3.85716 12.4734 3.85716 12Z" fill="#1A4564"/>
<path d="M5.59477 17.7984C5.29852 17.7192 4.98258 17.8043 4.76616 18.0215L3.25111 19.5368C3.09033 19.6975 3 19.9155 3 20.1429C3 20.3702 3.09033 20.5882 3.25111 20.7489C3.5902 21.0729 4.12406 21.0729 4.46316 20.7489L5.97844 19.2339C6.19566 19.0175 6.28078 18.7015 6.20161 18.4053C6.12244 18.109 5.89102 17.8775 5.59477 17.7984Z" fill="#1A4564"/>
<path d="M19.234 18.0215C19.0176 17.8043 18.7017 17.7192 18.4054 17.7984C18.1092 17.8775 17.8778 18.1089 17.7986 18.4052C17.7194 18.7014 17.8045 19.0174 18.0218 19.2338L19.5371 20.7488C19.8762 21.0728 20.41 21.0728 20.7491 20.7488C20.9099 20.5881 21.0002 20.3701 21.0002 20.1428C21.0002 19.9154 20.9099 19.6975 20.7491 19.5367L19.234 18.0215Z" fill="#1A4564"/>
<path d="M23.1431 11.1428H21.0002C20.5268 11.1428 20.1431 11.5266 20.1431 12C20.1431 12.4734 20.5268 12.8571 21.0002 12.8571H23.1431C23.6165 12.8571 24.0002 12.4734 24.0002 12C24.0002 11.5266 23.6165 11.1428 23.1431 11.1428Z" fill="#1A4564"/>
<path d="M19.2339 5.97842L20.749 4.46314C20.9655 4.24662 21.0501 3.93106 20.9708 3.63528C20.8915 3.3395 20.6605 3.1085 20.3648 3.02923C20.069 2.94997 19.7534 3.03453 19.5369 3.25104L18.0216 4.76609C17.8608 4.92683 17.7705 5.14489 17.7705 5.37223C17.7705 5.59958 17.8608 5.81764 18.0216 5.97837C18.3609 6.30237 18.8948 6.30237 19.2339 5.97842Z" fill="#1A4564"/>
</g>
<defs>
<clipPath id="clip0_75_9692">
<rect width="24" height="24" fill="white"/>
</clipPath>
</defs>
</svg>
