<svg width="32" height="32" viewBox="0 0 32 32" fill="none" xmlns="http://www.w3.org/2000/svg">
<g clip-path="url(#clip0_75_10593)">
<path d="M21.3333 29.3334C20.5333 29.3334 20 28.8001 20 28.0001V25.3334C20 23.0667 18.2667 21.3334 16 21.3334H6.66667C4.4 21.3334 2.66667 23.0667 2.66667 25.3334V28.0001C2.66667 28.8001 2.13333 29.3334 1.33333 29.3334C0.533333 29.3334 0 28.8001 0 28.0001V25.3334C0 21.6001 2.93333 18.6667 6.66667 18.6667H16C19.7333 18.6667 22.6667 21.6001 22.6667 25.3334V28.0001C22.6667 28.8001 22.1333 29.3334 21.3333 29.3334Z" fill="#1A4564"/>
<path d="M11.3332 16.0001C7.59984 16.0001 4.6665 13.0667 4.6665 9.33341C4.6665 5.60008 7.59984 2.66675 11.3332 2.66675C15.0665 2.66675 17.9998 5.60008 17.9998 9.33341C17.9998 13.0667 15.0665 16.0001 11.3332 16.0001ZM11.3332 5.33341C9.0665 5.33341 7.33317 7.06675 7.33317 9.33341C7.33317 11.6001 9.0665 13.3334 11.3332 13.3334C13.5998 13.3334 15.3332 11.6001 15.3332 9.33341C15.3332 7.06675 13.5998 5.33341 11.3332 5.33341Z" fill="#1A4564"/>
<path d="M26.6668 19.9999C25.8668 19.9999 25.3335 19.4666 25.3335 18.6666V10.6666C25.3335 9.86659 25.8668 9.33325 26.6668 9.33325C27.4668 9.33325 28.0002 9.86659 28.0002 10.6666V18.6666C28.0002 19.4666 27.4668 19.9999 26.6668 19.9999Z" fill="#1A4564"/>
<path d="M30.6668 15.9999H22.6668C21.8668 15.9999 21.3335 15.4666 21.3335 14.6666C21.3335 13.8666 21.8668 13.3333 22.6668 13.3333H30.6668C31.4668 13.3333 32.0002 13.8666 32.0002 14.6666C32.0002 15.4666 31.4668 15.9999 30.6668 15.9999Z" fill="#1A4564"/>
</g>
<defs>
<clipPath id="clip0_75_10593">
<rect width="32" height="32" fill="white"/>
</clipPath>
</defs>
</svg>
