<svg width="24" height="25" viewBox="0 0 24 25" fill="none" xmlns="http://www.w3.org/2000/svg">
<path d="M23.25 11.75H20.9625C20.5995 7.385 17.115 3.9005 12.75 3.5375V1.25C12.75 0.836 12.414 0.5 12 0.5C11.586 0.5 11.25 0.836 11.25 1.25V3.5375C6.885 3.9005 3.4005 7.3865 3.0375 11.75H0.75C0.336 11.75 0 12.086 0 12.5C0 12.914 0.336 13.25 0.75 13.25H3.0375C3.4005 17.615 6.885 21.0995 11.25 21.4625V23.75C11.25 24.164 11.586 24.5 12 24.5C12.414 24.5 12.75 24.164 12.75 23.75V21.4625C17.115 21.0995 20.5995 17.615 20.9625 13.25H23.25C23.664 13.25 24 12.9155 24 12.5C24 12.0875 23.664 11.75 23.25 11.75ZM12 20C7.8645 20 4.5 16.6355 4.5 12.5C4.5 8.3645 7.8645 5 12 5C16.1355 5 19.5 8.3645 19.5 12.5C19.5 16.6355 16.1355 20 12 20Z" fill="white"/>
</svg>
