<svg width="20" height="20" viewBox="0 0 20 20" fill="none" xmlns="http://www.w3.org/2000/svg">
<g id="fi_1549454" clip-path="url(#clip0_22_736)">
<path id="Vector" d="M9.99994 0C4.47711 0 0 4.47711 0 9.99994C0 15.5228 4.47711 20.0001 9.99994 20.0001C15.5228 20.0001 20.0001 15.5228 20.0001 9.99994C19.9938 4.47968 15.5204 0.00622556 9.99994 0ZM9.99994 18.9999C5.02936 18.9999 0.999939 14.9705 0.999939 9.99994C0.999939 5.02936 5.02936 0.999939 9.99994 0.999939C14.9705 0.999939 18.9999 5.02936 18.9999 9.99994C18.9943 14.9681 14.9681 18.9943 9.99994 18.9999Z" fill="white"/>
<path id="Vector_2" d="M8.82916 6.12362C8.62115 5.9418 8.3053 5.96304 8.12347 6.17087C7.94183 6.37887 7.96307 6.69473 8.1709 6.87655L11.7407 9.99997L8.17071 13.1236C7.96271 13.3054 7.94165 13.6212 8.12329 13.8291C8.30511 14.0371 8.62097 14.0583 8.82898 13.8765L12.8289 10.3764C12.9375 10.2816 12.9998 10.1443 12.9998 9.99997C12.9998 9.85568 12.9375 9.71853 12.8289 9.6235L8.82916 6.12362Z" fill="white"/>
</g>
<defs>
<clipPath id="clip0_22_736">
<rect width="20" height="20" fill="white"/>
</clipPath>
</defs>
</svg>
