<svg width="32" height="32" viewBox="0 0 32 32" fill="none" xmlns="http://www.w3.org/2000/svg">
<g clip-path="url(#clip0_75_10594)">
<path d="M14.034 3.23881C13.557 2.73981 13.5747 1.94856 14.0737 1.4715C15.0807 0.508874 16.3507 0 17.7466 0C19.6189 0 21.3592 1.01469 22.3317 2.60137C22.7338 2.49393 23.1578 2.4375 23.5887 2.4375C24.7902 2.4375 25.9155 2.90218 26.7578 3.74593C27.5991 4.58887 28.0625 5.71455 28.0625 6.91555C28.0625 7.18799 28.0413 7.45224 27.9999 7.70761C28.9014 8.00961 29.7263 8.56361 30.4073 9.33879C31.4345 10.508 32 12.0302 32 13.625C32 14.3153 31.4404 14.875 30.75 14.875C30.0596 14.875 29.5 14.3153 29.5 13.625C29.5 11.6289 28.069 9.94267 26.375 9.94267C25.6847 9.94267 25.125 9.38304 25.125 8.69267C25.125 8.49555 25.1719 8.30973 25.2532 8.14392C25.2761 8.03773 25.3118 7.93261 25.3642 7.83148C25.4957 7.57717 25.5625 7.26899 25.5625 6.91555C25.5625 5.80636 24.6955 4.93749 23.5887 4.93749C23.1408 4.93749 22.7096 5.05986 22.4055 5.27318C21.8405 5.6698 21.0609 5.53311 20.6643 4.96805C20.5444 4.79712 20.4397 4.39299 20.4358 4.38274C20.0009 3.25662 18.9202 2.49999 17.7466 2.49999C16.9962 2.49999 16.3417 2.76193 15.8014 3.27849C15.3024 3.75562 14.5111 3.73787 14.034 3.23881ZM18.5625 23.5625C18.5625 24.2528 18.0029 24.8125 17.3125 24.8125H2.50007C1.11939 24.8125 7.81266e-05 23.6931 7.81266e-05 22.3125V19.8125C7.81266e-05 18.4318 1.11939 17.3125 2.50007 17.3125H11.9376C12.2691 17.3125 12.5871 17.4442 12.8214 17.6786C13.6089 18.4661 13.0512 19.8125 11.9376 19.8125H11.2501V22.3125H17.3125C18.0029 22.3125 18.5625 22.8721 18.5625 23.5625ZM8.75006 19.8125H2.50007V22.3125H8.75006V19.8125ZM31.634 31.6339C31.3899 31.8779 31.07 31.9999 30.75 31.9999C30.4301 31.9999 30.1102 31.8779 29.8661 31.6338L0.36614 2.13387C-0.122047 1.64568 -0.122047 0.854248 0.36614 0.366124C0.854326 -0.122 1.64582 -0.122062 2.13395 0.366124L19.0804 17.3125H29.5C30.8785 17.3125 32 18.434 32 19.8125V22.3125C32 23.691 30.8785 24.8125 29.5 24.8125H26.5803L31.634 29.8661C32.1221 30.3543 32.1221 31.1457 31.634 31.6339ZM24.0803 22.3125H29.5C29.5011 22.3125 29.5016 22.3124 29.5016 22.3124L29.5 19.8125H21.5803L24.0803 22.3125ZM24.75 12.25C23.3761 12.25 22.8925 11.6433 22.6483 11.187C22.3165 10.567 22.3125 9.87498 22.3125 9.87498C22.3125 9.18461 21.7529 8.62498 21.0625 8.62498C20.3794 8.62498 19.8252 9.17311 19.8137 9.85348H19.8127C19.809 10.0683 19.8165 11.993 21.1993 13.3998C22.0799 14.2957 23.2745 14.75 24.75 14.75C25.4404 14.75 26 14.1903 26 13.5C26 12.8096 25.4404 12.25 24.75 12.25Z" fill="#1A4564"/>
</g>
<defs>
<clipPath id="clip0_75_10594">
<rect width="32" height="32" fill="white"/>
</clipPath>
</defs>
</svg>
