<svg width="33" height="33" viewBox="0 0 33 33" fill="none" xmlns="http://www.w3.org/2000/svg">
<g clip-path="url(#clip0_19_1613)">
<path d="M16.5001 0C25.6128 0 33 7.38723 33 16.4999C33 25.6126 25.6128 33.0001 16.5001 33.0001C7.38744 33.0001 -9.91821e-05 25.6126 -9.91821e-05 16.4999C0.0101738 7.39146 7.39137 0.0102722 16.5001 0ZM16.5001 31.3499C24.7016 31.3499 31.3501 24.7014 31.3501 16.4999C31.3501 8.29844 24.7016 1.6499 16.5001 1.6499C8.29864 1.6499 1.6501 8.29844 1.6501 16.4999C1.65947 24.6974 8.30257 31.3405 16.5001 31.3499Z" fill="#1A4564"/>
<path d="M18.4319 10.1039C18.7751 9.80387 19.2963 9.83892 19.5963 10.1818C19.896 10.525 19.8609 11.0462 19.518 11.3462L13.6278 16.4998L19.5183 21.6538C19.8615 21.9538 19.8963 22.475 19.5966 22.8179C19.2966 23.1611 18.7754 23.1961 18.4322 22.8961L11.8323 17.121C11.6531 16.9645 11.5504 16.7379 11.5504 16.4998C11.5504 16.2618 11.6531 16.0355 11.8323 15.8787L18.4319 10.1039Z" fill="#1A4564"/>
</g>
<defs>
<clipPath id="clip0_19_1613">
<rect width="33" height="33" fill="white" transform="matrix(-1 0 0 1 33 0)"/>
</clipPath>
</defs>
</svg>
