<svg width="33" height="33" viewBox="0 0 33 33" fill="none" xmlns="http://www.w3.org/2000/svg">
<g clip-path="url(#clip0_19_1616)">
<path d="M16.4999 0C7.38723 0 0 7.38723 0 16.4999C0 25.6126 7.38723 33.0001 16.4999 33.0001C25.6126 33.0001 33.0001 25.6126 33.0001 16.4999C32.9898 7.39146 25.6086 0.0102722 16.4999 0ZM16.4999 31.3499C8.29844 31.3499 1.6499 24.7014 1.6499 16.4999C1.6499 8.29844 8.29844 1.6499 16.4999 1.6499C24.7014 1.6499 31.3499 8.29844 31.3499 16.4999C31.3405 24.6974 24.6974 31.3405 16.4999 31.3499Z" fill="#1A4564"/>
<path d="M14.5681 10.1039C14.2249 9.80387 13.7037 9.83892 13.4037 10.1818C13.104 10.525 13.1391 11.0462 13.482 11.3462L19.3722 16.4998L13.4817 21.6538C13.1385 21.9538 13.1037 22.475 13.4034 22.8179C13.7034 23.1611 14.2246 23.1961 14.5678 22.8961L21.1677 17.121C21.3469 16.9645 21.4496 16.7379 21.4496 16.4998C21.4496 16.2618 21.3469 16.0355 21.1677 15.8787L14.5681 10.1039Z" fill="#1A4564"/>
</g>
<defs>
<clipPath id="clip0_19_1616">
<rect width="33" height="33" fill="white"/>
</clipPath>
</defs>
</svg>
