<svg width="32" height="32" viewBox="0 0 32 32" fill="none" xmlns="http://www.w3.org/2000/svg">
<g clip-path="url(#clip0_75_10596)">
<path d="M3.77249 9.87769C-0.697281 10.6728 -1.02602 16.4305 1.96698 19.1202C3.00323 20.0455 4.2705 20.4636 5.55714 20.2516C6.62333 20.0694 7.58004 19.4465 8.25095 18.4975C10.7246 15.0055 8.40973 9.06082 3.77249 9.87769ZM6.21011 17.0545C6.00841 17.3398 5.65837 17.6986 5.13618 17.7878C4.01519 17.9792 2.83546 16.787 2.55921 15.1843C2.41756 14.3628 2.53859 13.6515 2.90932 13.1272C3.20737 12.7057 3.6514 12.434 4.19352 12.3413C5.45042 12.1269 6.42931 12.9675 6.69075 14.4821C6.85496 15.435 6.67526 16.3965 6.21011 17.0545ZM25.8371 5.55388C26.135 2.63025 24.4505 0.305414 21.8316 0.0259791C20.6539 -0.0997416 19.5086 0.233806 18.6072 0.964948C15.4625 3.45587 16.4199 10.0863 20.7419 10.6008C23.5207 10.8666 25.5899 8.28281 25.8371 5.55388ZM23.3505 5.30044C23.2487 6.29921 22.8088 7.20306 22.1737 7.71813C21.9143 7.92845 21.5017 8.16834 21.0071 8.11547C19.898 7.99713 19.1031 6.50322 19.2713 4.85323C19.405 3.47574 20.2132 2.37893 21.5665 2.51128C22.7903 2.64187 23.5072 3.76274 23.3505 5.30044ZM13.5782 0.966761C12.6752 0.234368 11.5278 -0.0997416 10.3475 0.0259167C5.66705 0.503431 5.10537 6.97718 8.42585 9.65724C9.31664 10.3758 10.3655 10.7116 11.4383 10.6008C15.7638 10.0873 16.7253 3.45981 13.5782 0.966761ZM11.1736 8.11547C10.676 8.16834 10.261 7.92758 10.0003 7.71613C9.36494 7.20075 8.9248 6.29765 8.82294 5.30019C8.66592 3.7628 9.385 2.642 10.6122 2.51134C13.6626 2.22459 13.5436 7.83748 11.1736 8.11547ZM31.1299 11.6219C30.4503 10.6607 29.419 10.0191 28.2258 9.8152C25.6029 9.36725 23.3394 11.1248 22.8445 13.9951C22.5659 15.6112 22.895 17.2294 23.7474 18.435C24.4183 19.384 25.375 20.0069 26.4412 20.1891C27.7277 20.4011 28.9952 19.9828 30.0313 19.0577C31.9887 17.3794 32.6944 13.7208 31.1299 11.6219ZM29.4391 15.1219C29.1824 16.6109 28.1456 17.7456 27.1012 17.7455C27.0215 17.7455 26.9416 17.7389 26.8621 17.7254C26.3399 17.6361 25.9899 17.2773 25.7882 16.9921C25.323 16.3341 25.1433 15.3725 25.3076 14.4198C25.5691 12.905 26.5479 12.0646 27.8048 12.279C28.3469 12.3716 28.791 12.6434 29.089 13.0649C29.4597 13.5891 29.5807 14.3004 29.4391 15.1219ZM16.1241 31.9924C16.1223 31.9924 16.1201 31.9924 16.1183 31.9924C11.4798 32.0533 6.51504 31.8573 6.50136 27.0816C6.70644 23.6367 11.2359 13.5427 16.0615 13.4966C20.8665 13.5335 25.4123 23.6642 25.622 27.0816C25.6219 28.2305 25.3184 29.1943 24.7199 29.9458C22.8381 32.1523 19.5937 31.9296 16.1246 31.9924C16.1244 31.9924 16.1242 31.9924 16.1241 31.9924ZM16.0616 15.9961C14.9157 15.9961 13.1358 17.8165 11.5272 20.6337C9.96193 23.3751 9.00078 26.2368 9.00078 27.0816C9.00078 29.144 10.7782 29.4928 16.1207 29.4929C21.46 29.4929 23.1225 29.1601 23.1225 27.0816C23.1225 26.2518 22.1611 23.4057 20.5953 20.6558C19.538 18.8425 17.7669 16.1517 16.0616 15.9961Z" fill="#1A4564"/>
</g>
<defs>
<clipPath id="clip0_75_10596">
<rect width="32" height="32" fill="white"/>
</clipPath>
</defs>
</svg>
