<svg width="28" height="28" viewBox="0 0 28 28" fill="none" xmlns="http://www.w3.org/2000/svg">
<g clip-path="url(#clip0_77_2199)">
<path d="M5.94436 7.38281C5.85106 7.54381 5.79681 7.73024 5.79681 7.92969C5.79681 8.53377 6.28648 9.02344 6.89056 9.02344C7.49464 9.02344 7.98431 8.53377 7.98431 7.92969C7.98431 7.73024 7.93006 7.54381 7.83677 7.38281H11.0738C11.3881 8.94857 12.5803 10.1172 13.9999 10.1172C15.4195 10.1172 16.6117 8.94857 16.9259 7.38281H20.163C20.0697 7.54381 20.0155 7.73024 20.0155 7.92969C20.0155 8.53377 20.5051 9.02344 21.1092 9.02344C21.7133 9.02344 22.203 8.53377 22.203 7.92969C22.203 7.73024 22.1487 7.54381 22.0554 7.38281H24.8897C26.0565 7.38281 27.1533 6.92847 27.9783 6.10345L26.8182 4.94337C26.3033 5.45852 25.6184 5.74219 24.8899 5.74219H16.926C16.9158 5.69138 16.9047 5.64107 16.8926 5.59114L20.7613 4.62394L20.3635 3.03231L16.1537 4.08477C15.7912 3.64487 15.3335 3.31559 14.8202 3.14333V0H13.1796V3.14333C12.6663 3.31559 12.2086 3.64481 11.8462 4.08477L7.63639 3.03231L7.23854 4.62394L11.1072 5.59114C11.0952 5.64107 11.0841 5.69138 11.0739 5.74219H3.11002C2.38152 5.74219 1.69662 5.45847 1.18152 4.94342L0.0214844 6.10345C0.846445 6.92847 1.94326 7.38281 3.11002 7.38281H5.94436ZM13.9999 4.64844C14.7411 4.64844 15.3671 5.52497 15.3671 6.5625C15.3671 7.60003 14.7411 8.47656 13.9999 8.47656C13.2588 8.47656 12.6328 7.60003 12.6328 6.5625C12.6328 5.52497 13.2588 4.64844 13.9999 4.64844Z" fill="#C09460"/>
<path d="M28 11.7578H0V13.3984H10.3922L1.9682 28H3.8623L12.2863 13.3984H13.1797V15.5859H14.8203V13.3984H15.7137L24.1377 28H26.0318L17.6078 13.3984H28V11.7578Z" fill="#C09460"/>
<path d="M14.8203 17.2266H13.1797V19.4141H14.8203V17.2266Z" fill="#C09460"/>
<path d="M14.8203 21.0547H13.1797V23.2422H14.8203V21.0547Z" fill="#C09460"/>
<path d="M14.8203 24.8828H13.1797V27.0703H14.8203V24.8828Z" fill="#C09460"/>
</g>
<defs>
<clipPath id="clip0_77_2199">
<rect width="28" height="28" fill="white"/>
</clipPath>
</defs>
</svg>
