<svg width="20" height="21" viewBox="0 0 20 21" fill="none" xmlns="http://www.w3.org/2000/svg">
<g opacity="0.7">
<path d="M19.1668 11.209C19.3752 11.209 19.5836 11.0006 19.5836 10.7922V8.29224C19.5836 7.58384 19.042 7.04224 18.3336 7.04224H15V18.709H18.3332C19.0416 18.709 19.5832 18.1674 19.5832 17.459V14.959C19.583 14.8486 19.539 14.7427 19.4609 14.6646C19.3828 14.5864 19.2769 14.5425 19.1664 14.5422C18.7289 14.5355 18.3115 14.3569 18.0045 14.0451C17.6975 13.7333 17.5254 13.3132 17.5254 12.8756C17.5254 12.4381 17.6975 12.018 18.0045 11.7062C18.3115 11.3944 18.7289 11.2158 19.1664 11.209H19.1668Z" fill="white"/>
<path d="M18.8751 5.79264C19.0835 5.70944 19.2083 5.45944 19.1251 5.25104L18.2915 2.87584C18.0831 2.20904 17.3315 1.87584 16.7083 2.08424L4.87512 6.16744H18.2083C18.4059 6.00299 18.6319 5.87597 18.8751 5.79264Z" fill="white"/>
<path d="M0.416748 8.29264V10.7926C0.416748 11.0426 0.583548 11.2094 0.833548 11.2094C1.05458 11.206 1.27409 11.2466 1.47929 11.3288C1.68449 11.411 1.87129 11.5332 2.02881 11.6883C2.18633 11.8434 2.31142 12.0283 2.39681 12.2322C2.4822 12.4361 2.52617 12.655 2.52617 12.876C2.52617 13.0971 2.4822 13.316 2.39681 13.5199C2.31142 13.7238 2.18633 13.9086 2.02881 14.0637C1.87129 14.2188 1.68449 14.3411 1.47929 14.4233C1.27409 14.5055 1.05458 14.5461 0.833548 14.5426C0.583548 14.5426 0.416748 14.7094 0.416748 14.9594V17.4594C0.416748 18.1678 0.958348 18.7094 1.66675 18.7094H14.1667V7.04264H1.66675C0.959948 7.04264 0.416748 7.58424 0.416748 8.29264ZM5.41675 10.3758H7.91675C8.16675 10.3758 8.33355 10.5426 8.33355 10.7926C8.33355 11.0426 8.16675 11.2094 7.91675 11.2094H5.41675C5.16675 11.2094 4.99995 11.0426 4.99995 10.7926C4.99995 10.5426 5.16675 10.3758 5.41675 10.3758ZM5.41675 12.459H10.8331C11.0831 12.459 11.2499 12.6258 11.2499 12.8758C11.2499 13.1258 11.0831 13.2926 10.8331 13.2926H5.41675C5.16675 13.2926 4.99995 13.1258 4.99995 12.8758C4.99995 12.6258 5.16675 12.459 5.41675 12.459ZM5.41675 14.5422H10.8331C11.0831 14.5422 11.2499 14.709 11.2499 14.959C11.2499 15.209 11.0831 15.3758 10.8331 15.3758H5.41675C5.16675 15.3758 4.99995 15.209 4.99995 14.959C4.99995 14.709 5.16675 14.5426 5.41675 14.5426V14.5422Z" fill="white"/>
</g>
</svg>
