<svg width="28" height="28" viewBox="0 0 28 28" fill="none" xmlns="http://www.w3.org/2000/svg">
<g clip-path="url(#clip0_77_2203)">
<path d="M25.6384 18.8772C24.679 17.9178 23.1179 17.9178 22.1584 18.8773L19.6405 21.3953C19.2901 20.4626 18.3894 19.797 17.3359 19.797H14.6738C14.296 19.797 14.1291 19.5901 13.7465 19.2534C12.5535 18.2036 10.9616 17.692 9.37934 17.8507C7.91115 17.9976 6.59023 18.6841 5.61783 19.797H2.46094C2.00791 19.797 1.64062 20.1643 1.64062 20.6173V27.1798C1.64062 27.6328 2.00791 28.0001 2.46094 28.0001C3.15066 28.0001 18.2848 28.0001 18.9766 28.0001C19.6337 28.0001 20.2517 27.7441 20.7166 27.2792L25.6384 22.3573C26.5979 21.3978 26.5979 19.8367 25.6384 18.8772ZM5.03125 26.3595H3.28125V21.4376H5.03125V26.3595ZM24.4783 21.1972L19.5565 26.1191C19.4037 26.2719 19.1924 26.3595 18.9766 26.3595C18.7072 26.3595 6.93558 26.3595 6.67188 26.3595V21.0988C7.38287 20.1711 8.40148 19.5973 9.54275 19.4831C10.6731 19.37 11.8106 19.7351 12.6627 20.4851C13.0784 20.8509 13.6283 21.4376 14.6738 21.4376H17.3359C17.7883 21.4376 18.1563 21.8056 18.1563 22.2579C18.1563 22.7102 17.7883 23.0782 17.3359 23.0782H13.9847C13.1975 23.0782 12.452 23.4591 11.9907 24.0969C11.7252 24.4641 11.8075 24.9769 12.1746 25.2424C12.5416 25.5079 13.0545 25.4255 13.3201 25.0584C13.4739 24.8458 13.7224 24.7189 13.9847 24.7189C14.862 24.7189 17.4054 24.7189 18.2972 24.7189C18.5148 24.7189 18.7234 24.6324 18.8773 24.4786L23.3185 20.0373C23.6383 19.7176 24.1585 19.7176 24.4783 20.0373C24.7982 20.3571 24.7982 20.8774 24.4783 21.1972Z" fill="#C09460"/>
<path d="M27.1797 14.875H26.332C25.96 9.15775 21.7102 4.49438 16.2906 3.4872C16.4346 3.17461 16.5156 2.82713 16.5156 2.46094C16.5156 1.10398 15.4116 0 14.0547 0C12.6977 0 11.5938 1.10398 11.5938 2.46094C11.5938 2.82669 11.6746 3.17379 11.8183 3.48611C6.39986 4.4864 2.04892 9.13713 1.66857 14.875H0.820312C0.367281 14.875 0 15.2423 0 15.6953C0 16.1483 0.367281 16.5156 0.820312 16.5156H27.1797C27.6327 16.5156 28 16.1483 28 15.6953C28 15.2423 27.6327 14.875 27.1797 14.875ZM14.0547 1.64062C14.507 1.64062 14.875 2.00862 14.875 2.46094C14.875 2.91326 14.507 3.28125 14.0547 3.28125C13.6024 3.28125 13.2344 2.91326 13.2344 2.46094C13.2344 2.00862 13.6024 1.64062 14.0547 1.64062ZM3.31384 14.875C3.74899 9.40084 8.49045 4.91094 14.0547 4.91094C19.6617 4.91094 24.2718 9.31623 24.6881 14.875H3.31384Z" fill="#C09460"/>
</g>
<defs>
<clipPath id="clip0_77_2203">
<rect width="28" height="28" fill="white"/>
</clipPath>
</defs>
</svg>
