<svg width="33" height="33" viewBox="0 0 33 33" fill="none" xmlns="http://www.w3.org/2000/svg">
<g clip-path="url(#clip0_76_10653)">
<path d="M16.4999 0C7.38723 0 0 7.38723 0 16.4999C0 25.6126 7.38723 33.0001 16.4999 33.0001C25.6126 33.0001 33.0001 25.6126 33.0001 16.4999C32.9898 7.39146 25.6086 0.0102722 16.4999 0ZM16.4999 31.3499C8.29844 31.3499 1.6499 24.7014 1.6499 16.4999C1.6499 8.29844 8.29844 1.6499 16.4999 1.6499C24.7014 1.6499 31.3499 8.29844 31.3499 16.4999C31.3405 24.6974 24.6974 31.3405 16.4999 31.3499Z" fill="white"/>
<path d="M14.5682 10.1039C14.225 9.80393 13.7038 9.83898 13.4038 10.1819C13.1041 10.5251 13.1392 11.0463 13.4821 11.3463L19.3723 16.4999L13.4818 21.6538C13.1386 21.9539 13.1038 22.475 13.4035 22.8179C13.7035 23.1611 14.2247 23.1962 14.5679 22.8962L21.1678 17.1211C21.347 16.9646 21.4497 16.738 21.4497 16.4999C21.4497 16.2618 21.347 16.0355 21.1678 15.8787L14.5682 10.1039Z" fill="white"/>
</g>
<defs>
<clipPath id="clip0_76_10653">
<rect width="33" height="33" fill="white"/>
</clipPath>
</defs>
</svg>
