<svg width="13" height="13" viewBox="0 0 13 13" fill="none" xmlns="http://www.w3.org/2000/svg">
<path d="M5.96973 1.46564C3.49037 1.46564 1.4707 3.4853 1.4707 5.96467C1.4707 8.44402 3.49037 10.4676 5.96973 10.4676C7.02874 10.4676 8.0027 10.0965 8.77246 9.48029L10.6465 11.3533C10.7411 11.444 10.8674 11.494 10.9984 11.4927C11.1294 11.4913 11.2546 11.4388 11.3473 11.3462C11.44 11.2536 11.4928 11.1284 11.4943 10.9974C11.4958 10.8664 11.446 10.7401 11.3555 10.6454L9.48145 8.77134C10.0982 8.00039 10.4697 7.0249 10.4697 5.96467C10.4697 3.4853 8.44909 1.46564 5.96973 1.46564ZM5.96973 2.46565C7.90865 2.46565 9.46875 4.02575 9.46875 5.96467C9.46875 7.90358 7.90865 9.4676 5.96973 9.4676C4.03081 9.4676 2.4707 7.90358 2.4707 5.96467C2.4707 4.02575 4.03081 2.46565 5.96973 2.46565Z" fill="white"/>
</svg>
