<svg width="16" height="16" viewBox="0 0 16 16" fill="none" xmlns="http://www.w3.org/2000/svg">
<path d="M7.29299 1.28754C3.98718 1.28754 1.2943 3.98042 1.2943 7.28624C1.2943 10.592 3.98718 13.2902 7.29299 13.2902C8.70501 13.2902 10.0036 12.7953 11.03 11.9737L13.5287 14.4711C13.6548 14.592 13.8232 14.6587 13.9978 14.6569C14.1725 14.6551 14.3395 14.585 14.4631 14.4616C14.5867 14.3382 14.6571 14.1713 14.6591 13.9966C14.6611 13.822 14.5947 13.6534 14.474 13.5272L11.9753 11.0285C12.7976 10.0005 13.293 8.69989 13.293 7.28624C13.293 3.98042 10.5988 1.28754 7.29299 1.28754ZM7.29299 2.62089C9.87822 2.62089 11.9584 4.70102 11.9584 7.28624C11.9584 9.87147 9.87822 11.9568 7.29299 11.9568C4.70777 11.9568 2.62763 9.87147 2.62763 7.28624C2.62763 4.70102 4.70777 2.62089 7.29299 2.62089Z" fill="white" fill-opacity="0.5"/>
</svg>
