<svg width="53" height="53" viewBox="0 0 53 53" fill="none" xmlns="http://www.w3.org/2000/svg">
<path d="M44.9175 3.18018H8.08986C5.35889 3.18018 3.12847 5.40323 3.12847 8.14156V39.5661C3.12847 42.2971 5.35889 44.5275 8.08986 44.5275H35.6572L35.2524 49.2313C35.2376 49.4595 35.3628 49.6803 35.5763 49.776C35.6499 49.8128 35.7308 49.8275 35.8044 49.8275C35.9517 49.8275 36.0989 49.7686 36.2093 49.6509L39.2126 46.4562L42.216 49.6509C42.3779 49.8275 42.6282 49.8717 42.849 49.776C43.0625 49.6803 43.195 49.4595 43.1729 49.2313L42.7754 44.5275H44.9175C47.6485 44.5275 49.8715 42.2971 49.8715 39.5661V14.5678C49.8715 14.5605 49.8715 14.5531 49.8715 14.5531V8.1342C49.8715 5.40323 47.6485 3.18018 44.9175 3.18018ZM42.3264 6.91962C43.5115 6.91962 44.4758 7.88393 44.4758 9.06906C44.4758 10.2542 43.5115 11.2185 42.3264 11.2185C41.1413 11.2185 40.1769 10.2542 40.1769 9.06906C40.1769 7.88393 41.1413 6.91962 42.3264 6.91962ZM35.7456 6.91962C36.9307 6.91962 37.895 7.88393 37.895 9.06906C37.895 10.2542 36.9307 11.2185 35.7456 11.2185C34.5604 11.2185 33.5961 10.2542 33.5961 9.06906C33.5961 7.88393 34.5604 6.91962 35.7456 6.91962ZM29.1647 6.91962C30.3499 6.91962 31.3142 7.88393 31.3142 9.06906C31.3142 10.2542 30.3499 11.2185 29.1647 11.2185C27.9796 11.2185 27.0079 10.2542 27.0079 9.06906C27.0079 7.88393 27.9796 6.91962 29.1647 6.91962ZM39.6175 45.2784C39.404 45.0502 39.0213 45.0502 38.8078 45.2784L36.489 47.7443L36.9822 41.8923C37.1589 41.9585 37.3208 42.0616 37.4607 42.2014C37.9465 42.6873 38.5796 42.9228 39.2126 42.9228C39.8531 42.9228 40.4861 42.6873 40.9646 42.2014C41.1044 42.0616 41.2664 41.9585 41.4504 41.8923L41.9363 47.7443L39.6175 45.2784ZM39.2126 40.0446C37.3208 40.0446 35.775 38.4988 35.775 36.5996C35.775 34.7005 37.3208 33.162 39.2126 33.162C41.1118 33.162 42.6576 34.7005 42.6576 36.5996C42.6576 38.4914 41.1118 40.0446 39.2126 40.0446ZM48.7674 39.5588C48.7674 41.6861 47.0375 43.416 44.9175 43.416H42.6797L42.5399 41.7082C43.6146 41.4359 44.4169 40.4716 44.4169 39.3159C44.4169 38.9552 44.5642 38.6018 44.8144 38.3442C45.2929 37.8584 45.5358 37.2253 45.5358 36.5923C45.5358 35.9592 45.2929 35.3261 44.8144 34.8403C44.5568 34.5827 44.4169 34.2367 44.4169 33.8686C44.4169 32.5068 43.3054 31.3953 41.9363 31.3953C41.5682 31.3953 41.2296 31.2481 40.9646 30.9905C40.0003 30.0261 38.4324 30.0261 37.4607 30.9905C37.2031 31.2481 36.8571 31.3953 36.489 31.3953C35.1272 31.3953 34.0157 32.5068 34.0157 33.8686C34.0157 34.2367 33.8758 34.5827 33.6108 34.8403C32.6465 35.8046 32.6465 37.3799 33.6108 38.3442C33.8758 38.6018 34.0157 38.9478 34.0157 39.3159C34.0157 40.4716 34.8181 41.4359 35.8928 41.7082L35.7456 43.416H8.08986C5.9625 43.416 4.23264 41.6861 4.23264 39.5588V15.1125H11.0785C11.211 15.1125 11.3435 15.061 11.4465 14.9727L13.6254 13.0588H18.6015L20.4271 14.9432C20.5301 15.0463 20.67 15.1125 20.8172 15.1125H48.7674V39.5588Z" fill="white" fill-opacity="0.8"/>
<path d="M29.6285 33.2134H27.4937C27.1919 33.2134 26.9417 33.4637 26.9417 33.7655C26.9417 34.0673 27.1919 34.3175 27.4937 34.3175H29.6285C29.9303 34.3175 30.1806 34.0673 30.1806 33.7655C30.1806 33.4637 29.9303 33.2134 29.6285 33.2134Z" fill="white" fill-opacity="0.8"/>
<path d="M8.32542 34.3029H25.1087C25.4106 34.3029 25.6608 34.0526 25.6608 33.7508C25.6608 33.449 25.4106 33.1987 25.1087 33.1987H8.32542C8.02361 33.1987 7.77333 33.449 7.77333 33.7508C7.77333 34.0526 8.01625 34.3029 8.32542 34.3029Z" fill="white" fill-opacity="0.8"/>
<path d="M12.6906 36.2905H8.32542C8.02361 36.2905 7.77333 36.5408 7.77333 36.8426C7.77333 37.1444 8.02361 37.3947 8.32542 37.3947H12.6906C12.9924 37.3947 13.2426 37.1444 13.2426 36.8426C13.2426 36.5408 12.9924 36.2905 12.6906 36.2905Z" fill="white" fill-opacity="0.8"/>
<path d="M29.6285 36.2905H15.5835C15.2817 36.2905 15.0314 36.5408 15.0314 36.8426C15.0314 37.1444 15.2817 37.3947 15.5835 37.3947H29.6285C29.9303 37.3947 30.1806 37.1444 30.1806 36.8426C30.1806 36.5408 29.9303 36.2905 29.6285 36.2905Z" fill="white" fill-opacity="0.8"/>
<path d="M8.32542 31.2111H12.6906C12.9924 31.2111 13.2426 30.9608 13.2426 30.659C13.2426 30.3572 12.9924 30.1069 12.6906 30.1069H8.32542C8.02361 30.1069 7.77333 30.3572 7.77333 30.659C7.77333 30.9608 8.01625 31.2111 8.32542 31.2111Z" fill="white" fill-opacity="0.8"/>
<path d="M29.6285 30.1069H15.5835C15.2817 30.1069 15.0314 30.3572 15.0314 30.659C15.0314 30.9608 15.2817 31.2111 15.5835 31.2111H29.6285C29.9303 31.2111 30.1806 30.9608 30.1806 30.659C30.1806 30.3572 29.9303 30.1069 29.6285 30.1069Z" fill="white" fill-opacity="0.8"/>
<path d="M12.6685 25.3664C12.0796 25.3664 11.6011 24.888 11.6011 24.2991C11.6011 23.9973 11.3508 23.747 11.049 23.747C10.7472 23.747 10.4969 23.9973 10.4969 24.2991C10.4969 25.4989 11.4686 26.4706 12.6685 26.4706C13.8683 26.4706 14.84 25.4989 14.84 24.2991C14.84 23.0992 13.8683 22.1276 12.6685 22.1276C12.0796 22.1276 11.6011 21.6491 11.6011 21.0602C11.6011 20.4713 12.0796 19.9928 12.6685 19.9928C13.2574 19.9928 13.7358 20.4713 13.7358 21.0602C13.7358 21.362 13.9861 21.6123 14.2879 21.6123C14.5897 21.6123 14.84 21.362 14.84 21.0602C14.84 19.8603 13.8683 18.8887 12.6685 18.8887C11.4686 18.8887 10.4969 19.8603 10.4969 21.0602C10.4969 22.2601 11.4686 23.2317 12.6685 23.2317C13.2574 23.2317 13.7358 23.7102 13.7358 24.2991C13.7358 24.888 13.2574 25.3664 12.6685 25.3664Z" fill="#C09460"/>
<path d="M18.3733 25.3664C17.7844 25.3664 17.306 24.888 17.306 24.2991C17.306 23.9973 17.0557 23.747 16.7539 23.747C16.4521 23.747 16.2018 23.9973 16.2018 24.2991C16.2018 25.4989 17.1735 26.4706 18.3733 26.4706C19.5732 26.4706 20.5449 25.4989 20.5449 24.2991C20.5449 23.0992 19.5732 22.1276 18.3733 22.1276C17.7844 22.1276 17.306 21.6491 17.306 21.0602C17.306 20.4713 17.7844 19.9928 18.3733 19.9928C18.9622 19.9928 19.4407 20.4713 19.4407 21.0602C19.4407 21.362 19.691 21.6123 19.9928 21.6123C20.2946 21.6123 20.5449 21.362 20.5449 21.0602C20.5449 19.8603 19.5732 18.8887 18.3733 18.8887C17.1735 18.8887 16.2018 19.8603 16.2018 21.0602C16.2018 22.2601 17.1735 23.2317 18.3733 23.2317C18.9622 23.2317 19.4407 23.7102 19.4407 24.2991C19.4407 24.888 18.9622 25.3664 18.3733 25.3664Z" fill="#C09460"/>
<path d="M22.6501 26.4706H26.235C26.5368 26.4706 26.7871 26.2203 26.7871 25.9185C26.7871 25.6167 26.5368 25.3664 26.235 25.3664H23.2022V19.4408C23.2022 19.1389 22.9519 18.8887 22.6501 18.8887C22.3483 18.8887 22.0981 19.1389 22.0981 19.4408V25.9185C22.0981 26.2203 22.341 26.4706 22.6501 26.4706Z" fill="#C09460"/>
<path d="M46.029 18.8887H36.3124C36.0106 18.8887 35.7603 19.1389 35.7603 19.4408C35.7603 19.7426 36.0106 19.9928 36.3124 19.9928H46.029C46.3308 19.9928 46.5811 19.7426 46.5811 19.4408C46.5811 19.1389 46.3308 18.8887 46.029 18.8887Z" fill="white" fill-opacity="0.8"/>
<path d="M32.0208 19.9928H33.8243C34.1261 19.9928 34.3764 19.7426 34.3764 19.4408C34.3764 19.1389 34.1261 18.8887 33.8243 18.8887H32.0208C31.719 18.8887 31.4687 19.1389 31.4687 19.4408C31.4687 19.7426 31.719 19.9928 32.0208 19.9928Z" fill="white" fill-opacity="0.8"/>
<path d="M46.029 22.2969H32.0208C31.719 22.2969 31.4687 22.5472 31.4687 22.849C31.4687 23.1508 31.719 23.401 32.0208 23.401H46.029C46.3308 23.401 46.5811 23.1508 46.5811 22.849C46.5811 22.5472 46.3308 22.2969 46.029 22.2969Z" fill="white" fill-opacity="0.8"/>
<path d="M46.029 25.7124H43.5189C43.2171 25.7124 42.9668 25.9627 42.9668 26.2645C42.9668 26.5663 43.2171 26.8166 43.5189 26.8166H46.029C46.3308 26.8166 46.5811 26.5663 46.5811 26.2645C46.5811 25.9627 46.3308 25.7124 46.029 25.7124Z" fill="white" fill-opacity="0.8"/>
<path d="M41.1707 25.7124H32.0208C31.719 25.7124 31.4687 25.9627 31.4687 26.2645C31.4687 26.5663 31.719 26.8166 32.0208 26.8166H41.1707C41.4725 26.8166 41.7228 26.5663 41.7228 26.2645C41.7228 25.9627 41.4725 25.7124 41.1707 25.7124Z" fill="white" fill-opacity="0.8"/>
</svg>
