<svg width="24" height="24" viewBox="0 0 24 24" fill="none" xmlns="http://www.w3.org/2000/svg">
<g clip-path="url(#clip0_75_9659)">
<path d="M11.8433 8.81198C12.0691 8.90053 12.2906 8.6838 12.2157 8.45321C11.7021 6.87029 9.84223 6.2798 8.11331 7.68416C7.20388 8.42296 6.86214 8.57994 6.85352 8.5839C7.45306 9.18333 8.138 11.1948 9.63278 11.4173C11.2794 11.7158 12.7368 10.0958 11.5444 9.3545C10.7603 8.86702 9.83704 8.58384 8.8474 8.58384C9.8849 8.34998 10.9206 8.45026 11.8433 8.81198Z" fill="#0D1B4E"/>
<path d="M19.2991 7.68408C16.3146 5.25989 14.4113 9.08286 15.5944 8.70391C16.4347 8.43476 17.3533 8.37613 18.2747 8.58382C16.7135 8.58382 15.2744 9.29927 14.3149 10.4638C14.3937 8.63372 14.5129 7.48817 14.6511 6.63603C15.4486 6.60861 16.5115 5.96463 17.0951 4.83778C18.1014 3.0369 17.6348 1.19041 17.4846 0.0252686C16.6983 0.790946 13.2635 -0.106226 11.9019 2.22705C11.3004 3.25775 11.4753 4.51198 12.108 5.42982C12.3083 5.72038 12.7872 5.58097 12.8009 5.22835C12.8603 3.69443 13.6237 2.5355 15.0469 1.8936C14.4083 2.72107 13.989 3.64747 13.7723 4.60498C13.4356 6.09656 13.0839 7.075 12.9548 11.8291C12.9417 12.3112 13.3322 12.7103 13.8145 12.7043C14.1637 12.6999 14.4627 12.4783 14.597 12.156C14.8012 11.6658 15.1336 11.1585 15.6745 10.6936C16.1884 11.2617 16.9706 11.564 17.7798 11.4173C19.2682 11.1958 19.9629 9.17988 20.559 8.58376C20.5503 8.57991 20.2085 8.42293 19.2991 7.68408Z" fill="#0D1B4E"/>
<path d="M23.6865 13.6076C22.7535 12.9746 21.738 13.4257 21.2717 13.695L15.4196 17.9782L11.993 17.9789L11.1363 17.1223H14.2832C15.2296 17.1223 16.2896 16.5058 16.2896 15.4086C16.2896 14.2437 15.2296 13.695 14.2832 13.695H13.1039C12.2279 13.695 11.2042 13.7731 10.4824 13.3867C9.79656 13.0377 9.00684 12.8391 8.16385 12.8391C6.7483 12.8391 5.48138 13.4034 4.61323 14.2934L0 18.8348L5.13985 23.9747L6.85314 21.4047H14.9493C15.8127 21.4047 16.6462 21.088 17.2916 20.5146L23.745 14.7818C24.1038 14.4631 24.0836 13.8771 23.6865 13.6076Z" fill="#0D1B4E"/>
</g>
<defs>
<clipPath id="clip0_75_9659">
<rect width="24" height="24" fill="white"/>
</clipPath>
</defs>
</svg>
