<svg width="48" height="48" viewBox="0 0 48 48" fill="none" xmlns="http://www.w3.org/2000/svg">
<rect x="0.5" y="0.5" width="47" height="47" rx="23.5" stroke="#EAE6E1"/>
<g clip-path="url(#clip0_77_2599)">
<path d="M31.0312 27.5625C29.6418 27.5625 28.4175 28.246 27.6484 29.2854L20.9995 25.8808C21.1099 25.5045 21.1875 25.1146 21.1875 24.7031C21.1875 24.145 21.0731 23.6145 20.8754 23.1264L27.8338 18.9392C28.6081 19.848 29.7464 20.4375 31.0312 20.4375C33.3576 20.4375 35.25 18.5451 35.25 16.2188C35.25 13.8924 33.3576 12 31.0312 12C28.7049 12 26.8125 13.8924 26.8125 16.2188C26.8125 16.7549 26.9229 17.2634 27.106 17.7355L20.127 21.9351C19.3532 21.0533 18.2314 20.4844 16.9688 20.4844C14.6424 20.4844 12.75 22.3768 12.75 24.7031C12.75 27.0295 14.6424 28.9219 16.9688 28.9219C18.3811 28.9219 19.6261 28.2183 20.3923 27.1497L27.0193 30.5432C26.8972 30.9373 26.8125 31.3477 26.8125 31.7812C26.8125 34.1076 28.7049 36 31.0312 36C33.3576 36 35.25 34.1076 35.25 31.7812C35.25 29.4549 33.3576 27.5625 31.0312 27.5625Z" fill="#C09460"/>
</g>
<defs>
<clipPath id="clip0_77_2599">
<rect width="24" height="24" fill="white" transform="translate(12 12)"/>
</clipPath>
</defs>
</svg>
