<svg width="20" height="20" viewBox="0 0 20 20" fill="none" xmlns="http://www.w3.org/2000/svg">
<g clip-path="url(#clip0_22_898)">
<path d="M16.4153 5.94998C16.1911 4.09616 14.7256 2.61944 12.8769 2.37839C12.6183 1.0257 11.427 0 10 0H5.31255C3.69713 0 2.38287 1.31425 2.38287 2.92968V19.414C2.38287 19.7376 2.64522 19.9999 2.96881 19.9999C3.2924 19.9999 3.55474 19.7376 3.55474 19.414V15.3124H4.72661V15.8984C4.72661 16.222 4.98896 16.4843 5.31255 16.4843C5.63614 16.4843 5.89849 16.222 5.89849 15.8984V13.5546C5.89849 13.231 5.63614 12.9687 5.31255 12.9687C4.98896 12.9687 4.72661 13.231 4.72661 13.5546V14.1406H3.55474V2.92968C3.55474 1.96042 4.3433 1.17187 5.31255 1.17187H10C10.7842 1.17187 11.4499 1.68808 11.6756 2.39847C9.89101 2.69214 8.4909 4.14155 8.27223 5.94998C7.57469 6.18322 7.07036 6.8422 7.07036 7.61716V8.78903C7.07036 9.11262 7.3327 9.37496 7.65629 9.37496H17.0313C17.3548 9.37496 17.6172 9.11262 17.6172 8.78903V7.61716C17.6172 6.84216 17.1129 6.18322 16.4153 5.94998ZM12.3438 3.51561C13.7586 3.51561 14.9423 4.52373 15.2145 5.85935H9.47304C9.74527 4.52373 10.9289 3.51561 12.3438 3.51561ZM16.4453 8.20309H8.24223V7.61716C8.24223 7.29407 8.50508 7.03122 8.82816 7.03122H15.8594C16.1825 7.03122 16.4453 7.29407 16.4453 7.61716V8.20309Z" fill="#4CAF50"/>
<path d="M12.3438 10.625C12.0202 10.625 11.7578 10.8873 11.7578 11.2109V12.3828C11.7578 12.7064 12.0202 12.9688 12.3438 12.9688C12.6673 12.9688 12.9297 12.7064 12.9297 12.3828V11.2109C12.9297 10.8873 12.6673 10.625 12.3438 10.625Z" fill="#4CAF50"/>
<path d="M12.3438 14.1406C12.0202 14.1406 11.7578 14.403 11.7578 14.7266V15.8984C11.7578 16.222 12.0202 16.4844 12.3438 16.4844C12.6673 16.4844 12.9297 16.222 12.9297 15.8984V14.7266C12.9297 14.403 12.6673 14.1406 12.3438 14.1406Z" fill="#4CAF50"/>
<path d="M12.3438 17.6561C12.0202 17.6561 11.7578 17.9185 11.7578 18.2421V19.4139C11.7578 19.7375 12.0202 19.9999 12.3438 19.9999C12.6673 19.9999 12.9297 19.7375 12.9297 19.4139V18.2421C12.9297 17.9185 12.6673 17.6561 12.3438 17.6561Z" fill="#4CAF50"/>
<path d="M14.9378 12.9629C15.2581 12.9171 15.4807 12.6203 15.435 12.3L15.2676 11.1281C15.2218 10.8077 14.9251 10.5849 14.6047 10.6309C14.2843 10.6766 14.0617 10.9734 14.1075 11.2938L14.2748 12.4657C14.3208 12.7874 14.6189 13.0086 14.9378 12.9629Z" fill="#4CAF50"/>
<path d="M15.44 16.4785C15.7604 16.4327 15.983 16.1359 15.9372 15.8156L15.7699 14.6437C15.7241 14.3233 15.4276 14.1005 15.1069 14.1465C14.7866 14.1923 14.564 14.4891 14.6097 14.8094L14.7771 15.9813C14.8231 16.303 15.1212 16.5242 15.44 16.4785Z" fill="#4CAF50"/>
<path d="M16.2721 18.1592C16.2263 17.8389 15.9297 17.6159 15.6091 17.662C15.2888 17.7078 15.0662 18.0046 15.1119 18.3249L15.2793 19.4968C15.3253 19.8186 15.6234 20.0397 15.9422 19.994C16.2626 19.9483 16.4851 19.6515 16.4394 19.3311L16.2721 18.1592Z" fill="#4CAF50"/>
<path d="M10.0829 10.6309C9.76215 10.585 9.4657 10.8077 9.41992 11.128L9.25254 12.2999C9.2068 12.6203 9.42938 12.9171 9.74977 12.9628C10.0703 13.0087 10.367 12.7857 10.4127 12.4656L10.5801 11.2938C10.6258 10.9734 10.4032 10.6766 10.0829 10.6309Z" fill="#4CAF50"/>
<path d="M9.58066 14.1464C9.26003 14.1004 8.96351 14.3232 8.91773 14.6436L8.75034 15.8155C8.7046 16.1358 8.92718 16.4326 9.24757 16.4784C9.56812 16.5243 9.86476 16.3013 9.9105 15.9812L10.0779 14.8093C10.1236 14.4889 9.90101 14.1922 9.58066 14.1464Z" fill="#4CAF50"/>
<path d="M9.0784 17.662C8.75762 17.616 8.46125 17.8389 8.41547 18.1592L8.24809 19.3311C8.20234 19.6514 8.42492 19.9482 8.74531 19.994C9.06586 20.0399 9.3625 19.8169 9.40824 19.4968L9.57562 18.3249C9.62137 18.0046 9.39879 17.7078 9.0784 17.662Z" fill="#4CAF50"/>
</g>
<defs>
<clipPath id="clip0_22_898">
<rect width="20" height="20" fill="white"/>
</clipPath>
</defs>
</svg>
