<svg width="12" height="12" viewBox="0 0 12 12" fill="none" xmlns="http://www.w3.org/2000/svg">
<path d="M11.7166 5.15628L9.38075 7.43328L9.93237 10.6493C9.95637 10.7899 9.89862 10.932 9.78312 11.016C9.71787 11.0637 9.64025 11.0877 9.56262 11.0877C9.503 11.0877 9.443 11.0734 9.38825 11.0445L6.5 9.52615L3.61212 11.0442C3.48612 11.1109 3.33275 11.1 3.21725 11.0157C3.10175 10.9317 3.044 10.7895 3.068 10.6489L3.61962 7.4329L1.28337 5.15628C1.18137 5.05653 1.14425 4.90728 1.1885 4.7719C1.23275 4.63653 1.35012 4.53715 1.4915 4.51653L4.71987 4.04778L6.16362 1.12203C6.29 0.8659 6.71 0.8659 6.83637 1.12203L8.28012 4.04778L11.5085 4.51653C11.6499 4.53715 11.7672 4.63615 11.8115 4.7719C11.8557 4.90765 11.8186 5.05615 11.7166 5.15628Z" fill="#1A4564"/>
</svg>
