<svg width="20" height="20" viewBox="0 0 20 20" fill="none" xmlns="http://www.w3.org/2000/svg">
<path d="M19.5272 8.59371L15.6341 12.3887L16.5535 17.7487C16.5935 17.9831 16.4972 18.22 16.3047 18.36C16.196 18.4393 16.0666 18.4793 15.9372 18.4793C15.8379 18.4793 15.7379 18.4556 15.6466 18.4075L10.8329 15.8768L6.01974 18.4068C5.80974 18.5181 5.55411 18.5 5.36161 18.3593C5.16911 18.2193 5.07286 17.9825 5.11286 17.7481L6.03224 12.3881L2.13849 8.59371C1.96849 8.42746 1.90661 8.17871 1.98036 7.95309C2.05411 7.72746 2.24974 7.56184 2.48536 7.52746L7.86599 6.74621L10.2722 1.86996C10.4829 1.44309 11.1829 1.44309 11.3935 1.86996L13.7997 6.74621L19.1804 7.52746C19.416 7.56184 19.6116 7.72684 19.6854 7.95309C19.7591 8.17934 19.6972 8.42684 19.5272 8.59371Z" fill="#C09460"/>
</svg>
