<svg width="28" height="28" viewBox="0 0 28 28" fill="none" xmlns="http://www.w3.org/2000/svg">
<path d="M27.9737 9.41325L26.2237 2.41325C26.1275 2.023 25.7757 1.75 25.375 1.75H2.625C2.22425 1.75 1.8725 2.023 1.77625 2.41325L0.02625 9.41325C0.00875 9.4815 0 9.55325 0 9.625C0 11.0915 0.69475 12.3848 1.75 13.1793V25.375C1.75 25.858 2.142 26.25 2.625 26.25H11.375C11.858 26.25 12.25 25.858 12.25 25.375V19.25H15.75V25.375C15.75 25.858 16.142 26.25 16.625 26.25H25.375C25.858 26.25 26.25 25.858 26.25 25.375V13.1793C27.3053 12.3848 28 11.0915 28 9.625C28 9.55325 27.9912 9.4815 27.9737 9.41325ZM24.5 24.5H17.5V18.375C17.5 17.892 17.108 17.5 16.625 17.5H11.375C10.892 17.5 10.5 17.892 10.5 18.375V24.5H3.5V13.93C3.71525 13.9668 3.93225 14 4.15625 14C5.48975 14 6.67625 13.3368 7.4375 12.3077C8.19875 13.3368 9.38525 14 10.7188 14C12.0522 14 13.2388 13.3368 14 12.3077C14.7612 13.3368 15.9478 14 17.2812 14C18.6147 14 19.8013 13.3368 20.5625 12.3077C21.3237 13.3368 22.5103 14 23.8438 14C24.0678 14 24.2847 13.9668 24.5 13.93V24.5ZM23.8438 12.25C22.5173 12.25 21.4375 11.0723 21.4375 9.625C21.4375 9.142 21.0455 8.75 20.5625 8.75C20.0795 8.75 19.6875 9.142 19.6875 9.625C19.6875 11.0723 18.6077 12.25 17.2812 12.25C15.9548 12.25 14.875 11.0723 14.875 9.625C14.875 9.142 14.483 8.75 14 8.75C13.517 8.75 13.125 9.142 13.125 9.625C13.125 11.0723 12.0452 12.25 10.7188 12.25C9.39225 12.25 8.3125 11.0723 8.3125 9.625C8.3125 9.142 7.9205 8.75 7.4375 8.75C6.9545 8.75 6.5625 9.142 6.5625 9.625C6.5625 11.0723 5.48275 12.25 4.15625 12.25C2.86125 12.25 1.80075 11.1265 1.75175 9.7265L3.30925 3.5H24.6925L26.25 9.7265C26.1992 11.1265 25.1388 12.25 23.8438 12.25Z" fill="#C09460"/>
</svg>
