<svg width="24" height="24" viewBox="0 0 24 24" fill="none" xmlns="http://www.w3.org/2000/svg">
<g clip-path="url(#clip0_75_9650)">
<path d="M23.2368 0.0741295C22.8873 -0.0988861 22.4671 0.0411764 22.2926 0.387911L15.8745 13.2354L14.6174 12.6057C13.5765 12.0846 12.3076 12.5089 11.7864 13.5471L11.4717 14.1755L19.0165 17.9544L19.3312 17.3257C19.8509 16.2878 19.4356 15.0204 18.3898 14.4954L17.1325 13.8656L23.5506 1.01824C23.7243 0.670801 23.5835 0.248505 23.2368 0.0741295Z" fill="#0D1B4E"/>
<path d="M8.10938 24C8.4977 24 8.8125 23.6852 8.8125 23.2969C8.8125 22.9085 8.4977 22.5938 8.10938 22.5938C7.72105 22.5938 7.40625 22.9085 7.40625 23.2969C7.40625 23.6852 7.72105 24 8.10938 24Z" fill="#0D1B4E"/>
<path d="M1.07812 19.7812C1.46645 19.7812 1.78125 19.4665 1.78125 19.0781C1.78125 18.6898 1.46645 18.375 1.07812 18.375C0.6898 18.375 0.375 18.6898 0.375 19.0781C0.375 19.4665 0.6898 19.7812 1.07812 19.7812Z" fill="#0D1B4E"/>
<path d="M3.89062 21.1875C4.27895 21.1875 4.59375 20.8727 4.59375 20.4844C4.59375 20.096 4.27895 19.7812 3.89062 19.7812C3.5023 19.7812 3.1875 20.096 3.1875 20.4844C3.1875 20.8727 3.5023 21.1875 3.89062 21.1875Z" fill="#0D1B4E"/>
<path d="M5.29688 22.5938H2.48438C2.09644 22.5938 1.78125 22.2786 1.78125 21.8906C1.78125 21.502 1.46677 21.1875 1.07812 21.1875C0.689484 21.1875 0.375 21.502 0.375 21.8906C0.375 23.0538 1.32122 24 2.48438 24H5.29688C5.68552 24 6 23.6855 6 23.2969C6 22.9082 5.68552 22.5938 5.29688 22.5938Z" fill="#0D1B4E"/>
<path d="M5.09231 18.1909C4.78467 18.2294 4.53885 18.4649 4.48668 18.7698C4.43451 19.0754 4.5876 19.3789 4.86435 19.5176L8.22412 21.1999C8.83045 21.5034 9.50057 21.6242 10.1543 21.5548C10.0774 21.8666 10.2236 22.201 10.5224 22.3513L13.6658 23.9258C13.93 24.0561 14.2363 24.0102 14.4479 23.8228C14.558 23.7248 16.9528 21.5702 18.3526 19.1954L10.7774 15.4014C9.08015 17.6565 5.13539 18.1853 5.09231 18.1909Z" fill="#0D1B4E"/>
</g>
<defs>
<clipPath id="clip0_75_9650">
<rect width="24" height="24" fill="white"/>
</clipPath>
</defs>
</svg>
