<svg width="54" height="54" viewBox="0 0 54 54" fill="none" xmlns="http://www.w3.org/2000/svg">
<g clip-path="url(#clip0_16_92)">
<path d="M49.1356 28.5573L47.1359 29.7299C46.2927 30.2246 45.2481 30.2189 44.41 29.7149L42.5411 28.5914C40.7087 27.4894 38.4248 27.4768 36.5802 28.5585L34.5826 29.7299C33.7391 30.2246 32.6949 30.2188 31.8568 29.7149L29.9879 28.5914C29.7995 28.4781 29.6061 28.3769 29.4091 28.2867V6.55447C29.4092 4.68483 30.9302 3.16407 32.7998 3.16407C34.6695 3.16407 36.1903 4.68504 36.1903 6.55458V10.1313H39.3544V6.55447C39.3544 2.94037 36.4142 0 32.7999 0C29.1856 0 26.2453 2.94037 26.2453 6.55447V19.1371H12.946V6.55447C12.946 4.68493 14.467 3.16407 16.3365 3.16407C18.2061 3.16407 19.727 4.68504 19.727 6.55458V10.1313H22.8911V6.55447C22.8911 2.94037 19.9507 0 16.3365 0C12.7223 0 9.78205 2.94037 9.78205 6.55447V29.5506L9.47671 29.7297C8.63328 30.2243 7.58872 30.2185 6.75087 29.7147L4.8943 28.5985L3.26385 31.3103L5.12042 32.4265C6.95158 33.5276 9.23414 33.5402 11.0772 32.4592L13.0748 31.2878C13.9195 30.7924 14.9655 30.7982 15.8047 31.3029L17.6737 32.4264C19.5048 33.5276 21.7873 33.5402 23.6303 32.4592L25.6278 31.2878C26.4726 30.7924 27.5187 30.7982 28.3578 31.3029L30.2267 32.4264C31.1517 32.9827 32.192 33.2611 33.2326 33.2611C34.2518 33.2611 35.2715 32.9941 36.1836 32.4592L38.1811 31.2878C39.0258 30.7925 40.0719 30.7983 40.911 31.3029L42.78 32.4265C44.6112 33.5275 46.8937 33.5402 48.7367 32.4592L50.7364 31.2866L49.1356 28.5573ZM26.2453 27.8026C25.4755 27.9003 24.7204 28.1521 24.0273 28.5586L22.0297 29.73C21.1863 30.2247 20.1419 30.2189 19.3039 29.715L17.435 28.5915C16.0667 27.7688 14.4467 27.5536 12.9459 27.9476V22.3012H26.2453V27.8026Z" fill="#1A4564"/>
<path d="M49.1357 39.118L47.136 40.2907C46.2926 40.7854 45.2483 40.7796 44.4101 40.2757L42.5411 39.152C40.7087 38.0502 38.4246 38.0378 36.5803 39.1193L34.5827 40.2906C33.7394 40.7852 32.6948 40.7794 31.857 40.2756L29.9879 39.152C28.1556 38.0499 25.8714 38.0376 24.0272 39.1192L22.0296 40.2905C21.1862 40.7852 20.1417 40.7794 19.3039 40.2755L17.4348 39.1517C15.6022 38.0499 13.3182 38.0375 11.4741 39.1191L9.47647 40.2904C8.63304 40.7849 7.58858 40.7792 6.75073 40.2755L4.89416 39.1591L3.26361 41.8706L5.1205 42.987C6.95165 44.088 9.2341 44.1006 11.0772 43.0197L13.0748 41.8483C13.9194 41.3529 14.9654 41.3586 15.8046 41.8634L17.6736 42.9871C19.5049 44.0882 21.7873 44.1006 23.6303 43.0198L25.6279 41.8484C26.4725 41.3527 27.5185 41.3586 28.3576 41.8634L30.2268 42.9871C31.1518 43.5433 32.1921 43.8217 33.2326 43.8217C34.2519 43.8217 35.2714 43.5545 36.1835 43.0197L38.1812 41.8483C39.0257 41.353 40.0715 41.3585 40.911 41.8634L42.7801 42.9871C44.6115 44.0882 46.8939 44.1006 48.7367 43.0198L50.7364 41.8472L49.1357 39.118Z" fill="#C09460"/>
<path d="M49.1354 49.296L47.136 50.4688C46.2925 50.9634 45.2481 50.9578 44.4101 50.4537L42.5411 49.3301C40.7087 48.2285 38.4247 48.2159 36.5803 49.2974L34.5828 50.4688C33.7393 50.9634 32.6951 50.9576 31.8569 50.4537L29.9879 49.3302C28.1556 48.2281 25.8714 48.2159 24.0272 49.2974L22.0296 50.4688C21.1862 50.9634 20.1418 50.9578 19.3038 50.4537L17.4349 49.3301C15.6022 48.2282 13.3182 48.2159 11.4741 49.2974L9.4765 50.4688C8.63307 50.9634 7.58861 50.9577 6.75066 50.4537L4.8943 49.3374L3.26385 52.0491L5.12042 53.1653C6.95158 54.2664 9.23414 54.279 11.0771 53.1981L13.0747 52.0267C13.9193 51.5314 14.9653 51.5371 15.8045 52.0417L17.6734 53.1652C19.5046 54.2664 21.7872 54.2791 23.6301 53.198L25.6277 52.0266C26.4723 51.531 27.5182 51.5369 28.3576 52.0416L30.2265 53.1651C31.1516 53.7215 32.1918 53.9999 33.2325 53.9999C34.2517 53.9998 35.2714 53.7328 36.1833 53.1979L38.181 52.0265C39.0257 51.5311 40.0719 51.537 40.9108 52.0415L42.7798 53.1651C44.6111 54.2662 46.8935 54.2789 48.7365 53.1979L50.7362 52.0253L49.1354 49.296Z" fill="#C09460"/>
</g>
<defs>
<clipPath id="clip0_16_92">
<rect width="54" height="54" fill="white"/>
</clipPath>
</defs>
</svg>
