<svg width="24" height="25" viewBox="0 0 24 25" fill="none" xmlns="http://www.w3.org/2000/svg">
<g opacity="0.3">
<path d="M12 16C10.07 16 8.5 14.43 8.5 12.5C8.5 10.57 10.07 9 12 9C13.93 9 15.5 10.57 15.5 12.5C15.5 14.43 13.93 16 12 16ZM12 10.5C10.9 10.5 10 11.4 10 12.5C10 13.6 10.9 14.5 12 14.5C13.1 14.5 14 13.6 14 12.5C14 11.4 13.1 10.5 12 10.5Z" fill="white"/>
<path d="M17 23.25C16.59 23.25 16.25 22.91 16.25 22.5C16.25 20.16 14.34 18.25 12 18.25C9.66 18.25 7.75 20.16 7.75 22.5C7.75 22.91 7.41 23.25 7 23.25C6.59 23.25 6.25 22.91 6.25 22.5C6.25 19.33 8.83 16.75 12 16.75C15.17 16.75 17.75 19.33 17.75 22.5C17.75 22.91 17.41 23.25 17 23.25Z" fill="white"/>
<path d="M17 8.75C15.07 8.75 13.5 7.18 13.5 5.25C13.5 3.32 15.07 1.75 17 1.75C18.93 1.75 20.5 3.32 20.5 5.25C20.5 7.18 18.93 8.75 17 8.75ZM17 3.25C15.9 3.25 15 4.15 15 5.25C15 6.35 15.9 7.25 17 7.25C18.1 7.25 19 6.35 19 5.25C19 4.15 18.1 3.25 17 3.25Z" fill="white"/>
<path d="M22 16C21.59 16 21.25 15.66 21.25 15.25C21.25 12.91 19.34 11 17 11C16.59 11 16.25 10.66 16.25 10.25C16.25 9.84 16.59 9.5 17 9.5C20.17 9.5 22.75 12.08 22.75 15.25C22.75 15.66 22.41 16 22 16Z" fill="white"/>
<path d="M7 8.75C5.07 8.75 3.5 7.18 3.5 5.25C3.5 3.32 5.07 1.75 7 1.75C8.93 1.75 10.5 3.32 10.5 5.25C10.5 7.18 8.93 8.75 7 8.75ZM7 3.25C5.9 3.25 5 4.15 5 5.25C5 6.35 5.9 7.25 7 7.25C8.1 7.25 9 6.35 9 5.25C9 4.15 8.1 3.25 7 3.25Z" fill="white"/>
<path d="M2 16C1.59 16 1.25 15.66 1.25 15.25C1.25 12.08 3.83 9.5 7 9.5C7.41 9.5 7.75 9.84 7.75 10.25C7.75 10.66 7.41 11 7 11C4.66 11 2.75 12.91 2.75 15.25C2.75 15.66 2.41 16 2 16Z" fill="white"/>
</g>
</svg>
