<?xml version="1.0" encoding="iso-8859-1"?>
<!-- Generator: Adobe Illustrator 19.0.0, SVG Export Plug-In . SVG Version: 6.00 Build 0)  -->
<svg version="1.1" id="Capa_1" xmlns="http://www.w3.org/2000/svg" xmlns:xlink="http://www.w3.org/1999/xlink" x="0px" y="0px"
	 viewBox="0 0 512 512" style="enable-background:new 0 0 512 512;" xml:space="preserve">
<path style="fill:#FFB98A;" d="M203.721,217.357l58.906-63.672H78.778v94.078h164.957v-26.736h-38.41
	C202.575,221.028,201.854,219.376,203.721,217.357z"/>
<g style="opacity:0.1;">
	<rect x="78.78" y="153.69" width="25.22" height="94.08"/>
</g>
<path style="fill:#083E63;" d="M312.805,99.449H190V110c0,2.75-2.25,5-5,5h-56c-2.75,0-5-2.25-5-5V99.449H98.289
	c-2.75,0-6.419,1.746-8.154,3.88l-37.781,46.477c-1.735,2.134-0.904,3.88,1.846,3.88h208.428L312.805,99.449z"/>
<g style="opacity:0.1;">
	<path d="M77.834,149.806l37.781-46.477c1.735-2.134,5.404-3.88,8.154-3.88h-25.48c-2.75,0-6.419,1.746-8.154,3.88l-37.781,46.477
		c-1.735,2.134-0.904,3.88,1.846,3.88h25.48C76.93,153.686,76.099,151.939,77.834,149.806z"/>
</g>
<path style="fill:#FFB98A;" d="M41.5,302v119.647c5.159-5.33,12.384-8.647,20.387-8.647c9.246,0,17.444,4.434,22.623,11.28
	c1.067-0.178,2.157-0.293,3.275-0.293c3.024,0,5.891,0.683,8.453,1.896c4.006-10.373,14.061-17.734,25.84-17.734
	c13.944,0,25.478,10.313,27.409,23.733c7.367,1.429,12.933,7.912,12.933,15.7c0,2.043-0.397,3.99-1.096,5.787h6.221
	c2.75,0,5,2.25,5,5V472c0,2.75-2.25,5-5,5h76.19V302H41.5z"/>
<g style="opacity:0.1;">
	<path d="M41.5,302v119.647c5.159-5.33,12.384-8.647,20.387-8.647c1.746,0,3.455,0.159,5.113,0.462V302H41.5z"/>
</g>
<g>
	<path style="fill:#1DD9DD;" d="M84.51,424.28c1.068-0.178,2.157-0.293,3.275-0.293c3.024,0,5.891,0.683,8.453,1.896
		c1.867-4.835,5.061-9.002,9.119-12.088V348c0-2.75-2.25-5-5-5H72c-2.75,0-5,2.25-5,5v65.478
		C74.123,414.776,80.311,418.728,84.51,424.28z"/>
	<path style="fill:#1DD9DD;" d="M159.291,343h-28.357c-2.75,0-5,2.25-5,5v60.414c10.487,1.462,19.093,8.801,22.391,18.586h10.967
		c2.75,0,5-2.25,5-5v-74C164.291,345.25,162.041,343,159.291,343z"/>
	<path style="fill:#1DD9DD;" d="M223,422c0,2.75-2.25,5-5,5h-28.357c-2.75,0-5-2.25-5-5v-74c0-2.75,2.25-5,5-5H218
		c2.75,0,5,2.25,5,5V422z"/>
</g>
<path style="fill:#5DC647;" d="M70.477,453.367c-1.574-2.84-2.477-6.105-2.477-9.583c0-9.815,7.146-17.939,16.51-19.503
	C79.331,417.434,71.133,413,61.887,413c-15.672,0-28.379,12.705-28.379,28.378c0,4.286,0.956,8.347,2.657,11.99L70.477,453.367
	L70.477,453.367z"/>
<path style="fill:#368C0E;" d="M161.324,453.367c0.698-1.796,1.096-3.743,1.096-5.787c0-7.788-5.565-14.271-12.933-15.7
	c-1.931-13.42-13.465-23.733-27.409-23.733c-11.779,0-21.834,7.361-25.84,17.734c-2.563-1.212-5.429-1.896-8.453-1.896
	c-10.927,0-19.785,8.863-19.785,19.797c0,3.478,0.902,6.743,2.477,9.583h90.847V453.367z"/>
<path style="fill:#775436;" d="M172.545,458.367c0-2.75-2.25-5-5-5H25.056c-2.75,0-5,2.25-5,5V472c0,2.75,2.25,5,5,5h142.489
	c2.75,0,5-2.25,5-5V458.367z"/>
<g style="opacity:0.1;">
	<path d="M45.511,472v-13.633c0-2.75,2.25-5,5-5H25.056c-2.75,0-5,2.25-5,5V472c0,2.75,2.25,5,5,5h25.455
		C47.761,477,45.511,474.75,45.511,472z"/>
</g>
<path style="fill:#046699;" d="M243.735,247.764H56.59c-2.75,0-6.419,1.746-8.154,3.88L10.654,298.12
	C8.919,300.254,9.75,302,12.5,302h231.235V247.764z"/>
<g style="opacity:0.1;">
	<path d="M35.834,298.12l37.781-46.476c1.735-2.134,5.404-3.88,8.154-3.88H56.59c-2.75,0-6.419,1.746-8.154,3.88L10.654,298.12
		C8.919,300.254,9.75,302,12.5,302h25.18C34.93,302,34.099,300.254,35.834,298.12z"/>
</g>
<path style="fill:#046699;" d="M498.323,217.357L354.417,61.811c-1.867-2.019-4.924-2.019-6.791,0L203.721,217.357
	c-1.867,2.019-1.146,3.67,1.604,3.67h38.41v-1.06l107.286-115.966L458.31,219.968v1.06h38.408
	C499.469,221.028,500.19,219.376,498.323,217.357z"/>
<path style="fill:#FFD5B3;" d="M412.816,428.217c-2.75,0-3.875-1.949-2.5-4.33l21.941-38.003h-7.743c-2.75,0-3.875-1.948-2.5-4.33
	l19.02-32.943h-6.498c-2.75,0-3.875-1.949-2.5-4.33l22.578-39.108c0.995-1.725,2.447-2.182,3.696-1.409v-83.796L351.022,104.002
	L243.735,219.968V477h202.398v-48.783H412.816z"/>
<g style="opacity:0.1;">
	<polygon points="363.654,117.656 351.022,104.002 243.735,219.968 243.735,477 269,477 269,219.968 	"/>
</g>
<path style="fill:#B2762F;" d="M390.281,472c0,2.75-2.25,5-5,5h-68.518c-2.75,0-5-2.25-5-5V348.598c0-2.75,2.25-5,5-5h68.518
	c2.75,0,5,2.25,5,5V472z"/>
<g style="opacity:0.1;">
	<path d="M337,472V348.598c0-2.75,2.25-5,5-5h-25.236c-2.75,0-5,2.25-5,5V472c0,2.75,2.25,5,5,5H342C339.25,477,337,474.75,337,472z
		"/>
</g>
<path style="fill:#1DD9DD;" d="M385.281,277.598V209c0-2.75-2.25-5-5-5h-58.518c-2.75,0-5,2.25-5,5v68.598H385.281z"/>
<g style="opacity:0.1;">
	<path d="M342,277.598V209c0-2.75,2.25-5,5-5h-25.236c-2.75,0-5,2.25-5,5v68.598H342z"/>
</g>
<path style="fill:#775436;" d="M402.281,296c0,2.75-2.25,5-5,5h-92.518c-2.75,0-5-2.25-5-5v-13.402c0-2.75,2.25-5,5-5h92.518
	c2.75,0,5,2.25,5,5V296z"/>
<g style="opacity:0.1;">
	<path d="M325,296v-13.402c0-2.75,2.25-5,5-5h-25.236c-2.75,0-5,2.25-5,5V296c0,2.75,2.25,5,5,5H330C327.25,301,325,298.75,325,296z
		"/>
</g>
<path style="fill:#C6A07D;" d="M124,65v45c0,2.75,2.25,5,5,5h56c2.75,0,5-2.25,5-5V65H124z"/>
<g style="opacity:0.1;">
	<path d="M149,110V65h-25v45c0,2.75,2.25,5,5,5h25C151.25,115,149,112.75,149,110z"/>
</g>
<path style="fill:#775436;" d="M202,60c0,2.75-2.25,5-5,5h-80c-2.75,0-5-2.25-5-5V40c0-2.75,2.25-5,5-5h80c2.75,0,5,2.25,5,5V60z"/>
<g style="opacity:0.1;">
	<path d="M137,60V40c0-2.75,2.25-5,5-5h-25c-2.75,0-5,2.25-5,5v20c0,2.75,2.25,5,5,5h25C139.25,65,137,62.75,137,60z"/>
</g>
<rect x="78.78" y="178" style="fill:#1DD9DD;" width="66.864" height="43"/>
<g style="opacity:0.1;">
	<rect x="78.78" y="178" width="25.22" height="43"/>
</g>
<path style="fill:#A2F9F9;" d="M174,178h-28.357v43H174c2.75,0,5-2.25,5-5v-33C179,180.25,176.75,178,174,178z"/>
<rect x="446.13" y="428.22" style="fill:#775436;" width="21.961" height="48.783"/>
<path style="fill:#368C0E;" d="M503.913,423.887l-21.941-38.003h-49.714l-21.941,38.003c-1.375,2.381-0.25,4.33,2.5,4.33h88.597
	C504.163,428.217,505.288,426.269,503.913,423.887z"/>
<g style="opacity:0.1;">
	<path d="M435.587,423.887l21.941-38.003h-25.27l-21.941,38.003c-1.375,2.381-0.25,4.33,2.5,4.33h25.271
		C435.337,428.217,434.212,426.269,435.587,423.887z"/>
</g>
<path style="fill:#5DC647;" d="M492.214,381.554l-19.02-32.943h-32.16l-19.02,32.943c-1.375,2.382-0.25,4.33,2.5,4.33h65.199
	C492.464,385.884,493.589,383.935,492.214,381.554z"/>
<g style="opacity:0.1;">
	<path d="M447.285,381.554l19.02-32.943h-25.27l-19.02,32.943c-1.375,2.382-0.25,4.33,2.5,4.33h25.271
		C447.035,385.884,445.91,383.935,447.285,381.554z"/>
</g>
<path style="fill:#368C0E;" d="M434.536,348.611c-2.75,0-3.875-1.949-2.5-4.33l22.578-39.108c1.375-2.381,3.625-2.381,5,0
	l22.578,39.108c1.375,2.381,0.25,4.33-2.5,4.33H434.536z"/>
<g style="opacity:0.1;">
	<path d="M457.307,344.281l12.443-21.552l-10.136-17.556c-1.375-2.381-3.625-2.381-5,0l-22.578,39.108
		c-1.375,2.381-0.25,4.33,2.5,4.33h25.271C457.057,348.611,455.932,346.662,457.307,344.281z"/>
</g>
<path d="M189.643,434.5H218c6.893,0,12.5-5.607,12.5-12.5v-74c0-6.893-5.607-12.5-12.5-12.5h-28.357c-6.893,0-12.5,5.607-12.5,12.5
	v74C177.143,428.893,182.75,434.5,189.643,434.5z M192.143,350.5H215.5v69h-23.357V350.5z"/>
<path d="M332,400.133c-4.143,0-7.5,3.358-7.5,7.5v16.396c0,4.142,3.357,7.5,7.5,7.5s7.5-3.358,7.5-7.5v-16.396
	C339.5,403.491,336.143,400.133,332,400.133z"/>
<path d="M409.781,296v-13.402c0-6.893-5.608-12.5-12.5-12.5h-4.5V209c0-6.893-5.608-12.5-12.5-12.5h-58.518
	c-6.893,0-12.5,5.607-12.5,12.5v61.098h-4.5c-6.893,0-12.5,5.607-12.5,12.5V296c0,6.893,5.607,12.5,12.5,12.5h92.518
	C404.174,308.5,409.781,302.893,409.781,296z M324.264,211.5h53.518v58.598h-53.518V211.5z M394.781,293.5h-87.518v-8.402h87.518
	V293.5z"/>
<path d="M504.5,469.5h-28.905v-33.783h25.818c4.003,0,7.477-1.877,9.292-5.022c1.815-3.145,1.705-7.092-0.297-10.558L494.4,392.41
	c1.94-0.853,3.556-2.229,4.605-4.048c1.815-3.145,1.705-7.092-0.297-10.559l-13.361-23.143c1.508-0.858,2.767-2.064,3.637-3.572
	c1.815-3.145,1.705-7.092-0.297-10.558l-22.578-39.108c-0.092-0.16-0.201-0.3-0.299-0.454v-72.441h30.908
	c4.363,0,7.88-2.083,9.405-5.574c1.526-3.49,0.668-7.486-2.296-10.69L359.923,56.718c-2.305-2.492-5.55-3.921-8.901-3.921
	c-3.352,0-6.597,1.429-8.9,3.92l-32.596,35.232H197.5V72.475c6.66-0.266,12-5.751,12-12.475V40c0-6.893-5.607-12.5-12.5-12.5h-80
	c-6.893,0-12.5,5.607-12.5,12.5v20c0,6.724,5.34,12.209,12,12.475V91.95H98.289c-5.044,0-10.79,2.733-13.974,6.649l-37.78,46.476
	c-2.687,3.303-3.327,7.301-1.714,10.694c1.614,3.393,5.12,5.418,9.378,5.418h17.079v79.078H56.59c-5.044,0-10.79,2.733-13.974,6.649
	L4.836,293.39c-2.686,3.303-3.327,7.301-1.714,10.694c1.614,3.393,5.12,5.418,9.378,5.418H34v109.337
	c-4.993,6.165-7.992,14.007-7.992,22.54c0,1.521,0.1,3.018,0.285,4.49h-1.237c-6.893,0-12.5,5.607-12.5,12.5V469.5H7.5
	c-4.143,0-7.5,3.358-7.5,7.5s3.357,7.5,7.5,7.5h497c4.143,0,7.5-3.358,7.5-7.5S508.643,469.5,504.5,469.5z M493.423,420.717h-72.616
	l15.781-27.333h41.054L493.423,420.717z M432.505,378.384l12.859-22.273h23.5l12.859,22.273H432.505z M471.702,341.111h-29.176
	l14.588-25.268L471.702,341.111z M119.5,42.5h75v15h-75V42.5z M182.5,72.5v35h-51v-35H182.5z M64.962,146.186l30.971-38.099
	c0.425-0.459,1.765-1.098,2.356-1.137H116.5V110c0,6.893,5.607,12.5,12.5,12.5h56c6.893,0,12.5-5.607,12.5-12.5v-3.051l98.148-0.001
	l-36.3,39.237H64.962V146.186z M86.278,185.5h51.864v28H86.278V185.5z M165.045,469.5H27.556v-8.633h137.489V469.5z M60.586,445.867
	H41.51c-0.321-1.447-0.502-2.947-0.502-4.49c0-11.512,9.366-20.878,20.879-20.878c3.109,0,6.118,0.715,8.842,2
	c-6.23,5.007-10.229,12.685-10.229,21.283C60.5,444.485,60.533,445.179,60.586,445.867z M142.064,432.948
	c0.455,3.161,2.861,5.687,5.995,6.295c3.402,0.66,6,3.325,6.68,6.624H75.697c-0.117-0.679-0.197-1.371-0.197-2.083
	c0-6.781,5.511-12.297,12.285-12.297c1.833,0,3.598,0.396,5.245,1.175c1.885,0.892,4.056,0.959,5.991,0.185
	c1.936-0.773,3.462-2.318,4.213-4.263c2.988-7.737,10.561-12.936,18.844-12.936C132.053,415.647,140.645,423.085,142.064,432.948z
	 M133.434,402.553V350.5h23.357v69h-3.566C149.033,411.581,141.913,405.479,133.434,402.553z M97.857,410.378
	c-2.044,1.935-3.869,4.111-5.411,6.504c-1.527-0.263-3.084-0.396-4.661-0.396c-0.041,0-0.082,0.003-0.123,0.003
	c-3.695-3.804-8.201-6.769-13.162-8.656V350.5h23.357C97.857,350.5,97.857,410.378,97.857,410.378z M236.235,294.5H170
	c-4.143,0-7.5,3.358-7.5,7.5s3.357,7.5,7.5,7.5h66.235v160h-56.19v-11.133c0-6.099-4.394-11.184-10.181-12.276
	c-0.306-4.826-2.091-9.305-4.933-12.951c4.064-2.066,6.859-6.278,6.859-11.14v-74c0-6.893-5.607-12.5-12.5-12.5h-28.357
	c-6.893,0-12.5,5.607-12.5,12.5v52.857c-1.896,0.201-3.761,0.551-5.576,1.051V348c0-6.893-5.607-12.5-12.5-12.5H72
	c-6.893,0-12.5,5.607-12.5,12.5v57.588c-3.678,0.243-7.205,1.042-10.5,2.314V309.5h85c4.143,0,7.5-3.358,7.5-7.5s-3.357-7.5-7.5-7.5
	H23.263l30.971-38.099c0.425-0.46,1.765-1.098,2.356-1.137l179.646-0.001L236.235,294.5L236.235,294.5z M236.235,240.264H86.278
	V228.5H174c6.893,0,12.5-5.607,12.5-12.5v-33c0-6.893-5.607-12.5-12.5-12.5H86.278v-9.314H245.47l-47.257,51.08
	c-2.962,3.204-3.82,7.2-2.294,10.69c1.526,3.489,5.042,5.573,9.405,5.573h30.91v11.735H236.235z M153.143,213.5v-28H171.5v28
	H153.143z M438.634,469.5h-40.852V415c0-4.142-3.358-7.5-7.5-7.5c-4.143,0-7.5,3.358-7.5,7.5v54.5h-63.518V351.098h63.518V380
	c0,4.142,3.357,7.5,7.5,7.5c4.142,0,7.5-3.358,7.5-7.5v-31.402c0-6.893-5.608-12.5-12.5-12.5h-68.518c-6.893,0-12.5,5.607-12.5,12.5
	V469.5h-53.028V222.905l99.786-107.859l35.203,38.05c1.477,1.598,3.489,2.407,5.507,2.407c1.821,0,3.648-0.66,5.092-1.995
	c3.04-2.813,3.225-7.558,0.411-10.599l-40.708-44c-1.419-1.535-3.415-2.407-5.505-2.407c-2.091,0-4.086,0.872-5.505,2.407
	l-106.04,114.619h-21.995l133.54-144.344l133.541,144.344H462.57l-41.284-44.622c-2.812-3.041-7.558-3.225-10.599-0.412
	c-3.04,2.813-3.225,7.558-0.411,10.599l40.535,43.813v75.313c-1.043,0.861-1.959,1.937-2.691,3.204l-22.578,39.108
	c-2.002,3.466-2.112,7.413-0.297,10.558c0.87,1.508,2.129,2.714,3.638,3.572l-13.362,23.144c-2.002,3.466-2.112,7.414-0.297,10.558
	c1.05,1.818,2.666,3.195,4.606,4.048l-16.008,27.727c-2.001,3.467-2.112,7.414-0.297,10.559s5.289,5.022,9.292,5.022h25.817
	L438.634,469.5L438.634,469.5z M460.595,469.5h-6.961v-33.783h6.961V469.5z"/>
<g>
</g>
<g>
</g>
<g>
</g>
<g>
</g>
<g>
</g>
<g>
</g>
<g>
</g>
<g>
</g>
<g>
</g>
<g>
</g>
<g>
</g>
<g>
</g>
<g>
</g>
<g>
</g>
<g>
</g>
</svg>
