<svg width="54" height="54" viewBox="0 0 54 54" fill="none" xmlns="http://www.w3.org/2000/svg">
<path d="M45.5625 14.3438H10.5469C8.45398 14.3438 6.75 12.6406 6.75 10.5469C6.75 8.45316 8.45398 6.75 10.5469 6.75H40.5C41.4327 6.75 42.1875 5.99442 42.1875 5.0625C42.1875 4.13058 41.4327 3.375 40.5 3.375H10.5469C6.5918 3.375 3.375 6.59262 3.375 10.5469V40.5C3.375 46.0833 7.91675 50.625 13.5 50.625H45.5625C48.3541 50.625 50.625 48.3541 50.625 45.5625V19.4062C50.625 16.6146 48.3541 14.3438 45.5625 14.3438ZM45.5625 47.25H13.5C9.77728 47.25 6.75 44.2219 6.75 40.5V16.6295C7.85248 17.3191 9.15271 17.7188 10.5469 17.7188H45.5625C46.4936 17.7188 47.25 18.476 47.25 19.4062V25.6981H37.1613C33.4188 25.6981 30.375 28.7427 30.375 32.4844C30.375 36.226 33.4188 39.2706 37.1613 39.2706H47.25V45.5625C47.25 46.4928 46.4936 47.25 45.5625 47.25ZM47.25 35.8956H37.1613C35.2809 35.8956 33.75 34.3655 33.75 32.4844C33.75 30.6032 35.2809 29.0731 37.1613 29.0731H47.25V35.8956Z" fill="#1A4564"/>
<path d="M40.5 8.85938H13.5C12.5673 8.85938 11.8125 9.61496 11.8125 10.5469C11.8125 11.4788 12.5673 12.2344 13.5 12.2344H40.5C41.4327 12.2344 42.1875 11.4788 42.1875 10.5469C42.1875 9.61496 41.4327 8.85938 40.5 8.85938Z" fill="#C09460"/>
</svg>
