<svg width="20" height="20" viewBox="0 0 20 20" fill="none" xmlns="http://www.w3.org/2000/svg">
<path d="M18.8332 14L12.4165 3.41667C11.5832 2.08334 9.83317 1.66667 8.49984 2.58334C8.1665 2.83334 7.83317 3.08334 7.6665 3.41667L1.1665 14C0.666504 14.75 0.666504 15.75 1.1665 16.5C1.6665 17.4167 2.58317 17.9167 3.58317 17.9167H16.3332C17.3332 17.9167 18.2498 17.4167 18.7498 16.5C19.2498 15.75 19.2498 14.75 18.8332 14ZM9.99984 14.5833C9.49984 14.5833 9.1665 14.25 9.1665 13.75C9.1665 13.25 9.49984 12.9167 9.99984 12.9167C10.4998 12.9167 10.8332 13.25 10.8332 13.75C10.8332 14.25 10.4165 14.5833 9.99984 14.5833ZM10.8332 11.25C10.8332 11.75 10.4998 12.0833 9.99984 12.0833C9.49984 12.0833 9.1665 11.75 9.1665 11.25V7.91667C9.1665 7.41667 9.49984 7.08334 9.99984 7.08334C10.4998 7.08334 10.8332 7.41667 10.8332 7.91667V11.25Z" fill="#E44A54"/>
</svg>
