<svg width="29" height="29" viewBox="0 0 29 29" fill="none" xmlns="http://www.w3.org/2000/svg">
<g clip-path="url(#clip0_66_861)">
<path d="M14.5036 0H14.4964C6.50144 0 0 6.50325 0 14.5C0 17.6719 1.02225 20.6117 2.76044 22.9988L0.953375 28.3856L6.52681 26.6039C8.81962 28.1228 11.5547 29 14.5036 29C22.4986 29 29 22.4949 29 14.5C29 6.50506 22.4986 0 14.5036 0Z" fill="#4CAF50"/>
<path d="M22.9408 20.4758C22.5909 21.4636 21.2026 22.2829 20.0951 22.5221C19.3375 22.6834 18.3479 22.8121 15.0165 21.431C10.7553 19.6656 8.01119 15.3356 7.79731 15.0546C7.5925 14.7737 6.07544 12.7618 6.07544 10.6811C6.07544 8.60031 7.13213 7.58713 7.55806 7.15213C7.90788 6.79506 8.48606 6.63194 9.04069 6.63194C9.22013 6.63194 9.38144 6.641 9.52644 6.64825C9.95238 6.66638 10.1663 6.69175 10.4472 7.36419C10.797 8.207 11.6489 10.2878 11.7504 10.5016C11.8537 10.7155 11.957 11.0055 11.812 11.2864C11.6761 11.5764 11.5564 11.7051 11.3426 11.9516C11.1287 12.1981 10.9257 12.3866 10.7118 12.6513C10.5161 12.8814 10.2949 13.1279 10.5414 13.5539C10.7879 13.9708 11.6398 15.3609 12.8941 16.4774C14.5126 17.9184 15.8249 18.3788 16.2943 18.5745C16.6441 18.7195 17.061 18.6851 17.3166 18.4132C17.641 18.0634 18.0416 17.4834 18.4494 16.9124C18.7394 16.5028 19.1055 16.4521 19.4898 16.5971C19.8813 16.733 21.9529 17.7571 22.3789 17.9691C22.8048 18.183 23.0858 18.2845 23.1891 18.4639C23.2906 18.6434 23.2906 19.4862 22.9408 20.4758Z" fill="#FAFAFA"/>
</g>
<defs>
<clipPath id="clip0_66_861">
<rect width="29" height="29" fill="white"/>
</clipPath>
</defs>
</svg>
