<svg width="32" height="32" viewBox="0 0 32 32" fill="none" xmlns="http://www.w3.org/2000/svg">
<g clip-path="url(#clip0_36_2684)">
<path d="M29.1174 16.9228L27.9324 17.6177C27.4327 17.9108 26.8137 17.9075 26.3171 17.6088L25.2096 16.943C24.1237 16.29 22.7702 16.2825 21.6772 16.9235L20.4934 17.6177C19.9935 17.9108 19.3747 17.9074 18.8781 17.6088L17.7706 16.943C17.659 16.8759 17.5443 16.816 17.4276 16.7625V3.88413C17.4277 2.77619 18.329 1.875 19.4369 1.875C20.5449 1.875 21.4461 2.77632 21.4461 3.88419V6.00376H23.3211V3.88413C23.3211 1.74244 21.5788 0 19.437 0C17.2952 0 15.5528 1.74244 15.5528 3.88413V11.3405H7.6717V3.88413C7.6717 2.77626 8.57302 1.875 9.68089 1.875C10.7888 1.875 11.6901 2.77632 11.6901 3.88419V6.00376H13.5651V3.88413C13.5651 1.74244 11.8226 0 9.68089 0C7.53914 0 5.79676 1.74244 5.79676 3.88413V17.5115L5.61582 17.6176C5.11601 17.9107 4.49701 17.9073 4.00051 17.6087L2.90032 16.9473L1.93413 18.5542L3.03432 19.2157C4.11944 19.8682 5.47207 19.8757 6.56426 19.2351L7.74801 18.5409C8.24858 18.2473 8.86845 18.2508 9.36577 18.5498L10.4733 19.2157C11.5584 19.8682 12.911 19.8757 14.0032 19.2351L15.1868 18.5409C15.6875 18.2473 16.3073 18.2508 16.8046 18.5498L17.9121 19.2157C18.4603 19.5453 19.0767 19.7103 19.6934 19.7103C20.2974 19.7103 20.9016 19.552 21.4421 19.2351L22.6259 18.5409C23.1264 18.2474 23.7463 18.2508 24.2435 18.5498L25.3511 19.2157C26.4362 19.8682 27.7889 19.8757 28.881 19.2351L30.066 18.5402L29.1174 16.9228ZM15.5528 16.4756C15.0966 16.5335 14.6491 16.6827 14.2384 16.9236L13.0547 17.6178C12.5548 17.9109 11.936 17.9075 11.4393 17.6089L10.3318 16.9431C9.52102 16.4556 8.56102 16.328 7.67164 16.5615V13.2155H15.5528V16.4756Z" fill="white" fill-opacity="0.9"/>
<path d="M29.1174 23.181L27.9324 23.8759C27.4327 24.1691 26.8138 24.1656 26.3171 23.8671L25.2096 23.2011C24.1237 22.5482 22.7702 22.5409 21.6772 23.1817L20.4935 23.8759C19.9937 24.169 19.3747 24.1656 18.8782 23.867L17.7706 23.2011C16.6848 22.5481 15.3312 22.5407 14.2383 23.1817L13.0546 23.8758C12.5548 24.169 11.9358 24.1656 11.4393 23.8669L10.3318 23.201C9.24577 22.5481 7.89227 22.5407 6.79945 23.1816L5.6157 23.8757C5.11589 24.1688 4.49695 24.1654 4.00045 23.8669L2.90026 23.2054L1.93401 24.8122L3.03438 25.4738C4.11951 26.1262 5.47208 26.1336 6.56427 25.4931L7.74802 24.7989C8.24852 24.5054 8.86839 24.5088 9.36571 24.8079L10.4733 25.4738C11.5585 26.1263 12.911 26.1336 14.0032 25.4932L15.1869 24.799C15.6874 24.5053 16.3073 24.5088 16.8045 24.8079L17.9122 25.4738C18.4604 25.8034 19.0768 25.9684 19.6934 25.9684C20.2974 25.9684 20.9016 25.8101 21.4421 25.4931L22.6259 24.7989C23.1264 24.5054 23.7461 24.5087 24.2436 24.8079L25.3512 25.4738C26.4364 26.1263 27.789 26.1336 28.881 25.4932L30.066 24.7983L29.1174 23.181Z" fill="#C09460"/>
<path d="M29.1172 29.2125L27.9324 29.9075C27.4326 30.2006 26.8137 30.1973 26.3171 29.8986L25.2095 29.2327C24.1237 28.5799 22.7702 28.5725 21.6772 29.2134L20.4935 29.9075C19.9937 30.2006 19.3748 30.1972 18.8782 29.8986L17.7706 29.2328C16.6848 28.5797 15.3312 28.5725 14.2383 29.2134L13.0546 29.9075C12.5548 30.2006 11.9359 30.1973 11.4393 29.8986L10.3318 29.2327C9.24577 28.5798 7.89226 28.5725 6.79945 29.2134L5.6157 29.9075C5.11588 30.2006 4.49695 30.1972 4.00038 29.8986L2.90032 29.237L1.93413 30.844L3.03432 31.5055C4.11944 32.158 5.47207 32.1654 6.5642 31.5249L7.74795 30.8307C8.24845 30.5372 8.86833 30.5406 9.36564 30.8396L10.4731 31.5054C11.5583 32.158 12.9109 32.1655 14.003 31.5249L15.1868 30.8307C15.6873 30.537 16.3071 30.5405 16.8045 30.8395L17.912 31.5054C18.4602 31.835 19.0766 32 19.6933 32C20.2973 32 20.9015 31.8417 21.442 31.5248L22.6258 30.8306C23.1264 30.537 23.7463 30.5405 24.2434 30.8395L25.351 31.5054C26.4362 32.1579 27.7887 32.1654 28.8809 31.5248L30.0659 30.8299L29.1172 29.2125Z" fill="#C09460"/>
</g>
<defs>
<clipPath id="clip0_36_2684">
<rect width="32" height="32" fill="white"/>
</clipPath>
</defs>
</svg>
