<svg width="32" height="32" viewBox="0 0 32 32" fill="none" xmlns="http://www.w3.org/2000/svg">
<path d="M20.677 12.5817C19.099 12.0717 17.372 12.4347 16 13.5217C14.628 12.4327 12.899 12.0717 11.323 12.5817C9.47703 13.1787 8.21203 14.8347 7.93603 17.0127C7.34603 21.6727 12.401 25.0897 15.726 26.1497C15.815 26.1777 15.908 26.1917 15.999 26.1917C16.092 26.1917 16.184 26.1777 16.273 26.1497C19.595 25.0877 24.649 21.6687 24.063 17.0127C23.789 14.8347 22.522 13.1777 20.677 12.5817ZM16 24.3427C13.057 23.3117 9.30703 20.5227 9.72203 17.2387C9.91003 15.7497 10.696 14.6757 11.877 14.2947C12.166 14.2017 12.465 14.1557 12.766 14.1557C13.682 14.1557 14.615 14.5797 15.342 15.3587C15.684 15.7227 16.317 15.7227 16.658 15.3587C17.624 14.3237 18.954 13.9177 20.123 14.2947C21.305 14.6767 22.09 15.7497 22.279 17.2387C22.691 20.5197 18.942 23.3097 16 24.3427Z" fill="#C09460"/>
<path d="M28.699 9.1748L18.839 2.4528C17.114 1.2768 14.886 1.2768 13.161 2.4528L3.30098 9.1748C1.92298 10.1148 1.09998 11.6708 1.09998 13.3388V25.3818C1.09998 28.1608 3.36098 30.4218 6.13998 30.4218H25.86C28.639 30.4218 30.9 28.1608 30.9 25.3818V13.3388C30.9 11.6708 30.077 10.1148 28.699 9.1748ZM29.1 25.3818C29.1 27.1688 27.647 28.6218 25.861 28.6218H6.13998C4.35398 28.6218 2.90098 27.1678 2.90098 25.3818V13.3388C2.90098 12.2668 3.42898 11.2658 4.31498 10.6618L14.175 3.9398C15.284 3.1838 16.716 3.1838 17.825 3.9398L27.685 10.6618C28.571 11.2658 29.099 12.2658 29.099 13.3388L29.1 25.3818Z" fill="white" fill-opacity="0.9"/>
</svg>
