<svg width="32" height="32" viewBox="0 0 32 32" fill="none" xmlns="http://www.w3.org/2000/svg">
<g clip-path="url(#clip0_36_2690)">
<path d="M31.0625 24.4375C30.5443 24.4375 30.125 24.8568 30.125 25.375V26.3125H24.4375V25.375C24.4375 24.8568 24.0182 24.4375 23.5 24.4375C22.9818 24.4375 22.5625 24.8568 22.5625 25.375V26.3125H16.9375V25.375C16.9375 24.8568 16.5182 24.4375 16 24.4375C15.4818 24.4375 15.0625 24.8568 15.0625 25.375V26.3125H9.4375V25.375C9.4375 24.8568 9.01819 24.4375 8.5 24.4375C7.98181 24.4375 7.5625 24.8568 7.5625 25.375V26.3125H1.875V25.375C1.875 24.8568 1.45569 24.4375 0.9375 24.4375C0.419312 24.4375 0 24.8568 0 25.375V31.0625C0 31.5807 0.419312 32 0.9375 32H31.0625C31.5807 32 32 31.5807 32 31.0625V25.375C32 24.8568 31.5807 24.4375 31.0625 24.4375ZM7.5625 30.125H1.875V28.1875H7.5625V30.125ZM15.0625 30.125H9.4375V28.1875H15.0625V30.125ZM22.5625 30.125H16.9375V28.1875H22.5625V30.125ZM30.125 30.125H24.4375V28.1875H30.125V30.125Z" fill="white" fill-opacity="0.9"/>
<path d="M3.8125 7.5625C5.88069 7.5625 7.5625 5.88069 7.5625 3.8125C7.5625 1.74431 5.88069 0 3.8125 0C1.74431 0 0 1.74431 0 3.8125C0 5.88069 1.74431 7.5625 3.8125 7.5625Z" fill="#C09460"/>
<path d="M32 16C32 14.7674 31.1978 13.7291 30.0921 13.35C30.0972 13.2937 30.125 13.2451 30.125 13.1875C30.125 12.1539 29.2836 11.3125 28.25 11.3125C27.2164 11.3125 26.375 12.1539 26.375 13.1875C26.375 13.2451 26.4028 13.2937 26.4079 13.35C25.3022 13.7291 24.4375 14.7674 24.4375 16C24.4375 17.5509 25.7616 18.8125 27.3125 18.8125V20.6875H16.9375V18.8125C18.4884 18.8125 19.75 17.5509 19.75 16C19.75 14.7674 18.9478 13.7291 17.8421 13.35C17.8472 13.2937 17.875 13.2451 17.875 13.1875C17.875 12.1539 17.0336 11.3125 16 11.3125C14.9664 11.3125 14.125 12.1539 14.125 13.1875C14.125 13.2451 14.1528 13.2937 14.1579 13.35C13.0522 13.7291 12.25 14.7674 12.25 16C12.25 17.5509 13.5116 18.8125 15.0625 18.8125V20.6875H4.75V18.8125C6.30087 18.8125 7.5625 17.5509 7.5625 16C7.5625 14.7674 6.76025 13.7291 5.65456 13.35C5.65969 13.2937 5.6875 13.2451 5.6875 13.1875C5.6875 12.1539 4.84613 11.3125 3.8125 11.3125C2.77887 11.3125 1.875 12.1539 1.875 13.1875C1.875 13.2451 1.90281 13.2937 1.90794 13.35C0.80225 13.7291 0 14.7674 0 16C0 17.5509 1.32413 18.8125 2.875 18.8125V20.6875H0.9375C0.419312 20.6875 0 21.1068 0 21.625C0 22.1432 0.419312 22.5625 0.9375 22.5625H31.0625C31.5807 22.5625 32 22.1432 32 21.625C32 21.1068 31.5807 20.6875 31.0625 20.6875H29.1875V18.8125C30.7384 18.8125 32 17.5509 32 16Z" fill="white" fill-opacity="0.9"/>
<path d="M6.63062 10.7301C6.98893 11.1405 7.26637 11.6236 7.41968 12.1612C8.40562 12.8434 9.0778 13.8859 9.32143 15.0625H10.491C10.7346 13.8859 11.4069 12.8434 12.3927 12.1612C12.5461 11.6236 12.8235 11.1405 13.1818 10.7301C12.8402 10.2129 12.3464 9.80513 11.7482 9.6C11.7533 9.54369 11.7811 9.49506 11.7811 9.4375C11.7811 8.40387 10.9397 7.5625 9.90612 7.5625C8.87249 7.5625 8.03112 8.40387 8.03112 9.4375C8.03112 9.49506 8.05893 9.54369 8.06405 9.6C7.46599 9.80506 6.97218 10.2128 6.63062 10.7301Z" fill="#C09460"/>
<path d="M18.8181 10.7301C19.1764 11.1405 19.4539 11.6236 19.6072 12.1612C20.5931 12.8434 21.2653 13.8859 21.5089 15.0625H22.6785C22.9221 13.8859 23.5944 12.8434 24.5802 12.1612C24.7336 11.6236 25.011 11.1405 25.3693 10.7301C25.0277 10.2129 24.5339 9.80513 23.9357 9.6C23.9408 9.54369 23.9686 9.49506 23.9686 9.4375C23.9686 8.40387 23.1272 7.5625 22.0936 7.5625C21.06 7.5625 20.2186 8.40387 20.2186 9.4375C20.2186 9.49506 20.2464 9.54369 20.2516 9.6C19.6535 9.80506 19.1597 10.2128 18.8181 10.7301Z" fill="#C09460"/>
</g>
<defs>
<clipPath id="clip0_36_2690">
<rect width="32" height="32" fill="white"/>
</clipPath>
</defs>
</svg>
