<svg width="32" height="32" viewBox="0 0 32 32" fill="none" xmlns="http://www.w3.org/2000/svg">
<g clip-path="url(#clip0_36_2702)">
<path d="M31.2893 14.7931L28.2441 10.5697C27.219 9.14769 25.0282 8.03369 23.2565 8.03369H8.74344C6.97183 8.03369 4.78103 9.14762 3.75572 10.5697L0.710489 14.7932C-0.41263 16.3512 -0.167194 18.6732 1.25761 19.9693L13.4039 31.0188C14.0987 31.6509 15.0193 31.9992 15.9962 32.0001C15.9975 32.0001 15.9987 32.0002 16 32.0002C16.0013 32.0002 16.0026 32.0001 16.004 32.0001C16.9808 31.9991 17.9011 31.6508 18.5959 31.0187L30.7424 19.9692C32.1672 18.6731 32.4126 16.3511 31.2893 14.7931ZM26.7231 11.6663L29.7684 15.8897C29.8176 15.958 29.8613 16.0296 29.9002 16.1037H22.2556L20.7139 9.90874H23.2566C24.4283 9.90874 26.0482 10.73 26.7231 11.6663ZM16 28.5047L11.8539 17.9787H20.146L16 28.5047ZM13.2182 9.90874H18.7818L20.3234 16.1037H11.6764L13.2182 9.90874ZM5.27665 11.6663C5.95171 10.7301 7.5717 9.90874 8.7435 9.90874H11.2861L9.74425 16.1037H2.09973C2.13861 16.0296 2.18223 15.958 2.23142 15.8897L5.27665 11.6663ZM2.51935 18.5824C2.33292 18.4128 2.18573 18.2059 2.07917 17.9787H9.83869L14.2965 29.2961L2.51935 18.5824ZM29.4806 18.5824L17.7035 29.2959L22.1611 17.9786H29.9208C29.8143 18.2058 29.6671 18.4128 29.4806 18.5824Z" fill="white" fill-opacity="0.9"/>
<path d="M15.9999 5.89218C16.5176 5.89218 16.9374 5.47243 16.9374 4.95468V0.937988C16.9374 0.420238 16.5176 0.000488281 15.9999 0.000488281C15.4821 0.000488281 15.0624 0.420238 15.0624 0.937988V4.95468C15.0624 5.47243 15.4821 5.89218 15.9999 5.89218Z" fill="#C09460"/>
<path d="M21.6056 5.79294C21.7402 5.86025 21.8832 5.89213 22.0241 5.89213C22.368 5.89213 22.6991 5.70219 22.8633 5.37369L24.8717 1.357C25.1032 0.893877 24.9155 0.330814 24.4524 0.099189C23.9893 -0.132374 23.4262 0.055314 23.1947 0.518502L21.1863 4.53519C20.9548 4.99831 21.1425 5.56138 21.6056 5.79294Z" fill="#C09460"/>
<path d="M9.13637 5.37365C9.30062 5.70221 9.63168 5.89209 9.97562 5.89209C10.1165 5.89209 10.2596 5.86021 10.3941 5.7929C10.8572 5.56134 11.0449 4.99821 10.8134 4.53509L8.80512 0.518463C8.57356 0.0553378 8.01056 -0.13235 7.54737 0.0991503C7.08425 0.330713 6.89656 0.893838 7.12812 1.35696L9.13637 5.37365Z" fill="#C09460"/>
</g>
<defs>
<clipPath id="clip0_36_2702">
<rect width="32" height="32" fill="white"/>
</clipPath>
</defs>
</svg>
