<svg width="32" height="32" viewBox="0 0 32 32" fill="none" xmlns="http://www.w3.org/2000/svg">
<g clip-path="url(#clip0_36_2678)">
<path d="M27.5487 29.1054C26.5878 29.5859 25.7587 30 23.9931 30C22.2265 30 21.3974 29.5849 20.4365 29.1054C19.3994 28.5869 18.2236 28 15.9863 28C13.7519 28 12.5771 28.5879 11.542 29.1054C10.5831 29.5859 9.75489 30 7.99224 30C6.23054 30 5.40245 29.5859 4.44343 29.1054C3.40829 28.5879 2.23445 28 6.80811e-05 28V30C1.76177 30 2.58986 30.4141 3.54889 30.8945C4.58402 31.4121 5.75786 31.9999 7.99224 31.9999C10.2266 31.9999 11.4014 31.4121 12.4365 30.8945C13.3955 30.4141 14.2237 30 15.9863 30C17.7519 30 18.581 30.4141 19.542 30.8945C20.5791 31.4131 21.7548 31.9999 23.9931 31.9999C26.2304 31.9999 27.4061 31.413 28.4433 30.8945C29.4042 30.415 30.2333 30 31.9999 30V28C29.7616 28 28.5858 28.5869 27.5487 29.1054Z" fill="#C09460"/>
<path d="M1.00012 17.9999H4.00008V26.893C4.1479 26.9642 4.3029 27.0351 4.44342 27.1053C4.94477 27.3566 5.41813 27.5854 6.00005 27.7506V16.9998C6.00005 16.4471 5.55278 15.9998 5.00006 15.9998H3.30872L16 2.46184L28.6913 15.9998H26.9999C26.4472 15.9998 26 16.4471 26 16.9998V27.7481C26.5784 27.5831 27.0491 27.3549 27.5488 27.1052C27.6918 27.0337 27.8493 26.9617 28 26.8894V17.9999H30.9999C31.3984 17.9999 31.7588 17.7636 31.9179 17.3973C32.0761 17.0321 32.0019 16.6064 31.7295 16.3163L28 12.3382V1.99997H22V5.9382L16.7295 0.316408C16.5397 0.113897 16.2689 -0.000337222 15.9984 7.47805e-07C15.7289 0.000338718 15.4596 0.11464 15.2705 0.316408L0.270646 16.3163C-0.00182546 16.6064 -0.0760437 17.0321 0.0821938 17.3973C0.24131 17.7636 0.601721 17.9999 1.00012 17.9999ZM24 3.99994H26V10.2049L24 8.0716V3.99994Z" fill="white" fill-opacity="0.9"/>
</g>
<defs>
<clipPath id="clip0_36_2678">
<rect width="32" height="32" fill="white"/>
</clipPath>
</defs>
</svg>
