<svg width="32" height="32" viewBox="0 0 32 32" fill="none" xmlns="http://www.w3.org/2000/svg">
<path d="M27 8.5H6.25C5.00977 8.5 4 7.49072 4 6.25C4 5.00928 5.00977 4 6.25 4H24C24.5527 4 25 3.55225 25 3C25 2.44775 24.5527 2 24 2H6.25C3.90625 2 2 3.90674 2 6.25V24C2 27.3086 4.69141 30 8 30H27C28.6543 30 30 28.6543 30 27V11.5C30 9.8457 28.6543 8.5 27 8.5ZM27 28H8C5.79395 28 4 26.2056 4 24V9.85449C4.65332 10.2632 5.42383 10.5 6.25 10.5H27C27.5518 10.5 28 10.9487 28 11.5V15.2285H22.0215C19.8037 15.2285 18 17.0327 18 19.25C18 21.4673 19.8037 23.2715 22.0215 23.2715H28V27C28 27.5513 27.5518 28 27 28ZM28 21.2715H22.0215C20.9072 21.2715 20 20.3647 20 19.25C20 18.1353 20.9072 17.2285 22.0215 17.2285H28V21.2715Z" fill="white" fill-opacity="0.9"/>
<path d="M24 5.25H8C7.44727 5.25 7 5.69775 7 6.25C7 6.80225 7.44727 7.25 8 7.25H24C24.5527 7.25 25 6.80225 25 6.25C25 5.69775 24.5527 5.25 24 5.25Z" fill="#C09460"/>
</svg>
