<svg width="74" height="75" viewBox="0 0 74 75" fill="none" xmlns="http://www.w3.org/2000/svg">
<g clip-path="url(#clip0_41_670)">
<path d="M73.4047 4.22324L47.3382 31.5151L49.0728 33.2497C49.0728 33.2497 41.3407 37.9657 38.7289 40.7751L24.9598 55.426L21.3007 50.2129L21.6595 47.9766L24.4492 45.383C27.1324 42.6998 29.1848 37.4411 29.1848 37.4411L31.0181 39.2745L70.7885 1.59624C71.1472 1.25717 71.6048 1.08691 72.064 1.08691C72.5398 1.08691 73.0142 1.26931 73.3761 1.63122C73.4094 1.66461 73.4414 1.69958 73.4719 1.73456C74.0873 2.45057 74.0691 3.52848 73.4047 4.22324Z" fill="#EF8C33"/>
<path d="M26.0772 25.0046C25.4475 25.0046 24.937 24.4941 24.937 23.8644V20.8428C24.937 20.2131 25.4475 19.7026 26.0772 19.7026C26.7069 19.7026 27.2174 20.2131 27.2174 20.8428V23.8644C27.2174 24.4941 26.7069 25.0046 26.0772 25.0046Z" fill="#F9D366"/>
<path d="M26.0772 33.1394C25.4475 33.1394 24.937 32.6289 24.937 31.9992V28.9776C24.937 28.3479 25.4475 27.8374 26.0772 27.8374C26.7069 27.8374 27.2174 28.3479 27.2174 28.9776V31.9992C27.2174 32.6289 26.7069 33.1394 26.0772 33.1394Z" fill="#F9D366"/>
<path d="M31.6552 27.5612H28.6337C28.0039 27.5612 27.4935 27.0507 27.4935 26.421C27.4935 25.7912 28.0039 25.2808 28.6337 25.2808H31.6552C32.285 25.2808 32.7954 25.7912 32.7954 26.421C32.7954 27.0507 32.285 27.5612 31.6552 27.5612Z" fill="#F9D366"/>
<path d="M23.5206 27.5612H20.499C19.8693 27.5612 19.3588 27.0507 19.3588 26.421C19.3588 25.7912 19.8693 25.2808 20.499 25.2808H23.5206C24.1503 25.2808 24.6608 25.7912 24.6608 26.421C24.6608 27.0507 24.1503 27.5612 23.5206 27.5612Z" fill="#F9D366"/>
<path d="M47.8929 13.434L50.7162 12.8616C52.0492 12.5914 52.0492 10.6865 50.7162 10.4163L47.8929 9.84398C45.1107 9.28002 42.9362 7.1054 42.3721 4.32318L41.7997 1.49976C41.5295 0.166747 39.6245 0.166747 39.3544 1.49976L38.7821 4.32303C38.2181 7.10526 36.0435 9.27973 33.2613 9.84384L30.438 10.4162C29.105 10.6865 29.105 12.5914 30.438 12.8615L33.2613 13.4338C36.0435 13.9978 38.218 16.1724 38.7821 18.9547L39.3544 21.7779C39.6247 23.1109 41.5296 23.1109 41.7997 21.7779L42.3721 18.9547C42.9362 16.1724 45.1107 13.9981 47.8929 13.434Z" fill="#F9D366"/>
<path d="M67.1449 41.9845L69.497 41.5076C70.6074 41.2824 70.6074 39.6955 69.497 39.4703L67.1449 38.9933C64.8269 38.5235 63.0153 36.7119 62.5455 34.3939L62.0685 32.0418C61.8433 30.9314 60.2564 30.9314 60.0312 32.0418L59.5542 34.3939C59.0844 36.7119 57.2728 38.5235 54.9548 38.9933L52.6027 39.4703C51.4923 39.6955 51.4923 41.2824 52.6027 41.5076L54.9548 41.9845C57.2728 42.4544 59.0844 44.266 59.5542 46.584L60.0312 48.9361C60.2564 50.0465 61.8433 50.0465 62.0685 48.9361L62.5455 46.584C63.0153 44.2661 64.827 42.4546 67.1449 41.9845Z" fill="#F9D366"/>
<path d="M27.8945 54.2118C21.8576 59.0478 16.2645 64.4082 11.1806 70.2279C10.679 70.8026 10.1818 71.3803 9.69082 71.964C8.98551 72.8001 8.29075 73.6455 7.60653 74.4998L0.0812263 66.9745C6.27482 62.0123 12.0001 56.4999 17.1888 50.5039C17.689 49.9276 18.183 49.3455 18.6711 48.7601C19.2443 48.0745 19.8113 47.3843 20.3692 46.6865L27.8945 54.2118Z" fill="#EF8C33"/>
<path d="M22.7261 49.043C21.9406 48.2574 21.1552 47.4721 20.3697 46.6865C14.3718 54.1731 7.56809 60.9769 0.0813713 66.9748C0.866899 67.7603 1.65228 68.5457 2.43781 69.3312C9.92453 63.3333 16.7282 56.5295 22.7261 49.043Z" fill="#D87625"/>
<path d="M73.4716 1.73456L34.4889 40.0257L23.8956 50.2129L21.6593 47.9766L24.4491 45.383C27.1323 42.6998 29.1846 37.4411 29.1846 37.4411L31.018 39.2745L70.7884 1.59624C71.1471 1.25717 71.6047 1.08691 72.0639 1.08691C72.5397 1.08691 73.014 1.26931 73.3759 1.63122C73.4093 1.66461 73.4412 1.69958 73.4716 1.73456Z" fill="#D87625"/>
<path d="M22.8913 54.5921C22.6678 54.8155 22.3759 54.9265 22.0841 54.9265C21.7923 54.9265 21.5003 54.8155 21.2783 54.5921L17.1888 50.504C17.689 49.9278 18.183 49.3456 18.6711 48.7603L22.8914 52.9806C23.3367 53.426 23.3367 54.1481 22.8913 54.5921Z" fill="#D87625"/>
<path d="M11.1808 70.2282C10.6791 70.8028 10.1819 71.3805 9.69097 71.9643L5.83097 68.1043C5.38553 67.6589 5.38553 66.9382 5.83097 66.4928C6.27642 66.0473 6.99849 66.0473 7.44394 66.4928L11.1808 70.2282Z" fill="#D87625"/>
</g>
<defs>
<clipPath id="clip0_41_670">
<rect width="74" height="74" fill="white" transform="translate(0 0.5)"/>
</clipPath>
</defs>
</svg>
