<svg width="20" height="20" viewBox="0 0 20 20" fill="none" xmlns="http://www.w3.org/2000/svg">
<path d="M19.5272 8.5938L15.6341 12.3888L16.5535 17.7488C16.5935 17.9832 16.4972 18.2201 16.3047 18.3601C16.196 18.4394 16.0666 18.4794 15.9372 18.4794C15.8379 18.4794 15.7379 18.4557 15.6466 18.4076L10.8329 15.8769L6.01974 18.4069C5.80974 18.5182 5.55411 18.5001 5.36161 18.3594C5.16911 18.2194 5.07286 17.9826 5.11286 17.7482L6.03224 12.3882L2.13849 8.5938C1.96849 8.42755 1.90661 8.1788 1.98036 7.95318C2.05411 7.72755 2.24974 7.56193 2.48536 7.52755L7.86599 6.7463L10.2722 1.87005C10.4829 1.44318 11.1829 1.44318 11.3935 1.87005L13.7997 6.7463L19.1804 7.52755C19.416 7.56193 19.6116 7.72693 19.6854 7.95318C19.7591 8.17943 19.6972 8.42693 19.5272 8.5938Z" fill="#1A4564"/>
</svg>
